<?xml version="1.0" encoding="UTF-8" standalone="no"?>
<!DOCTYPE svg PUBLIC "-//W3C//DTD SVG 1.1//EN"
 "http://www.w3.org/Graphics/SVG/1.1/DTD/svg11.dtd">
<!-- Generated by graphviz version 5.0.0 (20220707.1540)
 -->
<!-- Title: g Pages: 1 -->
<svg width="484pt" height="604pt"
 viewBox="0.00 0.00 484.00 604.00" xmlns="http://www.w3.org/2000/svg" xmlns:xlink="http://www.w3.org/1999/xlink">
<g id="graph0" class="graph" transform="scale(1 1) rotate(0) translate(4 600)">
<title>g</title>
<polygon fill="white" stroke="transparent" points="-4,4 -4,-600 480,-600 480,4 -4,4"/>
<text text-anchor="middle" x="238" y="-7" font-family="Verdana" font-size="10.00">Table: DangersCategories</text>
<!-- struct0 -->
<g id="node1" class="node">
<title>struct0</title>
<polygon fill="#f7f7f9" stroke="#555555" points="124,-145.5 124,-307.5 264,-307.5 264,-145.5 124,-145.5"/>
<text text-anchor="middle" x="194" y="-296.3" font-family="Verdana" font-size="9.00" fill="#555555">Table: DangersCategories</text>
<polyline fill="none" stroke="#555555" points="124,-289.5 264,-289.5 "/>
<text text-anchor="middle" x="194" y="-278.3" font-family="Verdana" font-size="9.00" fill="#555555">Id +</text>
<polyline fill="none" stroke="#555555" points="124,-271.5 264,-271.5 "/>
<text text-anchor="middle" x="194" y="-260.3" font-family="Verdana" font-size="9.00" fill="#555555">Name</text>
<polyline fill="none" stroke="#555555" points="124,-253.5 264,-253.5 "/>
<text text-anchor="middle" x="194" y="-242.3" font-family="Verdana" font-size="9.00" fill="#555555">IsActive</text>
<polyline fill="none" stroke="#555555" points="124,-235.5 264,-235.5 "/>
<text text-anchor="middle" x="194" y="-224.3" font-family="Verdana" font-size="9.00" fill="#555555">Created</text>
<polyline fill="none" stroke="#555555" points="124,-217.5 264,-217.5 "/>
<text text-anchor="middle" x="194" y="-206.3" font-family="Verdana" font-size="9.00" fill="#555555">+ CreatedBy</text>
<polyline fill="none" stroke="#555555" points="124,-199.5 264,-199.5 "/>
<text text-anchor="middle" x="194" y="-188.3" font-family="Verdana" font-size="9.00" fill="#555555">Modified</text>
<polyline fill="none" stroke="#555555" points="124,-181.5 264,-181.5 "/>
<text text-anchor="middle" x="194" y="-170.3" font-family="Verdana" font-size="9.00" fill="#555555">+ ModifiedBy</text>
<polyline fill="none" stroke="#555555" points="124,-163.5 264,-163.5 "/>
<text text-anchor="middle" x="194" y="-152.3" font-family="Verdana" font-size="9.00" fill="#555555">RowVersion</text>
</g>
<!-- struct2 -->
<g id="node3" class="node">
<title>struct2</title>
<polygon fill="#f7f7f9" stroke="#555555" points="282,-91.5 282,-595.5 476,-595.5 476,-91.5 282,-91.5"/>
<text text-anchor="middle" x="379" y="-584.3" font-family="Verdana" font-size="9.00" fill="#555555">Table: ExaminationsActivities</text>
<polyline fill="none" stroke="#555555" points="282,-577.5 476,-577.5 "/>
<text text-anchor="middle" x="379" y="-566.3" font-family="Verdana" font-size="9.00" fill="#555555">Id +</text>
<polyline fill="none" stroke="#555555" points="282,-559.5 476,-559.5 "/>
<text text-anchor="middle" x="379" y="-548.3" font-family="Verdana" font-size="9.00" fill="#555555">+ ExaminationId</text>
<polyline fill="none" stroke="#555555" points="282,-541.5 476,-541.5 "/>
<text text-anchor="middle" x="379" y="-530.3" font-family="Verdana" font-size="9.00" fill="#555555">SeqNumber</text>
<polyline fill="none" stroke="#555555" points="282,-523.5 476,-523.5 "/>
<text text-anchor="middle" x="379" y="-512.3" font-family="Verdana" font-size="9.00" fill="#555555">Description</text>
<polyline fill="none" stroke="#555555" points="282,-505.5 476,-505.5 "/>
<text text-anchor="middle" x="379" y="-494.3" font-family="Verdana" font-size="9.00" fill="#555555">+ ExecutorId</text>
<polyline fill="none" stroke="#555555" points="282,-487.5 476,-487.5 "/>
<text text-anchor="middle" x="379" y="-476.3" font-family="Verdana" font-size="9.00" fill="#555555">PlanDate</text>
<polyline fill="none" stroke="#555555" points="282,-469.5 476,-469.5 "/>
<text text-anchor="middle" x="379" y="-458.3" font-family="Verdana" font-size="9.00" fill="#555555">FactDate</text>
<polyline fill="none" stroke="#555555" points="282,-451.5 476,-451.5 "/>
<text text-anchor="middle" x="379" y="-440.3" font-family="Verdana" font-size="9.00" fill="#555555">+ ExecutionStatusId</text>
<polyline fill="none" stroke="#555555" points="282,-433.5 476,-433.5 "/>
<text text-anchor="middle" x="379" y="-422.3" font-family="Verdana" font-size="9.00" fill="#555555">IsIncludedInBudget</text>
<polyline fill="none" stroke="#555555" points="282,-415.5 476,-415.5 "/>
<text text-anchor="middle" x="379" y="-404.3" font-family="Verdana" font-size="9.00" fill="#555555">CheckingStatus</text>
<polyline fill="none" stroke="#555555" points="282,-397.5 476,-397.5 "/>
<text text-anchor="middle" x="379" y="-386.3" font-family="Verdana" font-size="9.00" fill="#555555">Created</text>
<polyline fill="none" stroke="#555555" points="282,-379.5 476,-379.5 "/>
<text text-anchor="middle" x="379" y="-368.3" font-family="Verdana" font-size="9.00" fill="#555555">+ CreatedBy</text>
<polyline fill="none" stroke="#555555" points="282,-361.5 476,-361.5 "/>
<text text-anchor="middle" x="379" y="-350.3" font-family="Verdana" font-size="9.00" fill="#555555">Modified</text>
<polyline fill="none" stroke="#555555" points="282,-343.5 476,-343.5 "/>
<text text-anchor="middle" x="379" y="-332.3" font-family="Verdana" font-size="9.00" fill="#555555">+ ModifiedBy</text>
<polyline fill="none" stroke="#555555" points="282,-325.5 476,-325.5 "/>
<text text-anchor="middle" x="379" y="-314.3" font-family="Verdana" font-size="9.00" fill="#555555">Deleted</text>
<polyline fill="none" stroke="#555555" points="282,-307.5 476,-307.5 "/>
<text text-anchor="middle" x="379" y="-296.3" font-family="Verdana" font-size="9.00" fill="#555555">+ DeletedBy</text>
<polyline fill="none" stroke="#555555" points="282,-289.5 476,-289.5 "/>
<text text-anchor="middle" x="379" y="-278.3" font-family="Verdana" font-size="9.00" fill="#555555">+ DangersCategoryId</text>
<polyline fill="none" stroke="#555555" points="282,-271.5 476,-271.5 "/>
<text text-anchor="middle" x="379" y="-260.3" font-family="Verdana" font-size="9.00" fill="#555555">+ MeasuresUnitId</text>
<polyline fill="none" stroke="#555555" points="282,-253.5 476,-253.5 "/>
<text text-anchor="middle" x="379" y="-242.3" font-family="Verdana" font-size="9.00" fill="#555555">RowVersion</text>
<polyline fill="none" stroke="#555555" points="282,-235.5 476,-235.5 "/>
<text text-anchor="middle" x="379" y="-224.3" font-family="Verdana" font-size="9.00" fill="#555555">IsActive</text>
<polyline fill="none" stroke="#555555" points="282,-217.5 476,-217.5 "/>
<text text-anchor="middle" x="379" y="-206.3" font-family="Verdana" font-size="9.00" fill="#555555">DamagesDescription</text>
<polyline fill="none" stroke="#555555" points="282,-199.5 476,-199.5 "/>
<text text-anchor="middle" x="379" y="-188.3" font-family="Verdana" font-size="9.00" fill="#555555">DamagesVolume</text>
<polyline fill="none" stroke="#555555" points="282,-181.5 476,-181.5 "/>
<text text-anchor="middle" x="379" y="-170.3" font-family="Verdana" font-size="9.00" fill="#555555">IsDefectListsDevelopmentRequired</text>
<polyline fill="none" stroke="#555555" points="282,-163.5 476,-163.5 "/>
<text text-anchor="middle" x="379" y="-152.3" font-family="Verdana" font-size="9.00" fill="#555555">IsSpecificationsDevelopmentRequired</text>
<polyline fill="none" stroke="#555555" points="282,-145.5 476,-145.5 "/>
<text text-anchor="middle" x="379" y="-134.3" font-family="Verdana" font-size="9.00" fill="#555555">RequiredBudget4CIW</text>
<polyline fill="none" stroke="#555555" points="282,-127.5 476,-127.5 "/>
<text text-anchor="middle" x="379" y="-116.3" font-family="Verdana" font-size="9.00" fill="#555555">RequiredBudget4Inventory</text>
<polyline fill="none" stroke="#555555" points="282,-109.5 476,-109.5 "/>
<text text-anchor="middle" x="379" y="-98.3" font-family="Verdana" font-size="9.00" fill="#555555">TotalRequiredBudget</text>
</g>
<!-- struct0&#45;&gt;struct2 -->
<g id="edge1" class="edge">
<title>struct0:c766625774_1&#45;&gt;struct2:c1045578763_20</title>
<path fill="none" stroke="black" d="M264,-280.5C267.25,-280.5 269.51,-280.5 271.58,-280.5"/>
<polygon fill="black" stroke="black" points="272,-284 282,-280.5 272,-277 272,-284"/>
</g>
<!-- struct1 -->
<g id="node2" class="node">
<title>struct1</title>
<polygon fill="#f7f7f9" stroke="#555555" points="0,-19.5 0,-217.5 106,-217.5 106,-19.5 0,-19.5"/>
<text text-anchor="middle" x="53" y="-206.3" font-family="Verdana" font-size="9.00" fill="#555555">Table: Employees</text>
<polyline fill="none" stroke="#555555" points="0,-199.5 106,-199.5 "/>
<text text-anchor="middle" x="53" y="-188.3" font-family="Verdana" font-size="9.00" fill="#555555">Id +</text>
<polyline fill="none" stroke="#555555" points="0,-181.5 106,-181.5 "/>
<text text-anchor="middle" x="53" y="-170.3" font-family="Verdana" font-size="9.00" fill="#555555">ExternalEmploeeId</text>
<polyline fill="none" stroke="#555555" points="0,-163.5 106,-163.5 "/>
<text text-anchor="middle" x="53" y="-152.3" font-family="Verdana" font-size="9.00" fill="#555555">Surname</text>
<polyline fill="none" stroke="#555555" points="0,-145.5 106,-145.5 "/>
<text text-anchor="middle" x="53" y="-134.3" font-family="Verdana" font-size="9.00" fill="#555555">Name</text>
<polyline fill="none" stroke="#555555" points="0,-127.5 106,-127.5 "/>
<text text-anchor="middle" x="53" y="-116.3" font-family="Verdana" font-size="9.00" fill="#555555">MiddleName</text>
<polyline fill="none" stroke="#555555" points="0,-109.5 106,-109.5 "/>
<text text-anchor="middle" x="53" y="-98.3" font-family="Verdana" font-size="9.00" fill="#555555">Email</text>
<polyline fill="none" stroke="#555555" points="0,-91.5 106,-91.5 "/>
<text text-anchor="middle" x="53" y="-80.3" font-family="Verdana" font-size="9.00" fill="#555555">DomainLogin</text>
<polyline fill="none" stroke="#555555" points="0,-73.5 106,-73.5 "/>
<text text-anchor="middle" x="53" y="-62.3" font-family="Verdana" font-size="9.00" fill="#555555">FIO</text>
<polyline fill="none" stroke="#555555" points="0,-55.5 106,-55.5 "/>
<text text-anchor="middle" x="53" y="-44.3" font-family="Verdana" font-size="9.00" fill="#555555">FullName</text>
<polyline fill="none" stroke="#555555" points="0,-37.5 106,-37.5 "/>
<text text-anchor="middle" x="53" y="-26.3" font-family="Verdana" font-size="9.00" fill="#555555">Created</text>
</g>
<!-- struct1&#45;&gt;struct0 -->
<g id="edge2" class="edge">
<title>struct1:c789577851_1&#45;&gt;struct0:c766625774_6</title>
<path fill="none" stroke="#337ab7" d="M106,-190.5C112.72,-190.5 113.82,-196.85 115.97,-202"/>
<polygon fill="#337ab7" stroke="#337ab7" points="114.02,-204.93 124,-208.5 118.43,-199.49 114.02,-204.93"/>
</g>
<!-- struct1&#45;&gt;struct0 -->
<g id="edge3" class="edge">
<title>struct1:c789577851_1&#45;&gt;struct0:c766625774_8</title>
<path fill="none" stroke="#337ab7" d="M106,-190.5C112.72,-190.5 113.82,-184.15 115.97,-179"/>
<polygon fill="#337ab7" stroke="#337ab7" points="118.43,-181.51 124,-172.5 114.02,-176.07 118.43,-181.51"/>
</g>
</g>
</svg>
