<?xml version="1.0" encoding="UTF-8" standalone="no"?>
<!DOCTYPE svg PUBLIC "-//W3C//DTD SVG 1.1//EN"
 "http://www.w3.org/Graphics/SVG/1.1/DTD/svg11.dtd">
<!-- Generated by graphviz version 5.0.0 (20220707.1540)
 -->
<!-- Title: g Pages: 1 -->
<svg width="454pt" height="659pt"
 viewBox="0.00 0.00 454.00 659.00" xmlns="http://www.w3.org/2000/svg" xmlns:xlink="http://www.w3.org/1999/xlink">
<g id="graph0" class="graph" transform="scale(1 1) rotate(0) translate(4 655)">
<title>g</title>
<polygon fill="white" stroke="transparent" points="-4,4 -4,-655 450,-655 450,4 -4,4"/>
<text text-anchor="middle" x="223" y="-7" font-family="Verdana" font-size="10.00">Table: ObjectCards</text>
<!-- struct0 -->
<g id="node1" class="node">
<title>struct0</title>
<polygon fill="#f7f7f9" stroke="#555555" points="21,-19.5 21,-217.5 127,-217.5 127,-19.5 21,-19.5"/>
<text text-anchor="middle" x="74" y="-206.3" font-family="Verdana" font-size="9.00" fill="#555555">Table: Employees</text>
<polyline fill="none" stroke="#555555" points="21,-199.5 127,-199.5 "/>
<text text-anchor="middle" x="74" y="-188.3" font-family="Verdana" font-size="9.00" fill="#555555">Id +</text>
<polyline fill="none" stroke="#555555" points="21,-181.5 127,-181.5 "/>
<text text-anchor="middle" x="74" y="-170.3" font-family="Verdana" font-size="9.00" fill="#555555">ExternalEmploeeId</text>
<polyline fill="none" stroke="#555555" points="21,-163.5 127,-163.5 "/>
<text text-anchor="middle" x="74" y="-152.3" font-family="Verdana" font-size="9.00" fill="#555555">Surname</text>
<polyline fill="none" stroke="#555555" points="21,-145.5 127,-145.5 "/>
<text text-anchor="middle" x="74" y="-134.3" font-family="Verdana" font-size="9.00" fill="#555555">Name</text>
<polyline fill="none" stroke="#555555" points="21,-127.5 127,-127.5 "/>
<text text-anchor="middle" x="74" y="-116.3" font-family="Verdana" font-size="9.00" fill="#555555">MiddleName</text>
<polyline fill="none" stroke="#555555" points="21,-109.5 127,-109.5 "/>
<text text-anchor="middle" x="74" y="-98.3" font-family="Verdana" font-size="9.00" fill="#555555">Email</text>
<polyline fill="none" stroke="#555555" points="21,-91.5 127,-91.5 "/>
<text text-anchor="middle" x="74" y="-80.3" font-family="Verdana" font-size="9.00" fill="#555555">DomainLogin</text>
<polyline fill="none" stroke="#555555" points="21,-73.5 127,-73.5 "/>
<text text-anchor="middle" x="74" y="-62.3" font-family="Verdana" font-size="9.00" fill="#555555">FIO</text>
<polyline fill="none" stroke="#555555" points="21,-55.5 127,-55.5 "/>
<text text-anchor="middle" x="74" y="-44.3" font-family="Verdana" font-size="9.00" fill="#555555">FullName</text>
<polyline fill="none" stroke="#555555" points="21,-37.5 127,-37.5 "/>
<text text-anchor="middle" x="74" y="-26.3" font-family="Verdana" font-size="9.00" fill="#555555">Created</text>
</g>
<!-- struct2 -->
<g id="node3" class="node">
<title>struct2</title>
<polygon fill="#f7f7f9" stroke="#555555" points="166,-361.5 166,-451.5 273,-451.5 273,-361.5 166,-361.5"/>
<text text-anchor="middle" x="219.5" y="-440.3" font-family="Verdana" font-size="9.00" fill="#555555">Table: ObjectCards</text>
<polyline fill="none" stroke="#555555" points="166,-433.5 273,-433.5 "/>
<text text-anchor="middle" x="219.5" y="-422.3" font-family="Verdana" font-size="9.00" fill="#555555">Id +</text>
<polyline fill="none" stroke="#555555" points="166,-415.5 273,-415.5 "/>
<text text-anchor="middle" x="219.5" y="-404.3" font-family="Verdana" font-size="9.00" fill="#555555">Created</text>
<polyline fill="none" stroke="#555555" points="166,-397.5 273,-397.5 "/>
<text text-anchor="middle" x="219.5" y="-386.3" font-family="Verdana" font-size="9.00" fill="#555555">+ CreatedBy</text>
<polyline fill="none" stroke="#555555" points="166,-379.5 273,-379.5 "/>
<text text-anchor="middle" x="219.5" y="-368.3" font-family="Verdana" font-size="9.00" fill="#555555">RowVersion</text>
</g>
<!-- struct0&#45;&gt;struct2 -->
<g id="edge3" class="edge">
<title>struct0:c789577851_1&#45;&gt;struct2:c1986106116_3</title>
<path fill="none" stroke="#337ab7" d="M128,-190.5C146.3,-190.5 142.44,-209.06 148,-226.5 152.73,-241.33 149.25,-350.31 159.67,-380.67"/>
<polygon fill="#337ab7" stroke="#337ab7" points="156.99,-382.92 166,-388.5 162.44,-378.52 156.99,-382.92"/>
</g>
<!-- struct1 -->
<g id="node2" class="node">
<title>struct1</title>
<polygon fill="#f7f7f9" stroke="#555555" points="291,-91.5 291,-469.5 446,-469.5 446,-91.5 291,-91.5"/>
<text text-anchor="middle" x="368.5" y="-458.3" font-family="Verdana" font-size="9.00" fill="#555555">Table: Examinations</text>
<polyline fill="none" stroke="#555555" points="291,-451.5 446,-451.5 "/>
<text text-anchor="middle" x="368.5" y="-440.3" font-family="Verdana" font-size="9.00" fill="#555555">Id +</text>
<polyline fill="none" stroke="#555555" points="291,-433.5 446,-433.5 "/>
<text text-anchor="middle" x="368.5" y="-422.3" font-family="Verdana" font-size="9.00" fill="#555555">+ ObjectsCardId</text>
<polyline fill="none" stroke="#555555" points="291,-415.5 446,-415.5 "/>
<text text-anchor="middle" x="368.5" y="-404.3" font-family="Verdana" font-size="9.00" fill="#555555">PlanDate</text>
<polyline fill="none" stroke="#555555" points="291,-397.5 446,-397.5 "/>
<text text-anchor="middle" x="368.5" y="-386.3" font-family="Verdana" font-size="9.00" fill="#555555">FactDate</text>
<polyline fill="none" stroke="#555555" points="291,-379.5 446,-379.5 "/>
<text text-anchor="middle" x="368.5" y="-368.3" font-family="Verdana" font-size="9.00" fill="#555555">ConclusionsNumber</text>
<polyline fill="none" stroke="#555555" points="291,-361.5 446,-361.5 "/>
<text text-anchor="middle" x="368.5" y="-350.3" font-family="Verdana" font-size="9.00" fill="#555555">NextPlanDate</text>
<polyline fill="none" stroke="#555555" points="291,-343.5 446,-343.5 "/>
<text text-anchor="middle" x="368.5" y="-332.3" font-family="Verdana" font-size="9.00" fill="#555555">Created</text>
<polyline fill="none" stroke="#555555" points="291,-325.5 446,-325.5 "/>
<text text-anchor="middle" x="368.5" y="-314.3" font-family="Verdana" font-size="9.00" fill="#555555">+ CreatedBy</text>
<polyline fill="none" stroke="#555555" points="291,-307.5 446,-307.5 "/>
<text text-anchor="middle" x="368.5" y="-296.3" font-family="Verdana" font-size="9.00" fill="#555555">Modified</text>
<polyline fill="none" stroke="#555555" points="291,-289.5 446,-289.5 "/>
<text text-anchor="middle" x="368.5" y="-278.3" font-family="Verdana" font-size="9.00" fill="#555555">+ ModifiedBy</text>
<polyline fill="none" stroke="#555555" points="291,-271.5 446,-271.5 "/>
<text text-anchor="middle" x="368.5" y="-260.3" font-family="Verdana" font-size="9.00" fill="#555555">Deleted</text>
<polyline fill="none" stroke="#555555" points="291,-253.5 446,-253.5 "/>
<text text-anchor="middle" x="368.5" y="-242.3" font-family="Verdana" font-size="9.00" fill="#555555">+ DeletedBy</text>
<polyline fill="none" stroke="#555555" points="291,-235.5 446,-235.5 "/>
<text text-anchor="middle" x="368.5" y="-224.3" font-family="Verdana" font-size="9.00" fill="#555555">RowVersion</text>
<polyline fill="none" stroke="#555555" points="291,-217.5 446,-217.5 "/>
<text text-anchor="middle" x="368.5" y="-206.3" font-family="Verdana" font-size="9.00" fill="#555555">IsActive</text>
<polyline fill="none" stroke="#555555" points="291,-199.5 446,-199.5 "/>
<text text-anchor="middle" x="368.5" y="-188.3" font-family="Verdana" font-size="9.00" fill="#555555">IsInOperatingState</text>
<polyline fill="none" stroke="#555555" points="291,-181.5 446,-181.5 "/>
<text text-anchor="middle" x="368.5" y="-170.3" font-family="Verdana" font-size="9.00" fill="#555555">IsOffline</text>
<polyline fill="none" stroke="#555555" points="291,-163.5 446,-163.5 "/>
<text text-anchor="middle" x="368.5" y="-152.3" font-family="Verdana" font-size="9.00" fill="#555555">IsOfflineSource</text>
<polyline fill="none" stroke="#555555" points="291,-145.5 446,-145.5 "/>
<text text-anchor="middle" x="368.5" y="-134.3" font-family="Verdana" font-size="9.00" fill="#555555">InterimDate</text>
<polyline fill="none" stroke="#555555" points="291,-127.5 446,-127.5 "/>
<text text-anchor="middle" x="368.5" y="-116.3" font-family="Verdana" font-size="9.00" fill="#555555">Name</text>
<polyline fill="none" stroke="#555555" points="291,-109.5 446,-109.5 "/>
<text text-anchor="middle" x="368.5" y="-98.3" font-family="Verdana" font-size="9.00" fill="#555555">+ RequirementsComplianceId</text>
</g>
<!-- struct2&#45;&gt;struct1 -->
<g id="edge1" class="edge">
<title>struct2:c1986106116_1&#45;&gt;struct1:c1077578877_2</title>
<path fill="none" stroke="black" d="M273,-424.5C276.25,-424.5 278.51,-424.5 280.58,-424.5"/>
<polygon fill="black" stroke="black" points="281,-428 291,-424.5 281,-421 281,-428"/>
</g>
<!-- struct3 -->
<g id="node4" class="node">
<title>struct3</title>
<polygon fill="#f7f7f9" stroke="#555555" points="0,-236.5 0,-650.5 148,-650.5 148,-236.5 0,-236.5"/>
<text text-anchor="middle" x="74" y="-639.3" font-family="Verdana" font-size="9.00" fill="#555555">Table: SapToroExtension</text>
<polyline fill="none" stroke="#555555" points="0,-632.5 148,-632.5 "/>
<text text-anchor="middle" x="74" y="-621.3" font-family="Verdana" font-size="9.00" fill="#555555">Id +</text>
<polyline fill="none" stroke="#555555" points="0,-614.5 148,-614.5 "/>
<text text-anchor="middle" x="74" y="-603.3" font-family="Verdana" font-size="9.00" fill="#555555">+ DepartmentId</text>
<polyline fill="none" stroke="#555555" points="0,-596.5 148,-596.5 "/>
<text text-anchor="middle" x="74" y="-585.3" font-family="Verdana" font-size="9.00" fill="#555555">Code</text>
<polyline fill="none" stroke="#555555" points="0,-578.5 148,-578.5 "/>
<text text-anchor="middle" x="74" y="-567.3" font-family="Verdana" font-size="9.00" fill="#555555">Name</text>
<polyline fill="none" stroke="#555555" points="0,-560.5 148,-560.5 "/>
<text text-anchor="middle" x="74" y="-549.3" font-family="Verdana" font-size="9.00" fill="#555555">+ ObjectTypeId</text>
<polyline fill="none" stroke="#555555" points="0,-542.5 148,-542.5 "/>
<text text-anchor="middle" x="74" y="-531.3" font-family="Verdana" font-size="9.00" fill="#555555">TechnologyNumber</text>
<polyline fill="none" stroke="#555555" points="0,-524.5 148,-524.5 "/>
<text text-anchor="middle" x="74" y="-513.3" font-family="Verdana" font-size="9.00" fill="#555555">RegistrationNumber</text>
<polyline fill="none" stroke="#555555" points="0,-506.5 148,-506.5 "/>
<text text-anchor="middle" x="74" y="-495.3" font-family="Verdana" font-size="9.00" fill="#555555">InventoryNumber</text>
<polyline fill="none" stroke="#555555" points="0,-488.5 148,-488.5 "/>
<text text-anchor="middle" x="74" y="-477.3" font-family="Verdana" font-size="9.00" fill="#555555">BeginDate</text>
<polyline fill="none" stroke="#555555" points="0,-470.5 148,-470.5 "/>
<text text-anchor="middle" x="74" y="-459.3" font-family="Verdana" font-size="9.00" fill="#555555">EndDate</text>
<polyline fill="none" stroke="#555555" points="0,-452.5 148,-452.5 "/>
<text text-anchor="middle" x="74" y="-441.3" font-family="Verdana" font-size="9.00" fill="#555555">PrimaryId</text>
<polyline fill="none" stroke="#555555" points="0,-434.5 148,-434.5 "/>
<text text-anchor="middle" x="74" y="-423.3" font-family="Verdana" font-size="9.00" fill="#555555">Created</text>
<polyline fill="none" stroke="#555555" points="0,-416.5 148,-416.5 "/>
<text text-anchor="middle" x="74" y="-405.3" font-family="Verdana" font-size="9.00" fill="#555555">+ CreatedBy</text>
<polyline fill="none" stroke="#555555" points="0,-398.5 148,-398.5 "/>
<text text-anchor="middle" x="74" y="-387.3" font-family="Verdana" font-size="9.00" fill="#555555">Modified</text>
<polyline fill="none" stroke="#555555" points="0,-380.5 148,-380.5 "/>
<text text-anchor="middle" x="74" y="-369.3" font-family="Verdana" font-size="9.00" fill="#555555">+ ModifiedBy</text>
<polyline fill="none" stroke="#555555" points="0,-362.5 148,-362.5 "/>
<text text-anchor="middle" x="74" y="-351.3" font-family="Verdana" font-size="9.00" fill="#555555">Deleted</text>
<polyline fill="none" stroke="#555555" points="0,-344.5 148,-344.5 "/>
<text text-anchor="middle" x="74" y="-333.3" font-family="Verdana" font-size="9.00" fill="#555555">+ DeletedBy</text>
<polyline fill="none" stroke="#555555" points="0,-326.5 148,-326.5 "/>
<text text-anchor="middle" x="74" y="-315.3" font-family="Verdana" font-size="9.00" fill="#555555">RowVersion</text>
<polyline fill="none" stroke="#555555" points="0,-308.5 148,-308.5 "/>
<text text-anchor="middle" x="74" y="-297.3" font-family="Verdana" font-size="9.00" fill="#555555">IsActive</text>
<polyline fill="none" stroke="#555555" points="0,-290.5 148,-290.5 "/>
<text text-anchor="middle" x="74" y="-279.3" font-family="Verdana" font-size="9.00" fill="#555555">+ HPFRegistrationNumberId</text>
<polyline fill="none" stroke="#555555" points="0,-272.5 148,-272.5 "/>
<text text-anchor="middle" x="74" y="-261.3" font-family="Verdana" font-size="9.00" fill="#555555">InServiceDate</text>
<polyline fill="none" stroke="#555555" points="0,-254.5 148,-254.5 "/>
<text text-anchor="middle" x="74" y="-243.3" font-family="Verdana" font-size="9.00" fill="#555555">+ ObjectsCategoryId</text>
</g>
<!-- struct3&#45;&gt;struct2 -->
<g id="edge2" class="edge">
<title>struct3:c1938105945_1&#45;&gt;struct2:c1986106116_1</title>
<path fill="none" stroke="#337ab7" d="M148,-623.5C232.99,-623.5 90.45,-441.23 155.89,-425.57"/>
<polygon fill="#337ab7" stroke="#337ab7" points="156.42,-429.03 166,-424.5 155.69,-422.07 156.42,-429.03"/>
</g>
</g>
</svg>
