<?xml version="1.0" encoding="UTF-8" standalone="no"?>
<!DOCTYPE svg PUBLIC "-//W3C//DTD SVG 1.1//EN"
 "http://www.w3.org/Graphics/SVG/1.1/DTD/svg11.dtd">
<!-- Generated by graphviz version 5.0.0 (20220707.1540)
 -->
<!-- Title: g Pages: 1 -->
<svg width="463pt" height="640pt"
 viewBox="0.00 0.00 463.00 640.00" xmlns="http://www.w3.org/2000/svg" xmlns:xlink="http://www.w3.org/1999/xlink">
<g id="graph0" class="graph" transform="scale(1 1) rotate(0) translate(4 636)">
<title>g</title>
<polygon fill="white" stroke="transparent" points="-4,4 -4,-636 459,-636 459,4 -4,4"/>
<text text-anchor="middle" x="227.5" y="-7" font-family="Verdana" font-size="10.00">Table: MeasuresUnits</text>
<!-- struct0 -->
<g id="node1" class="node">
<title>struct0</title>
<polygon fill="#f7f7f9" stroke="#555555" points="0,-19.5 0,-217.5 106,-217.5 106,-19.5 0,-19.5"/>
<text text-anchor="middle" x="53" y="-206.3" font-family="Verdana" font-size="9.00" fill="#555555">Table: Employees</text>
<polyline fill="none" stroke="#555555" points="0,-199.5 106,-199.5 "/>
<text text-anchor="middle" x="53" y="-188.3" font-family="Verdana" font-size="9.00" fill="#555555">Id +</text>
<polyline fill="none" stroke="#555555" points="0,-181.5 106,-181.5 "/>
<text text-anchor="middle" x="53" y="-170.3" font-family="Verdana" font-size="9.00" fill="#555555">ExternalEmploeeId</text>
<polyline fill="none" stroke="#555555" points="0,-163.5 106,-163.5 "/>
<text text-anchor="middle" x="53" y="-152.3" font-family="Verdana" font-size="9.00" fill="#555555">Surname</text>
<polyline fill="none" stroke="#555555" points="0,-145.5 106,-145.5 "/>
<text text-anchor="middle" x="53" y="-134.3" font-family="Verdana" font-size="9.00" fill="#555555">Name</text>
<polyline fill="none" stroke="#555555" points="0,-127.5 106,-127.5 "/>
<text text-anchor="middle" x="53" y="-116.3" font-family="Verdana" font-size="9.00" fill="#555555">MiddleName</text>
<polyline fill="none" stroke="#555555" points="0,-109.5 106,-109.5 "/>
<text text-anchor="middle" x="53" y="-98.3" font-family="Verdana" font-size="9.00" fill="#555555">Email</text>
<polyline fill="none" stroke="#555555" points="0,-91.5 106,-91.5 "/>
<text text-anchor="middle" x="53" y="-80.3" font-family="Verdana" font-size="9.00" fill="#555555">DomainLogin</text>
<polyline fill="none" stroke="#555555" points="0,-73.5 106,-73.5 "/>
<text text-anchor="middle" x="53" y="-62.3" font-family="Verdana" font-size="9.00" fill="#555555">FIO</text>
<polyline fill="none" stroke="#555555" points="0,-55.5 106,-55.5 "/>
<text text-anchor="middle" x="53" y="-44.3" font-family="Verdana" font-size="9.00" fill="#555555">FullName</text>
<polyline fill="none" stroke="#555555" points="0,-37.5 106,-37.5 "/>
<text text-anchor="middle" x="53" y="-26.3" font-family="Verdana" font-size="9.00" fill="#555555">Created</text>
</g>
<!-- struct2 -->
<g id="node3" class="node">
<title>struct2</title>
<polygon fill="#f7f7f9" stroke="#555555" points="124,-145.5 124,-325.5 243,-325.5 243,-145.5 124,-145.5"/>
<text text-anchor="middle" x="183.5" y="-314.3" font-family="Verdana" font-size="9.00" fill="#555555">Table: MeasuresUnits</text>
<polyline fill="none" stroke="#555555" points="124,-307.5 243,-307.5 "/>
<text text-anchor="middle" x="183.5" y="-296.3" font-family="Verdana" font-size="9.00" fill="#555555">Id +</text>
<polyline fill="none" stroke="#555555" points="124,-289.5 243,-289.5 "/>
<text text-anchor="middle" x="183.5" y="-278.3" font-family="Verdana" font-size="9.00" fill="#555555">Name</text>
<polyline fill="none" stroke="#555555" points="124,-271.5 243,-271.5 "/>
<text text-anchor="middle" x="183.5" y="-260.3" font-family="Verdana" font-size="9.00" fill="#555555">Code</text>
<polyline fill="none" stroke="#555555" points="124,-253.5 243,-253.5 "/>
<text text-anchor="middle" x="183.5" y="-242.3" font-family="Verdana" font-size="9.00" fill="#555555">IsActive</text>
<polyline fill="none" stroke="#555555" points="124,-235.5 243,-235.5 "/>
<text text-anchor="middle" x="183.5" y="-224.3" font-family="Verdana" font-size="9.00" fill="#555555">Created</text>
<polyline fill="none" stroke="#555555" points="124,-217.5 243,-217.5 "/>
<text text-anchor="middle" x="183.5" y="-206.3" font-family="Verdana" font-size="9.00" fill="#555555">+ CreatedBy</text>
<polyline fill="none" stroke="#555555" points="124,-199.5 243,-199.5 "/>
<text text-anchor="middle" x="183.5" y="-188.3" font-family="Verdana" font-size="9.00" fill="#555555">Modified</text>
<polyline fill="none" stroke="#555555" points="124,-181.5 243,-181.5 "/>
<text text-anchor="middle" x="183.5" y="-170.3" font-family="Verdana" font-size="9.00" fill="#555555">+ ModifiedBy</text>
<polyline fill="none" stroke="#555555" points="124,-163.5 243,-163.5 "/>
<text text-anchor="middle" x="183.5" y="-152.3" font-family="Verdana" font-size="9.00" fill="#555555">RowVersion</text>
</g>
<!-- struct0&#45;&gt;struct2 -->
<g id="edge2" class="edge">
<title>struct0:c789577851_1&#45;&gt;struct2:c1022626686_7</title>
<path fill="none" stroke="#337ab7" d="M106,-190.5C112.72,-190.5 113.82,-196.85 115.97,-202"/>
<polygon fill="#337ab7" stroke="#337ab7" points="114.02,-204.93 124,-208.5 118.43,-199.49 114.02,-204.93"/>
</g>
<!-- struct0&#45;&gt;struct2 -->
<g id="edge3" class="edge">
<title>struct0:c789577851_1&#45;&gt;struct2:c1022626686_9</title>
<path fill="none" stroke="#337ab7" d="M106,-190.5C112.72,-190.5 113.82,-184.15 115.97,-179"/>
<polygon fill="#337ab7" stroke="#337ab7" points="118.43,-181.51 124,-172.5 114.02,-176.07 118.43,-181.51"/>
</g>
<!-- struct1 -->
<g id="node2" class="node">
<title>struct1</title>
<polygon fill="#f7f7f9" stroke="#555555" points="261,-127.5 261,-631.5 455,-631.5 455,-127.5 261,-127.5"/>
<text text-anchor="middle" x="358" y="-620.3" font-family="Verdana" font-size="9.00" fill="#555555">Table: ExaminationsActivities</text>
<polyline fill="none" stroke="#555555" points="261,-613.5 455,-613.5 "/>
<text text-anchor="middle" x="358" y="-602.3" font-family="Verdana" font-size="9.00" fill="#555555">Id +</text>
<polyline fill="none" stroke="#555555" points="261,-595.5 455,-595.5 "/>
<text text-anchor="middle" x="358" y="-584.3" font-family="Verdana" font-size="9.00" fill="#555555">+ ExaminationId</text>
<polyline fill="none" stroke="#555555" points="261,-577.5 455,-577.5 "/>
<text text-anchor="middle" x="358" y="-566.3" font-family="Verdana" font-size="9.00" fill="#555555">SeqNumber</text>
<polyline fill="none" stroke="#555555" points="261,-559.5 455,-559.5 "/>
<text text-anchor="middle" x="358" y="-548.3" font-family="Verdana" font-size="9.00" fill="#555555">Description</text>
<polyline fill="none" stroke="#555555" points="261,-541.5 455,-541.5 "/>
<text text-anchor="middle" x="358" y="-530.3" font-family="Verdana" font-size="9.00" fill="#555555">+ ExecutorId</text>
<polyline fill="none" stroke="#555555" points="261,-523.5 455,-523.5 "/>
<text text-anchor="middle" x="358" y="-512.3" font-family="Verdana" font-size="9.00" fill="#555555">PlanDate</text>
<polyline fill="none" stroke="#555555" points="261,-505.5 455,-505.5 "/>
<text text-anchor="middle" x="358" y="-494.3" font-family="Verdana" font-size="9.00" fill="#555555">FactDate</text>
<polyline fill="none" stroke="#555555" points="261,-487.5 455,-487.5 "/>
<text text-anchor="middle" x="358" y="-476.3" font-family="Verdana" font-size="9.00" fill="#555555">+ ExecutionStatusId</text>
<polyline fill="none" stroke="#555555" points="261,-469.5 455,-469.5 "/>
<text text-anchor="middle" x="358" y="-458.3" font-family="Verdana" font-size="9.00" fill="#555555">IsIncludedInBudget</text>
<polyline fill="none" stroke="#555555" points="261,-451.5 455,-451.5 "/>
<text text-anchor="middle" x="358" y="-440.3" font-family="Verdana" font-size="9.00" fill="#555555">CheckingStatus</text>
<polyline fill="none" stroke="#555555" points="261,-433.5 455,-433.5 "/>
<text text-anchor="middle" x="358" y="-422.3" font-family="Verdana" font-size="9.00" fill="#555555">Created</text>
<polyline fill="none" stroke="#555555" points="261,-415.5 455,-415.5 "/>
<text text-anchor="middle" x="358" y="-404.3" font-family="Verdana" font-size="9.00" fill="#555555">+ CreatedBy</text>
<polyline fill="none" stroke="#555555" points="261,-397.5 455,-397.5 "/>
<text text-anchor="middle" x="358" y="-386.3" font-family="Verdana" font-size="9.00" fill="#555555">Modified</text>
<polyline fill="none" stroke="#555555" points="261,-379.5 455,-379.5 "/>
<text text-anchor="middle" x="358" y="-368.3" font-family="Verdana" font-size="9.00" fill="#555555">+ ModifiedBy</text>
<polyline fill="none" stroke="#555555" points="261,-361.5 455,-361.5 "/>
<text text-anchor="middle" x="358" y="-350.3" font-family="Verdana" font-size="9.00" fill="#555555">Deleted</text>
<polyline fill="none" stroke="#555555" points="261,-343.5 455,-343.5 "/>
<text text-anchor="middle" x="358" y="-332.3" font-family="Verdana" font-size="9.00" fill="#555555">+ DeletedBy</text>
<polyline fill="none" stroke="#555555" points="261,-325.5 455,-325.5 "/>
<text text-anchor="middle" x="358" y="-314.3" font-family="Verdana" font-size="9.00" fill="#555555">+ DangersCategoryId</text>
<polyline fill="none" stroke="#555555" points="261,-307.5 455,-307.5 "/>
<text text-anchor="middle" x="358" y="-296.3" font-family="Verdana" font-size="9.00" fill="#555555">+ MeasuresUnitId</text>
<polyline fill="none" stroke="#555555" points="261,-289.5 455,-289.5 "/>
<text text-anchor="middle" x="358" y="-278.3" font-family="Verdana" font-size="9.00" fill="#555555">RowVersion</text>
<polyline fill="none" stroke="#555555" points="261,-271.5 455,-271.5 "/>
<text text-anchor="middle" x="358" y="-260.3" font-family="Verdana" font-size="9.00" fill="#555555">IsActive</text>
<polyline fill="none" stroke="#555555" points="261,-253.5 455,-253.5 "/>
<text text-anchor="middle" x="358" y="-242.3" font-family="Verdana" font-size="9.00" fill="#555555">DamagesDescription</text>
<polyline fill="none" stroke="#555555" points="261,-235.5 455,-235.5 "/>
<text text-anchor="middle" x="358" y="-224.3" font-family="Verdana" font-size="9.00" fill="#555555">DamagesVolume</text>
<polyline fill="none" stroke="#555555" points="261,-217.5 455,-217.5 "/>
<text text-anchor="middle" x="358" y="-206.3" font-family="Verdana" font-size="9.00" fill="#555555">IsDefectListsDevelopmentRequired</text>
<polyline fill="none" stroke="#555555" points="261,-199.5 455,-199.5 "/>
<text text-anchor="middle" x="358" y="-188.3" font-family="Verdana" font-size="9.00" fill="#555555">IsSpecificationsDevelopmentRequired</text>
<polyline fill="none" stroke="#555555" points="261,-181.5 455,-181.5 "/>
<text text-anchor="middle" x="358" y="-170.3" font-family="Verdana" font-size="9.00" fill="#555555">RequiredBudget4CIW</text>
<polyline fill="none" stroke="#555555" points="261,-163.5 455,-163.5 "/>
<text text-anchor="middle" x="358" y="-152.3" font-family="Verdana" font-size="9.00" fill="#555555">RequiredBudget4Inventory</text>
<polyline fill="none" stroke="#555555" points="261,-145.5 455,-145.5 "/>
<text text-anchor="middle" x="358" y="-134.3" font-family="Verdana" font-size="9.00" fill="#555555">TotalRequiredBudget</text>
</g>
<!-- struct2&#45;&gt;struct1 -->
<g id="edge1" class="edge">
<title>struct2:c1022626686_1&#45;&gt;struct1:c1045578763_21</title>
<path fill="none" stroke="black" d="M243,-298.5C246.25,-298.5 248.51,-298.5 250.58,-298.5"/>
<polygon fill="black" stroke="black" points="251,-302 261,-298.5 251,-295 251,-302"/>
</g>
</g>
</svg>
