<?xml version="1.0" encoding="UTF-8" standalone="no"?>
<!DOCTYPE svg PUBLIC "-//W3C//DTD SVG 1.1//EN"
 "http://www.w3.org/Graphics/SVG/1.1/DTD/svg11.dtd">
<!-- Generated by graphviz version 5.0.0 (20220707.1540)
 -->
<!-- Title: g Pages: 1 -->
<svg width="348pt" height="352pt"
 viewBox="0.00 0.00 348.00 352.00" xmlns="http://www.w3.org/2000/svg" xmlns:xlink="http://www.w3.org/1999/xlink">
<g id="graph0" class="graph" transform="scale(1 1) rotate(0) translate(4 348)">
<title>g</title>
<polygon fill="white" stroke="transparent" points="-4,4 -4,-348 344,-348 344,4 -4,4"/>
<text text-anchor="middle" x="170" y="-7" font-family="Verdana" font-size="10.00">Table: DistributionTrackingTypes</text>
<!-- struct0 -->
<g id="node1" class="node">
<title>struct0</title>
<polygon fill="#f7f7f9" stroke="#555555" points="188,-19.5 188,-343.5 340,-343.5 340,-19.5 188,-19.5"/>
<text text-anchor="middle" x="264" y="-332.3" font-family="Verdana" font-size="9.00" fill="#555555">Table: DistributionShedules</text>
<polyline fill="none" stroke="#555555" points="188,-325.5 340,-325.5 "/>
<text text-anchor="middle" x="264" y="-314.3" font-family="Verdana" font-size="9.00" fill="#555555">Id +</text>
<polyline fill="none" stroke="#555555" points="188,-307.5 340,-307.5 "/>
<text text-anchor="middle" x="264" y="-296.3" font-family="Verdana" font-size="9.00" fill="#555555">+ EnterpriseId</text>
<polyline fill="none" stroke="#555555" points="188,-289.5 340,-289.5 "/>
<text text-anchor="middle" x="264" y="-278.3" font-family="Verdana" font-size="9.00" fill="#555555">+ DistributionTrackingTypeId</text>
<polyline fill="none" stroke="#555555" points="188,-271.5 340,-271.5 "/>
<text text-anchor="middle" x="264" y="-260.3" font-family="Verdana" font-size="9.00" fill="#555555">+ DistributionDaysTypeId</text>
<polyline fill="none" stroke="#555555" points="188,-253.5 340,-253.5 "/>
<text text-anchor="middle" x="264" y="-242.3" font-family="Verdana" font-size="9.00" fill="#555555">+ DistributionPeriodicityId</text>
<polyline fill="none" stroke="#555555" points="188,-235.5 340,-235.5 "/>
<text text-anchor="middle" x="264" y="-224.3" font-family="Verdana" font-size="9.00" fill="#555555">DaysNumber</text>
<polyline fill="none" stroke="#555555" points="188,-217.5 340,-217.5 "/>
<text text-anchor="middle" x="264" y="-206.3" font-family="Verdana" font-size="9.00" fill="#555555">Name</text>
<polyline fill="none" stroke="#555555" points="188,-199.5 340,-199.5 "/>
<text text-anchor="middle" x="264" y="-188.3" font-family="Verdana" font-size="9.00" fill="#555555">StartDate</text>
<polyline fill="none" stroke="#555555" points="188,-181.5 340,-181.5 "/>
<text text-anchor="middle" x="264" y="-170.3" font-family="Verdana" font-size="9.00" fill="#555555">Remainder</text>
<polyline fill="none" stroke="#555555" points="188,-163.5 340,-163.5 "/>
<text text-anchor="middle" x="264" y="-152.3" font-family="Verdana" font-size="9.00" fill="#555555">Created</text>
<polyline fill="none" stroke="#555555" points="188,-145.5 340,-145.5 "/>
<text text-anchor="middle" x="264" y="-134.3" font-family="Verdana" font-size="9.00" fill="#555555">+ CreatedBy</text>
<polyline fill="none" stroke="#555555" points="188,-127.5 340,-127.5 "/>
<text text-anchor="middle" x="264" y="-116.3" font-family="Verdana" font-size="9.00" fill="#555555">Modified</text>
<polyline fill="none" stroke="#555555" points="188,-109.5 340,-109.5 "/>
<text text-anchor="middle" x="264" y="-98.3" font-family="Verdana" font-size="9.00" fill="#555555">+ ModifiedBy</text>
<polyline fill="none" stroke="#555555" points="188,-91.5 340,-91.5 "/>
<text text-anchor="middle" x="264" y="-80.3" font-family="Verdana" font-size="9.00" fill="#555555">Deleted</text>
<polyline fill="none" stroke="#555555" points="188,-73.5 340,-73.5 "/>
<text text-anchor="middle" x="264" y="-62.3" font-family="Verdana" font-size="9.00" fill="#555555">+ DeletedBy</text>
<polyline fill="none" stroke="#555555" points="188,-55.5 340,-55.5 "/>
<text text-anchor="middle" x="264" y="-44.3" font-family="Verdana" font-size="9.00" fill="#555555">RowVersion</text>
<polyline fill="none" stroke="#555555" points="188,-37.5 340,-37.5 "/>
<text text-anchor="middle" x="264" y="-26.3" font-family="Verdana" font-size="9.00" fill="#555555">IsActive</text>
</g>
<!-- struct1 -->
<g id="node2" class="node">
<title>struct1</title>
<polygon fill="#f7f7f9" stroke="#555555" points="0,-253.5 0,-307.5 170,-307.5 170,-253.5 0,-253.5"/>
<text text-anchor="middle" x="85" y="-296.3" font-family="Verdana" font-size="9.00" fill="#555555">Table: DistributionTrackingTypes</text>
<polyline fill="none" stroke="#555555" points="0,-289.5 170,-289.5 "/>
<text text-anchor="middle" x="85" y="-278.3" font-family="Verdana" font-size="9.00" fill="#555555">Id +</text>
<polyline fill="none" stroke="#555555" points="0,-271.5 170,-271.5 "/>
<text text-anchor="middle" x="85" y="-260.3" font-family="Verdana" font-size="9.00" fill="#555555">Name</text>
</g>
<!-- struct1&#45;&gt;struct0 -->
<g id="edge1" class="edge">
<title>struct1:c18099105_1&#45;&gt;struct0:c1186103266_3</title>
<path fill="none" stroke="black" d="M170,-280.5C173.25,-280.5 175.51,-280.5 177.58,-280.5"/>
<polygon fill="black" stroke="black" points="178,-284 188,-280.5 178,-277 178,-284"/>
</g>
</g>
</svg>
