<?xml version="1.0" encoding="UTF-8" standalone="no"?>
<!DOCTYPE svg PUBLIC "-//W3C//DTD SVG 1.1//EN"
 "http://www.w3.org/Graphics/SVG/1.1/DTD/svg11.dtd">
<!-- Generated by graphviz version 5.0.0 (20220707.1540)
 -->
<!-- Title: g Pages: 1 -->
<svg width="357pt" height="532pt"
 viewBox="0.00 0.00 357.00 532.00" xmlns="http://www.w3.org/2000/svg" xmlns:xlink="http://www.w3.org/1999/xlink">
<g id="graph0" class="graph" transform="scale(1 1) rotate(0) translate(4 528)">
<title>g</title>
<polygon fill="white" stroke="transparent" points="-4,4 -4,-528 353,-528 353,4 -4,4"/>
<text text-anchor="middle" x="174.5" y="-7" font-family="Verdana" font-size="10.00">Table: ExecutionStatuses</text>
<!-- struct0 -->
<g id="node1" class="node">
<title>struct0</title>
<polygon fill="#f7f7f9" stroke="#555555" points="155,-19.5 155,-523.5 349,-523.5 349,-19.5 155,-19.5"/>
<text text-anchor="middle" x="252" y="-512.3" font-family="Verdana" font-size="9.00" fill="#555555">Table: ExaminationsActivities</text>
<polyline fill="none" stroke="#555555" points="155,-505.5 349,-505.5 "/>
<text text-anchor="middle" x="252" y="-494.3" font-family="Verdana" font-size="9.00" fill="#555555">Id +</text>
<polyline fill="none" stroke="#555555" points="155,-487.5 349,-487.5 "/>
<text text-anchor="middle" x="252" y="-476.3" font-family="Verdana" font-size="9.00" fill="#555555">+ ExaminationId</text>
<polyline fill="none" stroke="#555555" points="155,-469.5 349,-469.5 "/>
<text text-anchor="middle" x="252" y="-458.3" font-family="Verdana" font-size="9.00" fill="#555555">SeqNumber</text>
<polyline fill="none" stroke="#555555" points="155,-451.5 349,-451.5 "/>
<text text-anchor="middle" x="252" y="-440.3" font-family="Verdana" font-size="9.00" fill="#555555">Description</text>
<polyline fill="none" stroke="#555555" points="155,-433.5 349,-433.5 "/>
<text text-anchor="middle" x="252" y="-422.3" font-family="Verdana" font-size="9.00" fill="#555555">+ ExecutorId</text>
<polyline fill="none" stroke="#555555" points="155,-415.5 349,-415.5 "/>
<text text-anchor="middle" x="252" y="-404.3" font-family="Verdana" font-size="9.00" fill="#555555">PlanDate</text>
<polyline fill="none" stroke="#555555" points="155,-397.5 349,-397.5 "/>
<text text-anchor="middle" x="252" y="-386.3" font-family="Verdana" font-size="9.00" fill="#555555">FactDate</text>
<polyline fill="none" stroke="#555555" points="155,-379.5 349,-379.5 "/>
<text text-anchor="middle" x="252" y="-368.3" font-family="Verdana" font-size="9.00" fill="#555555">+ ExecutionStatusId</text>
<polyline fill="none" stroke="#555555" points="155,-361.5 349,-361.5 "/>
<text text-anchor="middle" x="252" y="-350.3" font-family="Verdana" font-size="9.00" fill="#555555">IsIncludedInBudget</text>
<polyline fill="none" stroke="#555555" points="155,-343.5 349,-343.5 "/>
<text text-anchor="middle" x="252" y="-332.3" font-family="Verdana" font-size="9.00" fill="#555555">CheckingStatus</text>
<polyline fill="none" stroke="#555555" points="155,-325.5 349,-325.5 "/>
<text text-anchor="middle" x="252" y="-314.3" font-family="Verdana" font-size="9.00" fill="#555555">Created</text>
<polyline fill="none" stroke="#555555" points="155,-307.5 349,-307.5 "/>
<text text-anchor="middle" x="252" y="-296.3" font-family="Verdana" font-size="9.00" fill="#555555">+ CreatedBy</text>
<polyline fill="none" stroke="#555555" points="155,-289.5 349,-289.5 "/>
<text text-anchor="middle" x="252" y="-278.3" font-family="Verdana" font-size="9.00" fill="#555555">Modified</text>
<polyline fill="none" stroke="#555555" points="155,-271.5 349,-271.5 "/>
<text text-anchor="middle" x="252" y="-260.3" font-family="Verdana" font-size="9.00" fill="#555555">+ ModifiedBy</text>
<polyline fill="none" stroke="#555555" points="155,-253.5 349,-253.5 "/>
<text text-anchor="middle" x="252" y="-242.3" font-family="Verdana" font-size="9.00" fill="#555555">Deleted</text>
<polyline fill="none" stroke="#555555" points="155,-235.5 349,-235.5 "/>
<text text-anchor="middle" x="252" y="-224.3" font-family="Verdana" font-size="9.00" fill="#555555">+ DeletedBy</text>
<polyline fill="none" stroke="#555555" points="155,-217.5 349,-217.5 "/>
<text text-anchor="middle" x="252" y="-206.3" font-family="Verdana" font-size="9.00" fill="#555555">+ DangersCategoryId</text>
<polyline fill="none" stroke="#555555" points="155,-199.5 349,-199.5 "/>
<text text-anchor="middle" x="252" y="-188.3" font-family="Verdana" font-size="9.00" fill="#555555">+ MeasuresUnitId</text>
<polyline fill="none" stroke="#555555" points="155,-181.5 349,-181.5 "/>
<text text-anchor="middle" x="252" y="-170.3" font-family="Verdana" font-size="9.00" fill="#555555">RowVersion</text>
<polyline fill="none" stroke="#555555" points="155,-163.5 349,-163.5 "/>
<text text-anchor="middle" x="252" y="-152.3" font-family="Verdana" font-size="9.00" fill="#555555">IsActive</text>
<polyline fill="none" stroke="#555555" points="155,-145.5 349,-145.5 "/>
<text text-anchor="middle" x="252" y="-134.3" font-family="Verdana" font-size="9.00" fill="#555555">DamagesDescription</text>
<polyline fill="none" stroke="#555555" points="155,-127.5 349,-127.5 "/>
<text text-anchor="middle" x="252" y="-116.3" font-family="Verdana" font-size="9.00" fill="#555555">DamagesVolume</text>
<polyline fill="none" stroke="#555555" points="155,-109.5 349,-109.5 "/>
<text text-anchor="middle" x="252" y="-98.3" font-family="Verdana" font-size="9.00" fill="#555555">IsDefectListsDevelopmentRequired</text>
<polyline fill="none" stroke="#555555" points="155,-91.5 349,-91.5 "/>
<text text-anchor="middle" x="252" y="-80.3" font-family="Verdana" font-size="9.00" fill="#555555">IsSpecificationsDevelopmentRequired</text>
<polyline fill="none" stroke="#555555" points="155,-73.5 349,-73.5 "/>
<text text-anchor="middle" x="252" y="-62.3" font-family="Verdana" font-size="9.00" fill="#555555">RequiredBudget4CIW</text>
<polyline fill="none" stroke="#555555" points="155,-55.5 349,-55.5 "/>
<text text-anchor="middle" x="252" y="-44.3" font-family="Verdana" font-size="9.00" fill="#555555">RequiredBudget4Inventory</text>
<polyline fill="none" stroke="#555555" points="155,-37.5 349,-37.5 "/>
<text text-anchor="middle" x="252" y="-26.3" font-family="Verdana" font-size="9.00" fill="#555555">TotalRequiredBudget</text>
</g>
<!-- struct1 -->
<g id="node2" class="node">
<title>struct1</title>
<polygon fill="#f7f7f9" stroke="#555555" points="0,-325.5 0,-397.5 137,-397.5 137,-325.5 0,-325.5"/>
<text text-anchor="middle" x="68.5" y="-386.3" font-family="Verdana" font-size="9.00" fill="#555555">Table: ExecutionStatuses</text>
<polyline fill="none" stroke="#555555" points="0,-379.5 137,-379.5 "/>
<text text-anchor="middle" x="68.5" y="-368.3" font-family="Verdana" font-size="9.00" fill="#555555">Id +</text>
<polyline fill="none" stroke="#555555" points="0,-361.5 137,-361.5 "/>
<text text-anchor="middle" x="68.5" y="-350.3" font-family="Verdana" font-size="9.00" fill="#555555">Name</text>
<polyline fill="none" stroke="#555555" points="0,-343.5 137,-343.5 "/>
<text text-anchor="middle" x="68.5" y="-332.3" font-family="Verdana" font-size="9.00" fill="#555555">CSSClass</text>
</g>
<!-- struct1&#45;&gt;struct0 -->
<g id="edge1" class="edge">
<title>struct1:c901578250_1&#45;&gt;struct0:c1045578763_8</title>
<path fill="none" stroke="black" d="M137,-370.5C140.25,-370.5 142.51,-370.5 144.58,-370.5"/>
<polygon fill="black" stroke="black" points="145,-374 155,-370.5 145,-367 145,-374"/>
</g>
</g>
</svg>
