<?xml version="1.0" encoding="UTF-8" standalone="no"?>
<!DOCTYPE svg PUBLIC "-//W3C//DTD SVG 1.1//EN"
 "http://www.w3.org/Graphics/SVG/1.1/DTD/svg11.dtd">
<!-- Generated by graphviz version 5.0.0 (20220707.1540)
 -->
<!-- Title: g Pages: 1 -->
<svg width="458pt" height="912pt"
 viewBox="0.00 0.00 458.00 912.00" xmlns="http://www.w3.org/2000/svg" xmlns:xlink="http://www.w3.org/1999/xlink">
<g id="graph0" class="graph" transform="scale(1 1) rotate(0) translate(4 908)">
<title>g</title>
<polygon fill="white" stroke="transparent" points="-4,4 -4,-908 454,-908 454,4 -4,4"/>
<text text-anchor="middle" x="225" y="-7" font-family="Verdana" font-size="10.00">Table: Enterprises</text>
<!-- struct0 -->
<g id="node1" class="node">
<title>struct0</title>
<polygon fill="#f7f7f9" stroke="#555555" points="277,-579.5 277,-903.5 429,-903.5 429,-579.5 277,-579.5"/>
<text text-anchor="middle" x="353" y="-892.3" font-family="Verdana" font-size="9.00" fill="#555555">Table: DistributionShedules</text>
<polyline fill="none" stroke="#555555" points="277,-885.5 429,-885.5 "/>
<text text-anchor="middle" x="353" y="-874.3" font-family="Verdana" font-size="9.00" fill="#555555">Id +</text>
<polyline fill="none" stroke="#555555" points="277,-867.5 429,-867.5 "/>
<text text-anchor="middle" x="353" y="-856.3" font-family="Verdana" font-size="9.00" fill="#555555">+ EnterpriseId</text>
<polyline fill="none" stroke="#555555" points="277,-849.5 429,-849.5 "/>
<text text-anchor="middle" x="353" y="-838.3" font-family="Verdana" font-size="9.00" fill="#555555">+ DistributionTrackingTypeId</text>
<polyline fill="none" stroke="#555555" points="277,-831.5 429,-831.5 "/>
<text text-anchor="middle" x="353" y="-820.3" font-family="Verdana" font-size="9.00" fill="#555555">+ DistributionDaysTypeId</text>
<polyline fill="none" stroke="#555555" points="277,-813.5 429,-813.5 "/>
<text text-anchor="middle" x="353" y="-802.3" font-family="Verdana" font-size="9.00" fill="#555555">+ DistributionPeriodicityId</text>
<polyline fill="none" stroke="#555555" points="277,-795.5 429,-795.5 "/>
<text text-anchor="middle" x="353" y="-784.3" font-family="Verdana" font-size="9.00" fill="#555555">DaysNumber</text>
<polyline fill="none" stroke="#555555" points="277,-777.5 429,-777.5 "/>
<text text-anchor="middle" x="353" y="-766.3" font-family="Verdana" font-size="9.00" fill="#555555">Name</text>
<polyline fill="none" stroke="#555555" points="277,-759.5 429,-759.5 "/>
<text text-anchor="middle" x="353" y="-748.3" font-family="Verdana" font-size="9.00" fill="#555555">StartDate</text>
<polyline fill="none" stroke="#555555" points="277,-741.5 429,-741.5 "/>
<text text-anchor="middle" x="353" y="-730.3" font-family="Verdana" font-size="9.00" fill="#555555">Remainder</text>
<polyline fill="none" stroke="#555555" points="277,-723.5 429,-723.5 "/>
<text text-anchor="middle" x="353" y="-712.3" font-family="Verdana" font-size="9.00" fill="#555555">Created</text>
<polyline fill="none" stroke="#555555" points="277,-705.5 429,-705.5 "/>
<text text-anchor="middle" x="353" y="-694.3" font-family="Verdana" font-size="9.00" fill="#555555">+ CreatedBy</text>
<polyline fill="none" stroke="#555555" points="277,-687.5 429,-687.5 "/>
<text text-anchor="middle" x="353" y="-676.3" font-family="Verdana" font-size="9.00" fill="#555555">Modified</text>
<polyline fill="none" stroke="#555555" points="277,-669.5 429,-669.5 "/>
<text text-anchor="middle" x="353" y="-658.3" font-family="Verdana" font-size="9.00" fill="#555555">+ ModifiedBy</text>
<polyline fill="none" stroke="#555555" points="277,-651.5 429,-651.5 "/>
<text text-anchor="middle" x="353" y="-640.3" font-family="Verdana" font-size="9.00" fill="#555555">Deleted</text>
<polyline fill="none" stroke="#555555" points="277,-633.5 429,-633.5 "/>
<text text-anchor="middle" x="353" y="-622.3" font-family="Verdana" font-size="9.00" fill="#555555">+ DeletedBy</text>
<polyline fill="none" stroke="#555555" points="277,-615.5 429,-615.5 "/>
<text text-anchor="middle" x="353" y="-604.3" font-family="Verdana" font-size="9.00" fill="#555555">RowVersion</text>
<polyline fill="none" stroke="#555555" points="277,-597.5 429,-597.5 "/>
<text text-anchor="middle" x="353" y="-586.3" font-family="Verdana" font-size="9.00" fill="#555555">IsActive</text>
</g>
<!-- struct1 -->
<g id="node2" class="node">
<title>struct1</title>
<polygon fill="#f7f7f9" stroke="#555555" points="256,-272.5 256,-560.5 450,-560.5 450,-272.5 256,-272.5"/>
<text text-anchor="middle" x="353" y="-549.3" font-family="Verdana" font-size="9.00" fill="#555555">Table: DistributionShedulesRecipients</text>
<polyline fill="none" stroke="#555555" points="256,-542.5 450,-542.5 "/>
<text text-anchor="middle" x="353" y="-531.3" font-family="Verdana" font-size="9.00" fill="#555555">Id</text>
<polyline fill="none" stroke="#555555" points="256,-524.5 450,-524.5 "/>
<text text-anchor="middle" x="353" y="-513.3" font-family="Verdana" font-size="9.00" fill="#555555">+ DistributionSheduleId</text>
<polyline fill="none" stroke="#555555" points="256,-506.5 450,-506.5 "/>
<text text-anchor="middle" x="353" y="-495.3" font-family="Verdana" font-size="9.00" fill="#555555">+ AuditedEnterpiseId</text>
<polyline fill="none" stroke="#555555" points="256,-488.5 450,-488.5 "/>
<text text-anchor="middle" x="353" y="-477.3" font-family="Verdana" font-size="9.00" fill="#555555">+ AuditedSegmentId</text>
<polyline fill="none" stroke="#555555" points="256,-470.5 450,-470.5 "/>
<text text-anchor="middle" x="353" y="-459.3" font-family="Verdana" font-size="9.00" fill="#555555">+ AuditedDepartmentId</text>
<polyline fill="none" stroke="#555555" points="256,-452.5 450,-452.5 "/>
<text text-anchor="middle" x="353" y="-441.3" font-family="Verdana" font-size="9.00" fill="#555555">AuditedOrganizationUnitName</text>
<polyline fill="none" stroke="#555555" points="256,-434.5 450,-434.5 "/>
<text text-anchor="middle" x="353" y="-423.3" font-family="Verdana" font-size="9.00" fill="#555555">+ EmployeesWorkPlaceId</text>
<polyline fill="none" stroke="#555555" points="256,-416.5 450,-416.5 "/>
<text text-anchor="middle" x="353" y="-405.3" font-family="Verdana" font-size="9.00" fill="#555555">Created</text>
<polyline fill="none" stroke="#555555" points="256,-398.5 450,-398.5 "/>
<text text-anchor="middle" x="353" y="-387.3" font-family="Verdana" font-size="9.00" fill="#555555">+ CreatedBy</text>
<polyline fill="none" stroke="#555555" points="256,-380.5 450,-380.5 "/>
<text text-anchor="middle" x="353" y="-369.3" font-family="Verdana" font-size="9.00" fill="#555555">Modified</text>
<polyline fill="none" stroke="#555555" points="256,-362.5 450,-362.5 "/>
<text text-anchor="middle" x="353" y="-351.3" font-family="Verdana" font-size="9.00" fill="#555555">+ ModifiedBy</text>
<polyline fill="none" stroke="#555555" points="256,-344.5 450,-344.5 "/>
<text text-anchor="middle" x="353" y="-333.3" font-family="Verdana" font-size="9.00" fill="#555555">Deleted</text>
<polyline fill="none" stroke="#555555" points="256,-326.5 450,-326.5 "/>
<text text-anchor="middle" x="353" y="-315.3" font-family="Verdana" font-size="9.00" fill="#555555">+ DeletedBy</text>
<polyline fill="none" stroke="#555555" points="256,-308.5 450,-308.5 "/>
<text text-anchor="middle" x="353" y="-297.3" font-family="Verdana" font-size="9.00" fill="#555555">RowVersion</text>
<polyline fill="none" stroke="#555555" points="256,-290.5 450,-290.5 "/>
<text text-anchor="middle" x="353" y="-279.3" font-family="Verdana" font-size="9.00" fill="#555555">IsActive</text>
</g>
<!-- struct2 -->
<g id="node3" class="node">
<title>struct2</title>
<polygon fill="#f7f7f9" stroke="#555555" points="0,-200.5 0,-398.5 106,-398.5 106,-200.5 0,-200.5"/>
<text text-anchor="middle" x="53" y="-387.3" font-family="Verdana" font-size="9.00" fill="#555555">Table: Employees</text>
<polyline fill="none" stroke="#555555" points="0,-380.5 106,-380.5 "/>
<text text-anchor="middle" x="53" y="-369.3" font-family="Verdana" font-size="9.00" fill="#555555">Id +</text>
<polyline fill="none" stroke="#555555" points="0,-362.5 106,-362.5 "/>
<text text-anchor="middle" x="53" y="-351.3" font-family="Verdana" font-size="9.00" fill="#555555">ExternalEmploeeId</text>
<polyline fill="none" stroke="#555555" points="0,-344.5 106,-344.5 "/>
<text text-anchor="middle" x="53" y="-333.3" font-family="Verdana" font-size="9.00" fill="#555555">Surname</text>
<polyline fill="none" stroke="#555555" points="0,-326.5 106,-326.5 "/>
<text text-anchor="middle" x="53" y="-315.3" font-family="Verdana" font-size="9.00" fill="#555555">Name</text>
<polyline fill="none" stroke="#555555" points="0,-308.5 106,-308.5 "/>
<text text-anchor="middle" x="53" y="-297.3" font-family="Verdana" font-size="9.00" fill="#555555">MiddleName</text>
<polyline fill="none" stroke="#555555" points="0,-290.5 106,-290.5 "/>
<text text-anchor="middle" x="53" y="-279.3" font-family="Verdana" font-size="9.00" fill="#555555">Email</text>
<polyline fill="none" stroke="#555555" points="0,-272.5 106,-272.5 "/>
<text text-anchor="middle" x="53" y="-261.3" font-family="Verdana" font-size="9.00" fill="#555555">DomainLogin</text>
<polyline fill="none" stroke="#555555" points="0,-254.5 106,-254.5 "/>
<text text-anchor="middle" x="53" y="-243.3" font-family="Verdana" font-size="9.00" fill="#555555">FIO</text>
<polyline fill="none" stroke="#555555" points="0,-236.5 106,-236.5 "/>
<text text-anchor="middle" x="53" y="-225.3" font-family="Verdana" font-size="9.00" fill="#555555">FullName</text>
<polyline fill="none" stroke="#555555" points="0,-218.5 106,-218.5 "/>
<text text-anchor="middle" x="53" y="-207.3" font-family="Verdana" font-size="9.00" fill="#555555">Created</text>
</g>
<!-- struct3 -->
<g id="node4" class="node">
<title>struct3</title>
<polygon fill="#f7f7f9" stroke="#555555" points="124,-290.5 124,-524.5 238,-524.5 238,-290.5 124,-290.5"/>
<text text-anchor="middle" x="181" y="-513.3" font-family="Verdana" font-size="9.00" fill="#555555">Table: Enterprises</text>
<polyline fill="none" stroke="#555555" points="124,-506.5 238,-506.5 "/>
<text text-anchor="middle" x="181" y="-495.3" font-family="Verdana" font-size="9.00" fill="#555555">Id +</text>
<polyline fill="none" stroke="#555555" points="124,-488.5 238,-488.5 "/>
<text text-anchor="middle" x="181" y="-477.3" font-family="Verdana" font-size="9.00" fill="#555555">Code</text>
<polyline fill="none" stroke="#555555" points="124,-470.5 238,-470.5 "/>
<text text-anchor="middle" x="181" y="-459.3" font-family="Verdana" font-size="9.00" fill="#555555">Name</text>
<polyline fill="none" stroke="#555555" points="124,-452.5 238,-452.5 "/>
<text text-anchor="middle" x="181" y="-441.3" font-family="Verdana" font-size="9.00" fill="#555555">ExternalEnterpriseId</text>
<polyline fill="none" stroke="#555555" points="124,-434.5 238,-434.5 "/>
<text text-anchor="middle" x="181" y="-423.3" font-family="Verdana" font-size="9.00" fill="#555555">Created</text>
<polyline fill="none" stroke="#555555" points="124,-416.5 238,-416.5 "/>
<text text-anchor="middle" x="181" y="-405.3" font-family="Verdana" font-size="9.00" fill="#555555">+ CreatedBy</text>
<polyline fill="none" stroke="#555555" points="124,-398.5 238,-398.5 "/>
<text text-anchor="middle" x="181" y="-387.3" font-family="Verdana" font-size="9.00" fill="#555555">Modified</text>
<polyline fill="none" stroke="#555555" points="124,-380.5 238,-380.5 "/>
<text text-anchor="middle" x="181" y="-369.3" font-family="Verdana" font-size="9.00" fill="#555555">+ ModifiedBy</text>
<polyline fill="none" stroke="#555555" points="124,-362.5 238,-362.5 "/>
<text text-anchor="middle" x="181" y="-351.3" font-family="Verdana" font-size="9.00" fill="#555555">Deleted</text>
<polyline fill="none" stroke="#555555" points="124,-344.5 238,-344.5 "/>
<text text-anchor="middle" x="181" y="-333.3" font-family="Verdana" font-size="9.00" fill="#555555">+ DeletedBy</text>
<polyline fill="none" stroke="#555555" points="124,-326.5 238,-326.5 "/>
<text text-anchor="middle" x="181" y="-315.3" font-family="Verdana" font-size="9.00" fill="#555555">RowVersion</text>
<polyline fill="none" stroke="#555555" points="124,-308.5 238,-308.5 "/>
<text text-anchor="middle" x="181" y="-297.3" font-family="Verdana" font-size="9.00" fill="#555555">IsActive</text>
</g>
<!-- struct2&#45;&gt;struct3 -->
<g id="edge4" class="edge">
<title>struct2:c789577851_1&#45;&gt;struct3:c741577680_6</title>
<path fill="none" stroke="#337ab7" d="M106,-371.5C119.14,-371.5 113.04,-390.92 115.96,-401.23"/>
<polygon fill="#337ab7" stroke="#337ab7" points="113.96,-404.11 124,-407.5 118.27,-398.59 113.96,-404.11"/>
</g>
<!-- struct2&#45;&gt;struct3 -->
<g id="edge5" class="edge">
<title>struct2:c789577851_1&#45;&gt;struct3:c741577680_8</title>
<path fill="none" stroke="#337ab7" d="M106,-371.5C109.25,-371.5 111.51,-371.5 113.58,-371.5"/>
<polygon fill="#337ab7" stroke="#337ab7" points="114,-375 124,-371.5 114,-368 114,-375"/>
</g>
<!-- struct2&#45;&gt;struct3 -->
<g id="edge6" class="edge">
<title>struct2:c789577851_1&#45;&gt;struct3:c741577680_10</title>
<path fill="none" stroke="#337ab7" d="M106,-371.5C119.14,-371.5 113.04,-352.08 115.96,-341.77"/>
<polygon fill="#337ab7" stroke="#337ab7" points="118.27,-344.41 124,-335.5 113.96,-338.89 118.27,-344.41"/>
</g>
<!-- struct3&#45;&gt;struct0 -->
<g id="edge1" class="edge">
<title>struct3:c741577680_1&#45;&gt;struct0:c1186103266_2</title>
<path fill="none" stroke="black" d="M238,-497.5C256.28,-497.5 256.07,-793.99 270.88,-849.58"/>
<polygon fill="black" stroke="black" points="267.99,-851.57 276,-858.5 274.06,-848.08 267.99,-851.57"/>
</g>
<!-- struct3&#45;&gt;struct1 -->
<g id="edge2" class="edge">
<title>struct3:c741577680_1&#45;&gt;struct1:c1522104463_3</title>
<path fill="none" stroke="black" d="M238,-497.5C241.25,-497.5 243.51,-497.5 245.58,-497.5"/>
<polygon fill="black" stroke="black" points="246,-501 256,-497.5 246,-494 246,-501"/>
</g>
<!-- struct4 -->
<g id="node5" class="node">
<title>struct4</title>
<polygon fill="#f7f7f9" stroke="#555555" points="305,-19.5 305,-253.5 401,-253.5 401,-19.5 305,-19.5"/>
<text text-anchor="middle" x="353" y="-242.3" font-family="Verdana" font-size="9.00" fill="#555555">Table: Segments</text>
<polyline fill="none" stroke="#555555" points="305,-235.5 401,-235.5 "/>
<text text-anchor="middle" x="353" y="-224.3" font-family="Verdana" font-size="9.00" fill="#555555">Id +</text>
<polyline fill="none" stroke="#555555" points="305,-217.5 401,-217.5 "/>
<text text-anchor="middle" x="353" y="-206.3" font-family="Verdana" font-size="9.00" fill="#555555">+ EnterpriseId</text>
<polyline fill="none" stroke="#555555" points="305,-199.5 401,-199.5 "/>
<text text-anchor="middle" x="353" y="-188.3" font-family="Verdana" font-size="9.00" fill="#555555">Code</text>
<polyline fill="none" stroke="#555555" points="305,-181.5 401,-181.5 "/>
<text text-anchor="middle" x="353" y="-170.3" font-family="Verdana" font-size="9.00" fill="#555555">Name</text>
<polyline fill="none" stroke="#555555" points="305,-163.5 401,-163.5 "/>
<text text-anchor="middle" x="353" y="-152.3" font-family="Verdana" font-size="9.00" fill="#555555">Created</text>
<polyline fill="none" stroke="#555555" points="305,-145.5 401,-145.5 "/>
<text text-anchor="middle" x="353" y="-134.3" font-family="Verdana" font-size="9.00" fill="#555555">+ CreatedBy</text>
<polyline fill="none" stroke="#555555" points="305,-127.5 401,-127.5 "/>
<text text-anchor="middle" x="353" y="-116.3" font-family="Verdana" font-size="9.00" fill="#555555">Modified</text>
<polyline fill="none" stroke="#555555" points="305,-109.5 401,-109.5 "/>
<text text-anchor="middle" x="353" y="-98.3" font-family="Verdana" font-size="9.00" fill="#555555">+ ModifiedBy</text>
<polyline fill="none" stroke="#555555" points="305,-91.5 401,-91.5 "/>
<text text-anchor="middle" x="353" y="-80.3" font-family="Verdana" font-size="9.00" fill="#555555">Deleted</text>
<polyline fill="none" stroke="#555555" points="305,-73.5 401,-73.5 "/>
<text text-anchor="middle" x="353" y="-62.3" font-family="Verdana" font-size="9.00" fill="#555555">+ DeletedBy</text>
<polyline fill="none" stroke="#555555" points="305,-55.5 401,-55.5 "/>
<text text-anchor="middle" x="353" y="-44.3" font-family="Verdana" font-size="9.00" fill="#555555">RowVersion</text>
<polyline fill="none" stroke="#555555" points="305,-37.5 401,-37.5 "/>
<text text-anchor="middle" x="353" y="-26.3" font-family="Verdana" font-size="9.00" fill="#555555">IsActive</text>
</g>
<!-- struct3&#45;&gt;struct4 -->
<g id="edge3" class="edge">
<title>struct3:c741577680_1&#45;&gt;struct4:c645577338_2</title>
<path fill="none" stroke="black" d="M238,-497.5C264.19,-497.5 245.76,-286.6 256,-262.5 267.08,-236.41 270.98,-214.3 293.84,-209.48"/>
<polygon fill="black" stroke="black" points="294.38,-212.94 304,-208.5 293.71,-205.97 294.38,-212.94"/>
</g>
</g>
</svg>
