<?xml version="1.0" encoding="UTF-8" standalone="no"?>
<!DOCTYPE svg PUBLIC "-//W3C//DTD SVG 1.1//EN"
 "http://www.w3.org/Graphics/SVG/1.1/DTD/svg11.dtd">
<!-- Generated by graphviz version 5.0.0 (20220707.1540)
 -->
<!-- Title: g Pages: 1 -->
<svg width="478pt" height="676pt"
 viewBox="0.00 0.00 478.00 676.00" xmlns="http://www.w3.org/2000/svg" xmlns:xlink="http://www.w3.org/1999/xlink">
<g id="graph0" class="graph" transform="scale(1 1) rotate(0) translate(4 672)">
<title>g</title>
<polygon fill="white" stroke="transparent" points="-4,4 -4,-672 474,-672 474,4 -4,4"/>
<text text-anchor="middle" x="235" y="-7" font-family="Verdana" font-size="10.00">Table: RequirementsCompliances</text>
<!-- struct0 -->
<g id="node1" class="node">
<title>struct0</title>
<polygon fill="#f7f7f9" stroke="#555555" points="0,-19.5 0,-217.5 106,-217.5 106,-19.5 0,-19.5"/>
<text text-anchor="middle" x="53" y="-206.3" font-family="Verdana" font-size="9.00" fill="#555555">Table: Employees</text>
<polyline fill="none" stroke="#555555" points="0,-199.5 106,-199.5 "/>
<text text-anchor="middle" x="53" y="-188.3" font-family="Verdana" font-size="9.00" fill="#555555">Id +</text>
<polyline fill="none" stroke="#555555" points="0,-181.5 106,-181.5 "/>
<text text-anchor="middle" x="53" y="-170.3" font-family="Verdana" font-size="9.00" fill="#555555">ExternalEmploeeId</text>
<polyline fill="none" stroke="#555555" points="0,-163.5 106,-163.5 "/>
<text text-anchor="middle" x="53" y="-152.3" font-family="Verdana" font-size="9.00" fill="#555555">Surname</text>
<polyline fill="none" stroke="#555555" points="0,-145.5 106,-145.5 "/>
<text text-anchor="middle" x="53" y="-134.3" font-family="Verdana" font-size="9.00" fill="#555555">Name</text>
<polyline fill="none" stroke="#555555" points="0,-127.5 106,-127.5 "/>
<text text-anchor="middle" x="53" y="-116.3" font-family="Verdana" font-size="9.00" fill="#555555">MiddleName</text>
<polyline fill="none" stroke="#555555" points="0,-109.5 106,-109.5 "/>
<text text-anchor="middle" x="53" y="-98.3" font-family="Verdana" font-size="9.00" fill="#555555">Email</text>
<polyline fill="none" stroke="#555555" points="0,-91.5 106,-91.5 "/>
<text text-anchor="middle" x="53" y="-80.3" font-family="Verdana" font-size="9.00" fill="#555555">DomainLogin</text>
<polyline fill="none" stroke="#555555" points="0,-73.5 106,-73.5 "/>
<text text-anchor="middle" x="53" y="-62.3" font-family="Verdana" font-size="9.00" fill="#555555">FIO</text>
<polyline fill="none" stroke="#555555" points="0,-55.5 106,-55.5 "/>
<text text-anchor="middle" x="53" y="-44.3" font-family="Verdana" font-size="9.00" fill="#555555">FullName</text>
<polyline fill="none" stroke="#555555" points="0,-37.5 106,-37.5 "/>
<text text-anchor="middle" x="53" y="-26.3" font-family="Verdana" font-size="9.00" fill="#555555">Created</text>
</g>
<!-- struct2 -->
<g id="node3" class="node">
<title>struct2</title>
<polygon fill="#f7f7f9" stroke="#555555" points="124,-145.5 124,-325.5 297,-325.5 297,-145.5 124,-145.5"/>
<text text-anchor="middle" x="210.5" y="-314.3" font-family="Verdana" font-size="9.00" fill="#555555">Table: RequirementsCompliances</text>
<polyline fill="none" stroke="#555555" points="124,-307.5 297,-307.5 "/>
<text text-anchor="middle" x="210.5" y="-296.3" font-family="Verdana" font-size="9.00" fill="#555555">Id +</text>
<polyline fill="none" stroke="#555555" points="124,-289.5 297,-289.5 "/>
<text text-anchor="middle" x="210.5" y="-278.3" font-family="Verdana" font-size="9.00" fill="#555555">Name</text>
<polyline fill="none" stroke="#555555" points="124,-271.5 297,-271.5 "/>
<text text-anchor="middle" x="210.5" y="-260.3" font-family="Verdana" font-size="9.00" fill="#555555">IsActive</text>
<polyline fill="none" stroke="#555555" points="124,-253.5 297,-253.5 "/>
<text text-anchor="middle" x="210.5" y="-242.3" font-family="Verdana" font-size="9.00" fill="#555555">RowVersion</text>
<polyline fill="none" stroke="#555555" points="124,-235.5 297,-235.5 "/>
<text text-anchor="middle" x="210.5" y="-224.3" font-family="Verdana" font-size="9.00" fill="#555555">Created</text>
<polyline fill="none" stroke="#555555" points="124,-217.5 297,-217.5 "/>
<text text-anchor="middle" x="210.5" y="-206.3" font-family="Verdana" font-size="9.00" fill="#555555">+ CreatedBy</text>
<polyline fill="none" stroke="#555555" points="124,-199.5 297,-199.5 "/>
<text text-anchor="middle" x="210.5" y="-188.3" font-family="Verdana" font-size="9.00" fill="#555555">Modified</text>
<polyline fill="none" stroke="#555555" points="124,-181.5 297,-181.5 "/>
<text text-anchor="middle" x="210.5" y="-170.3" font-family="Verdana" font-size="9.00" fill="#555555">+ ModifiedBy</text>
<polyline fill="none" stroke="#555555" points="124,-163.5 297,-163.5 "/>
<text text-anchor="middle" x="210.5" y="-152.3" font-family="Verdana" font-size="9.00" fill="#555555">Grade</text>
</g>
<!-- struct0&#45;&gt;struct2 -->
<g id="edge2" class="edge">
<title>struct0:c789577851_1&#45;&gt;struct2:c1198627313_6</title>
<path fill="none" stroke="#337ab7" d="M106,-190.5C112.72,-190.5 113.82,-196.85 115.97,-202"/>
<polygon fill="#337ab7" stroke="#337ab7" points="114.02,-204.93 124,-208.5 118.43,-199.49 114.02,-204.93"/>
</g>
<!-- struct0&#45;&gt;struct2 -->
<g id="edge3" class="edge">
<title>struct0:c789577851_1&#45;&gt;struct2:c1198627313_8</title>
<path fill="none" stroke="#337ab7" d="M106,-190.5C112.72,-190.5 113.82,-184.15 115.97,-179"/>
<polygon fill="#337ab7" stroke="#337ab7" points="118.43,-181.51 124,-172.5 114.02,-176.07 118.43,-181.51"/>
</g>
<!-- struct1 -->
<g id="node2" class="node">
<title>struct1</title>
<polygon fill="#f7f7f9" stroke="#555555" points="315,-289.5 315,-667.5 470,-667.5 470,-289.5 315,-289.5"/>
<text text-anchor="middle" x="392.5" y="-656.3" font-family="Verdana" font-size="9.00" fill="#555555">Table: Examinations</text>
<polyline fill="none" stroke="#555555" points="315,-649.5 470,-649.5 "/>
<text text-anchor="middle" x="392.5" y="-638.3" font-family="Verdana" font-size="9.00" fill="#555555">Id +</text>
<polyline fill="none" stroke="#555555" points="315,-631.5 470,-631.5 "/>
<text text-anchor="middle" x="392.5" y="-620.3" font-family="Verdana" font-size="9.00" fill="#555555">+ ObjectsCardId</text>
<polyline fill="none" stroke="#555555" points="315,-613.5 470,-613.5 "/>
<text text-anchor="middle" x="392.5" y="-602.3" font-family="Verdana" font-size="9.00" fill="#555555">PlanDate</text>
<polyline fill="none" stroke="#555555" points="315,-595.5 470,-595.5 "/>
<text text-anchor="middle" x="392.5" y="-584.3" font-family="Verdana" font-size="9.00" fill="#555555">FactDate</text>
<polyline fill="none" stroke="#555555" points="315,-577.5 470,-577.5 "/>
<text text-anchor="middle" x="392.5" y="-566.3" font-family="Verdana" font-size="9.00" fill="#555555">ConclusionsNumber</text>
<polyline fill="none" stroke="#555555" points="315,-559.5 470,-559.5 "/>
<text text-anchor="middle" x="392.5" y="-548.3" font-family="Verdana" font-size="9.00" fill="#555555">NextPlanDate</text>
<polyline fill="none" stroke="#555555" points="315,-541.5 470,-541.5 "/>
<text text-anchor="middle" x="392.5" y="-530.3" font-family="Verdana" font-size="9.00" fill="#555555">Created</text>
<polyline fill="none" stroke="#555555" points="315,-523.5 470,-523.5 "/>
<text text-anchor="middle" x="392.5" y="-512.3" font-family="Verdana" font-size="9.00" fill="#555555">+ CreatedBy</text>
<polyline fill="none" stroke="#555555" points="315,-505.5 470,-505.5 "/>
<text text-anchor="middle" x="392.5" y="-494.3" font-family="Verdana" font-size="9.00" fill="#555555">Modified</text>
<polyline fill="none" stroke="#555555" points="315,-487.5 470,-487.5 "/>
<text text-anchor="middle" x="392.5" y="-476.3" font-family="Verdana" font-size="9.00" fill="#555555">+ ModifiedBy</text>
<polyline fill="none" stroke="#555555" points="315,-469.5 470,-469.5 "/>
<text text-anchor="middle" x="392.5" y="-458.3" font-family="Verdana" font-size="9.00" fill="#555555">Deleted</text>
<polyline fill="none" stroke="#555555" points="315,-451.5 470,-451.5 "/>
<text text-anchor="middle" x="392.5" y="-440.3" font-family="Verdana" font-size="9.00" fill="#555555">+ DeletedBy</text>
<polyline fill="none" stroke="#555555" points="315,-433.5 470,-433.5 "/>
<text text-anchor="middle" x="392.5" y="-422.3" font-family="Verdana" font-size="9.00" fill="#555555">RowVersion</text>
<polyline fill="none" stroke="#555555" points="315,-415.5 470,-415.5 "/>
<text text-anchor="middle" x="392.5" y="-404.3" font-family="Verdana" font-size="9.00" fill="#555555">IsActive</text>
<polyline fill="none" stroke="#555555" points="315,-397.5 470,-397.5 "/>
<text text-anchor="middle" x="392.5" y="-386.3" font-family="Verdana" font-size="9.00" fill="#555555">IsInOperatingState</text>
<polyline fill="none" stroke="#555555" points="315,-379.5 470,-379.5 "/>
<text text-anchor="middle" x="392.5" y="-368.3" font-family="Verdana" font-size="9.00" fill="#555555">IsOffline</text>
<polyline fill="none" stroke="#555555" points="315,-361.5 470,-361.5 "/>
<text text-anchor="middle" x="392.5" y="-350.3" font-family="Verdana" font-size="9.00" fill="#555555">IsOfflineSource</text>
<polyline fill="none" stroke="#555555" points="315,-343.5 470,-343.5 "/>
<text text-anchor="middle" x="392.5" y="-332.3" font-family="Verdana" font-size="9.00" fill="#555555">InterimDate</text>
<polyline fill="none" stroke="#555555" points="315,-325.5 470,-325.5 "/>
<text text-anchor="middle" x="392.5" y="-314.3" font-family="Verdana" font-size="9.00" fill="#555555">Name</text>
<polyline fill="none" stroke="#555555" points="315,-307.5 470,-307.5 "/>
<text text-anchor="middle" x="392.5" y="-296.3" font-family="Verdana" font-size="9.00" fill="#555555">+ RequirementsComplianceId</text>
</g>
<!-- struct2&#45;&gt;struct1 -->
<g id="edge1" class="edge">
<title>struct2:c1198627313_1&#45;&gt;struct1:c1077578877_33</title>
<path fill="none" stroke="black" d="M297,-298.5C300.25,-298.5 302.51,-298.5 304.58,-298.5"/>
<polygon fill="black" stroke="black" points="305,-302 315,-298.5 305,-295 305,-302"/>
</g>
</g>
</svg>
