<?xml version="1.0" encoding="UTF-8" standalone="no"?>
<!DOCTYPE svg PUBLIC "-//W3C//DTD SVG 1.1//EN"
 "http://www.w3.org/Graphics/SVG/1.1/DTD/svg11.dtd">
<!-- Generated by graphviz version 5.0.0 (20220707.1540)
 -->
<!-- Title: g Pages: 1 -->
<svg width="332pt" height="352pt"
 viewBox="0.00 0.00 332.00 352.00" xmlns="http://www.w3.org/2000/svg" xmlns:xlink="http://www.w3.org/1999/xlink">
<g id="graph0" class="graph" transform="scale(1 1) rotate(0) translate(4 348)">
<title>g</title>
<polygon fill="white" stroke="transparent" points="-4,4 -4,-348 328,-348 328,4 -4,4"/>
<text text-anchor="middle" x="162" y="-7" font-family="Verdana" font-size="10.00">Table: DistributionDaysTypes</text>
<!-- struct0 -->
<g id="node1" class="node">
<title>struct0</title>
<polygon fill="#f7f7f9" stroke="#555555" points="0,-235.5 0,-289.5 154,-289.5 154,-235.5 0,-235.5"/>
<text text-anchor="middle" x="77" y="-278.3" font-family="Verdana" font-size="9.00" fill="#555555">Table: DistributionDaysTypes</text>
<polyline fill="none" stroke="#555555" points="0,-271.5 154,-271.5 "/>
<text text-anchor="middle" x="77" y="-260.3" font-family="Verdana" font-size="9.00" fill="#555555">Id +</text>
<polyline fill="none" stroke="#555555" points="0,-253.5 154,-253.5 "/>
<text text-anchor="middle" x="77" y="-242.3" font-family="Verdana" font-size="9.00" fill="#555555">Name</text>
</g>
<!-- struct1 -->
<g id="node2" class="node">
<title>struct1</title>
<polygon fill="#f7f7f9" stroke="#555555" points="172,-19.5 172,-343.5 324,-343.5 324,-19.5 172,-19.5"/>
<text text-anchor="middle" x="248" y="-332.3" font-family="Verdana" font-size="9.00" fill="#555555">Table: DistributionShedules</text>
<polyline fill="none" stroke="#555555" points="172,-325.5 324,-325.5 "/>
<text text-anchor="middle" x="248" y="-314.3" font-family="Verdana" font-size="9.00" fill="#555555">Id +</text>
<polyline fill="none" stroke="#555555" points="172,-307.5 324,-307.5 "/>
<text text-anchor="middle" x="248" y="-296.3" font-family="Verdana" font-size="9.00" fill="#555555">+ EnterpriseId</text>
<polyline fill="none" stroke="#555555" points="172,-289.5 324,-289.5 "/>
<text text-anchor="middle" x="248" y="-278.3" font-family="Verdana" font-size="9.00" fill="#555555">+ DistributionTrackingTypeId</text>
<polyline fill="none" stroke="#555555" points="172,-271.5 324,-271.5 "/>
<text text-anchor="middle" x="248" y="-260.3" font-family="Verdana" font-size="9.00" fill="#555555">+ DistributionDaysTypeId</text>
<polyline fill="none" stroke="#555555" points="172,-253.5 324,-253.5 "/>
<text text-anchor="middle" x="248" y="-242.3" font-family="Verdana" font-size="9.00" fill="#555555">+ DistributionPeriodicityId</text>
<polyline fill="none" stroke="#555555" points="172,-235.5 324,-235.5 "/>
<text text-anchor="middle" x="248" y="-224.3" font-family="Verdana" font-size="9.00" fill="#555555">DaysNumber</text>
<polyline fill="none" stroke="#555555" points="172,-217.5 324,-217.5 "/>
<text text-anchor="middle" x="248" y="-206.3" font-family="Verdana" font-size="9.00" fill="#555555">Name</text>
<polyline fill="none" stroke="#555555" points="172,-199.5 324,-199.5 "/>
<text text-anchor="middle" x="248" y="-188.3" font-family="Verdana" font-size="9.00" fill="#555555">StartDate</text>
<polyline fill="none" stroke="#555555" points="172,-181.5 324,-181.5 "/>
<text text-anchor="middle" x="248" y="-170.3" font-family="Verdana" font-size="9.00" fill="#555555">Remainder</text>
<polyline fill="none" stroke="#555555" points="172,-163.5 324,-163.5 "/>
<text text-anchor="middle" x="248" y="-152.3" font-family="Verdana" font-size="9.00" fill="#555555">Created</text>
<polyline fill="none" stroke="#555555" points="172,-145.5 324,-145.5 "/>
<text text-anchor="middle" x="248" y="-134.3" font-family="Verdana" font-size="9.00" fill="#555555">+ CreatedBy</text>
<polyline fill="none" stroke="#555555" points="172,-127.5 324,-127.5 "/>
<text text-anchor="middle" x="248" y="-116.3" font-family="Verdana" font-size="9.00" fill="#555555">Modified</text>
<polyline fill="none" stroke="#555555" points="172,-109.5 324,-109.5 "/>
<text text-anchor="middle" x="248" y="-98.3" font-family="Verdana" font-size="9.00" fill="#555555">+ ModifiedBy</text>
<polyline fill="none" stroke="#555555" points="172,-91.5 324,-91.5 "/>
<text text-anchor="middle" x="248" y="-80.3" font-family="Verdana" font-size="9.00" fill="#555555">Deleted</text>
<polyline fill="none" stroke="#555555" points="172,-73.5 324,-73.5 "/>
<text text-anchor="middle" x="248" y="-62.3" font-family="Verdana" font-size="9.00" fill="#555555">+ DeletedBy</text>
<polyline fill="none" stroke="#555555" points="172,-55.5 324,-55.5 "/>
<text text-anchor="middle" x="248" y="-44.3" font-family="Verdana" font-size="9.00" fill="#555555">RowVersion</text>
<polyline fill="none" stroke="#555555" points="172,-37.5 324,-37.5 "/>
<text text-anchor="middle" x="248" y="-26.3" font-family="Verdana" font-size="9.00" fill="#555555">IsActive</text>
</g>
<!-- struct0&#45;&gt;struct1 -->
<g id="edge1" class="edge">
<title>struct0:c50099219_1&#45;&gt;struct1:c1186103266_4</title>
<path fill="none" stroke="black" d="M154,-262.5C157.25,-262.5 159.51,-262.5 161.58,-262.5"/>
<polygon fill="black" stroke="black" points="162,-266 172,-262.5 162,-259 162,-266"/>
</g>
</g>
</svg>
