<?xml version="1.0" encoding="UTF-8" standalone="no"?>
<!DOCTYPE svg PUBLIC "-//W3C//DTD SVG 1.1//EN"
 "http://www.w3.org/Graphics/SVG/1.1/DTD/svg11.dtd">
<!-- Generated by graphviz version 5.0.0 (20220707.1540)
 -->
<!-- Title: g Pages: 1 -->
<svg width="542pt" height="839pt"
 viewBox="0.00 0.00 542.00 839.00" xmlns="http://www.w3.org/2000/svg" xmlns:xlink="http://www.w3.org/1999/xlink">
<g id="graph0" class="graph" transform="scale(1 1) rotate(0) translate(4 835)">
<title>g</title>
<polygon fill="white" stroke="transparent" points="-4,4 -4,-835 538,-835 538,4 -4,4"/>
<text text-anchor="middle" x="267" y="-7" font-family="Verdana" font-size="10.00">Table: EmployeeWorkPlaces</text>
<!-- struct0 -->
<g id="node1" class="node">
<title>struct0</title>
<polygon fill="#f7f7f9" stroke="#555555" points="340,-542.5 340,-830.5 534,-830.5 534,-542.5 340,-542.5"/>
<text text-anchor="middle" x="437" y="-819.3" font-family="Verdana" font-size="9.00" fill="#555555">Table: DistributionShedulesRecipients</text>
<polyline fill="none" stroke="#555555" points="340,-812.5 534,-812.5 "/>
<text text-anchor="middle" x="437" y="-801.3" font-family="Verdana" font-size="9.00" fill="#555555">Id</text>
<polyline fill="none" stroke="#555555" points="340,-794.5 534,-794.5 "/>
<text text-anchor="middle" x="437" y="-783.3" font-family="Verdana" font-size="9.00" fill="#555555">+ DistributionSheduleId</text>
<polyline fill="none" stroke="#555555" points="340,-776.5 534,-776.5 "/>
<text text-anchor="middle" x="437" y="-765.3" font-family="Verdana" font-size="9.00" fill="#555555">+ AuditedEnterpiseId</text>
<polyline fill="none" stroke="#555555" points="340,-758.5 534,-758.5 "/>
<text text-anchor="middle" x="437" y="-747.3" font-family="Verdana" font-size="9.00" fill="#555555">+ AuditedSegmentId</text>
<polyline fill="none" stroke="#555555" points="340,-740.5 534,-740.5 "/>
<text text-anchor="middle" x="437" y="-729.3" font-family="Verdana" font-size="9.00" fill="#555555">+ AuditedDepartmentId</text>
<polyline fill="none" stroke="#555555" points="340,-722.5 534,-722.5 "/>
<text text-anchor="middle" x="437" y="-711.3" font-family="Verdana" font-size="9.00" fill="#555555">AuditedOrganizationUnitName</text>
<polyline fill="none" stroke="#555555" points="340,-704.5 534,-704.5 "/>
<text text-anchor="middle" x="437" y="-693.3" font-family="Verdana" font-size="9.00" fill="#555555">+ EmployeesWorkPlaceId</text>
<polyline fill="none" stroke="#555555" points="340,-686.5 534,-686.5 "/>
<text text-anchor="middle" x="437" y="-675.3" font-family="Verdana" font-size="9.00" fill="#555555">Created</text>
<polyline fill="none" stroke="#555555" points="340,-668.5 534,-668.5 "/>
<text text-anchor="middle" x="437" y="-657.3" font-family="Verdana" font-size="9.00" fill="#555555">+ CreatedBy</text>
<polyline fill="none" stroke="#555555" points="340,-650.5 534,-650.5 "/>
<text text-anchor="middle" x="437" y="-639.3" font-family="Verdana" font-size="9.00" fill="#555555">Modified</text>
<polyline fill="none" stroke="#555555" points="340,-632.5 534,-632.5 "/>
<text text-anchor="middle" x="437" y="-621.3" font-family="Verdana" font-size="9.00" fill="#555555">+ ModifiedBy</text>
<polyline fill="none" stroke="#555555" points="340,-614.5 534,-614.5 "/>
<text text-anchor="middle" x="437" y="-603.3" font-family="Verdana" font-size="9.00" fill="#555555">Deleted</text>
<polyline fill="none" stroke="#555555" points="340,-596.5 534,-596.5 "/>
<text text-anchor="middle" x="437" y="-585.3" font-family="Verdana" font-size="9.00" fill="#555555">+ DeletedBy</text>
<polyline fill="none" stroke="#555555" points="340,-578.5 534,-578.5 "/>
<text text-anchor="middle" x="437" y="-567.3" font-family="Verdana" font-size="9.00" fill="#555555">RowVersion</text>
<polyline fill="none" stroke="#555555" points="340,-560.5 534,-560.5 "/>
<text text-anchor="middle" x="437" y="-549.3" font-family="Verdana" font-size="9.00" fill="#555555">IsActive</text>
</g>
<!-- struct1 -->
<g id="node2" class="node">
<title>struct1</title>
<polygon fill="#f7f7f9" stroke="#555555" points="0,-226.5 0,-424.5 106,-424.5 106,-226.5 0,-226.5"/>
<text text-anchor="middle" x="53" y="-413.3" font-family="Verdana" font-size="9.00" fill="#555555">Table: Employees</text>
<polyline fill="none" stroke="#555555" points="0,-406.5 106,-406.5 "/>
<text text-anchor="middle" x="53" y="-395.3" font-family="Verdana" font-size="9.00" fill="#555555">Id +</text>
<polyline fill="none" stroke="#555555" points="0,-388.5 106,-388.5 "/>
<text text-anchor="middle" x="53" y="-377.3" font-family="Verdana" font-size="9.00" fill="#555555">ExternalEmploeeId</text>
<polyline fill="none" stroke="#555555" points="0,-370.5 106,-370.5 "/>
<text text-anchor="middle" x="53" y="-359.3" font-family="Verdana" font-size="9.00" fill="#555555">Surname</text>
<polyline fill="none" stroke="#555555" points="0,-352.5 106,-352.5 "/>
<text text-anchor="middle" x="53" y="-341.3" font-family="Verdana" font-size="9.00" fill="#555555">Name</text>
<polyline fill="none" stroke="#555555" points="0,-334.5 106,-334.5 "/>
<text text-anchor="middle" x="53" y="-323.3" font-family="Verdana" font-size="9.00" fill="#555555">MiddleName</text>
<polyline fill="none" stroke="#555555" points="0,-316.5 106,-316.5 "/>
<text text-anchor="middle" x="53" y="-305.3" font-family="Verdana" font-size="9.00" fill="#555555">Email</text>
<polyline fill="none" stroke="#555555" points="0,-298.5 106,-298.5 "/>
<text text-anchor="middle" x="53" y="-287.3" font-family="Verdana" font-size="9.00" fill="#555555">DomainLogin</text>
<polyline fill="none" stroke="#555555" points="0,-280.5 106,-280.5 "/>
<text text-anchor="middle" x="53" y="-269.3" font-family="Verdana" font-size="9.00" fill="#555555">FIO</text>
<polyline fill="none" stroke="#555555" points="0,-262.5 106,-262.5 "/>
<text text-anchor="middle" x="53" y="-251.3" font-family="Verdana" font-size="9.00" fill="#555555">FullName</text>
<polyline fill="none" stroke="#555555" points="0,-244.5 106,-244.5 "/>
<text text-anchor="middle" x="53" y="-233.3" font-family="Verdana" font-size="9.00" fill="#555555">Created</text>
</g>
<!-- struct2 -->
<g id="node3" class="node">
<title>struct2</title>
<polygon fill="#f7f7f9" stroke="#555555" points="124,-226.5 124,-586.5 322,-586.5 322,-226.5 124,-226.5"/>
<text text-anchor="middle" x="223" y="-575.3" font-family="Verdana" font-size="9.00" fill="#555555">Table: EmployeeWorkPlaces</text>
<polyline fill="none" stroke="#555555" points="124,-568.5 322,-568.5 "/>
<text text-anchor="middle" x="223" y="-557.3" font-family="Verdana" font-size="9.00" fill="#555555">Id +</text>
<polyline fill="none" stroke="#555555" points="124,-550.5 322,-550.5 "/>
<text text-anchor="middle" x="223" y="-539.3" font-family="Verdana" font-size="9.00" fill="#555555">+ EmployeeId</text>
<polyline fill="none" stroke="#555555" points="124,-532.5 322,-532.5 "/>
<text text-anchor="middle" x="223" y="-521.3" font-family="Verdana" font-size="9.00" fill="#555555">ExternalEmployeeId</text>
<polyline fill="none" stroke="#555555" points="124,-514.5 322,-514.5 "/>
<text text-anchor="middle" x="223" y="-503.3" font-family="Verdana" font-size="9.00" fill="#555555">ExternalPersonnelCode</text>
<polyline fill="none" stroke="#555555" points="124,-496.5 322,-496.5 "/>
<text text-anchor="middle" x="223" y="-485.3" font-family="Verdana" font-size="9.00" fill="#555555">ExternalEmployeeWorkPlaceId</text>
<polyline fill="none" stroke="#555555" points="124,-478.5 322,-478.5 "/>
<text text-anchor="middle" x="223" y="-467.3" font-family="Verdana" font-size="9.00" fill="#555555">ExternalJobTitleId</text>
<polyline fill="none" stroke="#555555" points="124,-460.5 322,-460.5 "/>
<text text-anchor="middle" x="223" y="-449.3" font-family="Verdana" font-size="9.00" fill="#555555">ExternalJobTitleName</text>
<polyline fill="none" stroke="#555555" points="124,-442.5 322,-442.5 "/>
<text text-anchor="middle" x="223" y="-431.3" font-family="Verdana" font-size="9.00" fill="#555555">ExternalWorkplaceCode</text>
<polyline fill="none" stroke="#555555" points="124,-424.5 322,-424.5 "/>
<text text-anchor="middle" x="223" y="-413.3" font-family="Verdana" font-size="9.00" fill="#555555">ExternalWorkPlaceName</text>
<polyline fill="none" stroke="#555555" points="124,-406.5 322,-406.5 "/>
<text text-anchor="middle" x="223" y="-395.3" font-family="Verdana" font-size="9.00" fill="#555555">ExternalOrganizationUnitId</text>
<polyline fill="none" stroke="#555555" points="124,-388.5 322,-388.5 "/>
<text text-anchor="middle" x="223" y="-377.3" font-family="Verdana" font-size="9.00" fill="#555555">ExternalOrganizationUnitName</text>
<polyline fill="none" stroke="#555555" points="124,-370.5 322,-370.5 "/>
<text text-anchor="middle" x="223" y="-359.3" font-family="Verdana" font-size="9.00" fill="#555555">ExternalParentOrganizationUnitName</text>
<polyline fill="none" stroke="#555555" points="124,-352.5 322,-352.5 "/>
<text text-anchor="middle" x="223" y="-341.3" font-family="Verdana" font-size="9.00" fill="#555555">ExternalAuditedOrganizationUnitName</text>
<polyline fill="none" stroke="#555555" points="124,-334.5 322,-334.5 "/>
<text text-anchor="middle" x="223" y="-323.3" font-family="Verdana" font-size="9.00" fill="#555555">ExternalIsOutside</text>
<polyline fill="none" stroke="#555555" points="124,-316.5 322,-316.5 "/>
<text text-anchor="middle" x="223" y="-305.3" font-family="Verdana" font-size="9.00" fill="#555555">ExternalOrganizationUnitFullName</text>
<polyline fill="none" stroke="#555555" points="124,-298.5 322,-298.5 "/>
<text text-anchor="middle" x="223" y="-287.3" font-family="Verdana" font-size="9.00" fill="#555555">ExternalEnterpriseId</text>
<polyline fill="none" stroke="#555555" points="124,-280.5 322,-280.5 "/>
<text text-anchor="middle" x="223" y="-269.3" font-family="Verdana" font-size="9.00" fill="#555555">Created</text>
<polyline fill="none" stroke="#555555" points="124,-262.5 322,-262.5 "/>
<text text-anchor="middle" x="223" y="-251.3" font-family="Verdana" font-size="9.00" fill="#555555">+ CreatedBy</text>
<polyline fill="none" stroke="#555555" points="124,-244.5 322,-244.5 "/>
<text text-anchor="middle" x="223" y="-233.3" font-family="Verdana" font-size="9.00" fill="#555555">RowVersion</text>
</g>
<!-- struct1&#45;&gt;struct2 -->
<g id="edge3" class="edge">
<title>struct1:c789577851_1&#45;&gt;struct2:c1714105147_2</title>
<path fill="none" stroke="#337ab7" d="M106,-397.5C166.47,-397.5 72.69,-524.06 113.88,-539.88"/>
<polygon fill="#337ab7" stroke="#337ab7" points="113.57,-543.38 124,-541.5 114.68,-536.47 113.57,-543.38"/>
</g>
<!-- struct1&#45;&gt;struct2 -->
<g id="edge4" class="edge">
<title>struct1:c789577851_1&#45;&gt;struct2:c1714105147_18</title>
<path fill="none" stroke="#337ab7" d="M106,-397.5C166.47,-397.5 72.69,-270.94 113.88,-255.12"/>
<polygon fill="#337ab7" stroke="#337ab7" points="114.68,-258.53 124,-253.5 113.57,-251.62 114.68,-258.53"/>
</g>
<!-- struct2&#45;&gt;struct0 -->
<g id="edge2" class="edge">
<title>struct2:c1714105147_1&#45;&gt;struct0:c1522104463_7</title>
<path fill="none" stroke="black" d="M322,-559.5C378.92,-559.5 292.11,-678.04 329.94,-693.78"/>
<polygon fill="black" stroke="black" points="329.55,-697.27 340,-695.5 330.73,-690.37 329.55,-697.27"/>
</g>
<!-- struct3 -->
<g id="node4" class="node">
<title>struct3</title>
<polygon fill="#f7f7f9" stroke="#555555" points="340,-19.5 340,-523.5 534,-523.5 534,-19.5 340,-19.5"/>
<text text-anchor="middle" x="437" y="-512.3" font-family="Verdana" font-size="9.00" fill="#555555">Table: ExaminationsActivities</text>
<polyline fill="none" stroke="#555555" points="340,-505.5 534,-505.5 "/>
<text text-anchor="middle" x="437" y="-494.3" font-family="Verdana" font-size="9.00" fill="#555555">Id +</text>
<polyline fill="none" stroke="#555555" points="340,-487.5 534,-487.5 "/>
<text text-anchor="middle" x="437" y="-476.3" font-family="Verdana" font-size="9.00" fill="#555555">+ ExaminationId</text>
<polyline fill="none" stroke="#555555" points="340,-469.5 534,-469.5 "/>
<text text-anchor="middle" x="437" y="-458.3" font-family="Verdana" font-size="9.00" fill="#555555">SeqNumber</text>
<polyline fill="none" stroke="#555555" points="340,-451.5 534,-451.5 "/>
<text text-anchor="middle" x="437" y="-440.3" font-family="Verdana" font-size="9.00" fill="#555555">Description</text>
<polyline fill="none" stroke="#555555" points="340,-433.5 534,-433.5 "/>
<text text-anchor="middle" x="437" y="-422.3" font-family="Verdana" font-size="9.00" fill="#555555">+ ExecutorId</text>
<polyline fill="none" stroke="#555555" points="340,-415.5 534,-415.5 "/>
<text text-anchor="middle" x="437" y="-404.3" font-family="Verdana" font-size="9.00" fill="#555555">PlanDate</text>
<polyline fill="none" stroke="#555555" points="340,-397.5 534,-397.5 "/>
<text text-anchor="middle" x="437" y="-386.3" font-family="Verdana" font-size="9.00" fill="#555555">FactDate</text>
<polyline fill="none" stroke="#555555" points="340,-379.5 534,-379.5 "/>
<text text-anchor="middle" x="437" y="-368.3" font-family="Verdana" font-size="9.00" fill="#555555">+ ExecutionStatusId</text>
<polyline fill="none" stroke="#555555" points="340,-361.5 534,-361.5 "/>
<text text-anchor="middle" x="437" y="-350.3" font-family="Verdana" font-size="9.00" fill="#555555">IsIncludedInBudget</text>
<polyline fill="none" stroke="#555555" points="340,-343.5 534,-343.5 "/>
<text text-anchor="middle" x="437" y="-332.3" font-family="Verdana" font-size="9.00" fill="#555555">CheckingStatus</text>
<polyline fill="none" stroke="#555555" points="340,-325.5 534,-325.5 "/>
<text text-anchor="middle" x="437" y="-314.3" font-family="Verdana" font-size="9.00" fill="#555555">Created</text>
<polyline fill="none" stroke="#555555" points="340,-307.5 534,-307.5 "/>
<text text-anchor="middle" x="437" y="-296.3" font-family="Verdana" font-size="9.00" fill="#555555">+ CreatedBy</text>
<polyline fill="none" stroke="#555555" points="340,-289.5 534,-289.5 "/>
<text text-anchor="middle" x="437" y="-278.3" font-family="Verdana" font-size="9.00" fill="#555555">Modified</text>
<polyline fill="none" stroke="#555555" points="340,-271.5 534,-271.5 "/>
<text text-anchor="middle" x="437" y="-260.3" font-family="Verdana" font-size="9.00" fill="#555555">+ ModifiedBy</text>
<polyline fill="none" stroke="#555555" points="340,-253.5 534,-253.5 "/>
<text text-anchor="middle" x="437" y="-242.3" font-family="Verdana" font-size="9.00" fill="#555555">Deleted</text>
<polyline fill="none" stroke="#555555" points="340,-235.5 534,-235.5 "/>
<text text-anchor="middle" x="437" y="-224.3" font-family="Verdana" font-size="9.00" fill="#555555">+ DeletedBy</text>
<polyline fill="none" stroke="#555555" points="340,-217.5 534,-217.5 "/>
<text text-anchor="middle" x="437" y="-206.3" font-family="Verdana" font-size="9.00" fill="#555555">+ DangersCategoryId</text>
<polyline fill="none" stroke="#555555" points="340,-199.5 534,-199.5 "/>
<text text-anchor="middle" x="437" y="-188.3" font-family="Verdana" font-size="9.00" fill="#555555">+ MeasuresUnitId</text>
<polyline fill="none" stroke="#555555" points="340,-181.5 534,-181.5 "/>
<text text-anchor="middle" x="437" y="-170.3" font-family="Verdana" font-size="9.00" fill="#555555">RowVersion</text>
<polyline fill="none" stroke="#555555" points="340,-163.5 534,-163.5 "/>
<text text-anchor="middle" x="437" y="-152.3" font-family="Verdana" font-size="9.00" fill="#555555">IsActive</text>
<polyline fill="none" stroke="#555555" points="340,-145.5 534,-145.5 "/>
<text text-anchor="middle" x="437" y="-134.3" font-family="Verdana" font-size="9.00" fill="#555555">DamagesDescription</text>
<polyline fill="none" stroke="#555555" points="340,-127.5 534,-127.5 "/>
<text text-anchor="middle" x="437" y="-116.3" font-family="Verdana" font-size="9.00" fill="#555555">DamagesVolume</text>
<polyline fill="none" stroke="#555555" points="340,-109.5 534,-109.5 "/>
<text text-anchor="middle" x="437" y="-98.3" font-family="Verdana" font-size="9.00" fill="#555555">IsDefectListsDevelopmentRequired</text>
<polyline fill="none" stroke="#555555" points="340,-91.5 534,-91.5 "/>
<text text-anchor="middle" x="437" y="-80.3" font-family="Verdana" font-size="9.00" fill="#555555">IsSpecificationsDevelopmentRequired</text>
<polyline fill="none" stroke="#555555" points="340,-73.5 534,-73.5 "/>
<text text-anchor="middle" x="437" y="-62.3" font-family="Verdana" font-size="9.00" fill="#555555">RequiredBudget4CIW</text>
<polyline fill="none" stroke="#555555" points="340,-55.5 534,-55.5 "/>
<text text-anchor="middle" x="437" y="-44.3" font-family="Verdana" font-size="9.00" fill="#555555">RequiredBudget4Inventory</text>
<polyline fill="none" stroke="#555555" points="340,-37.5 534,-37.5 "/>
<text text-anchor="middle" x="437" y="-26.3" font-family="Verdana" font-size="9.00" fill="#555555">TotalRequiredBudget</text>
</g>
<!-- struct2&#45;&gt;struct3 -->
<g id="edge1" class="edge">
<title>struct2:c1714105147_1&#45;&gt;struct3:c1045578763_5</title>
<path fill="none" stroke="black" d="M322,-559.5C348.48,-559.5 319.23,-456.14 331.78,-430.3"/>
<polygon fill="black" stroke="black" points="333.85,-433.12 340,-424.5 329.81,-427.41 333.85,-433.12"/>
</g>
</g>
</svg>
