<?xml version="1.0" encoding="UTF-8" standalone="no"?>
<!DOCTYPE svg PUBLIC "-//W3C//DTD SVG 1.1//EN"
 "http://www.w3.org/Graphics/SVG/1.1/DTD/svg11.dtd">
<!-- Generated by graphviz version 5.0.0 (20220707.1540)
 -->
<!-- Title: g Pages: 1 -->
<svg width="431pt" height="749pt"
 viewBox="0.00 0.00 431.00 749.00" xmlns="http://www.w3.org/2000/svg" xmlns:xlink="http://www.w3.org/1999/xlink">
<g id="graph0" class="graph" transform="scale(1 1) rotate(0) translate(4 745)">
<title>g</title>
<polygon fill="white" stroke="transparent" points="-4,4 -4,-745 427,-745 427,4 -4,4"/>
<text text-anchor="middle" x="211.5" y="-7" font-family="Verdana" font-size="10.00">Table: ExaminationsActivitiesCWPRepairs</text>
<!-- struct0 -->
<g id="node1" class="node">
<title>struct0</title>
<polygon fill="#f7f7f9" stroke="#555555" points="44,-19.5 44,-217.5 150,-217.5 150,-19.5 44,-19.5"/>
<text text-anchor="middle" x="97" y="-206.3" font-family="Verdana" font-size="9.00" fill="#555555">Table: Employees</text>
<polyline fill="none" stroke="#555555" points="44,-199.5 150,-199.5 "/>
<text text-anchor="middle" x="97" y="-188.3" font-family="Verdana" font-size="9.00" fill="#555555">Id +</text>
<polyline fill="none" stroke="#555555" points="44,-181.5 150,-181.5 "/>
<text text-anchor="middle" x="97" y="-170.3" font-family="Verdana" font-size="9.00" fill="#555555">ExternalEmploeeId</text>
<polyline fill="none" stroke="#555555" points="44,-163.5 150,-163.5 "/>
<text text-anchor="middle" x="97" y="-152.3" font-family="Verdana" font-size="9.00" fill="#555555">Surname</text>
<polyline fill="none" stroke="#555555" points="44,-145.5 150,-145.5 "/>
<text text-anchor="middle" x="97" y="-134.3" font-family="Verdana" font-size="9.00" fill="#555555">Name</text>
<polyline fill="none" stroke="#555555" points="44,-127.5 150,-127.5 "/>
<text text-anchor="middle" x="97" y="-116.3" font-family="Verdana" font-size="9.00" fill="#555555">MiddleName</text>
<polyline fill="none" stroke="#555555" points="44,-109.5 150,-109.5 "/>
<text text-anchor="middle" x="97" y="-98.3" font-family="Verdana" font-size="9.00" fill="#555555">Email</text>
<polyline fill="none" stroke="#555555" points="44,-91.5 150,-91.5 "/>
<text text-anchor="middle" x="97" y="-80.3" font-family="Verdana" font-size="9.00" fill="#555555">DomainLogin</text>
<polyline fill="none" stroke="#555555" points="44,-73.5 150,-73.5 "/>
<text text-anchor="middle" x="97" y="-62.3" font-family="Verdana" font-size="9.00" fill="#555555">FIO</text>
<polyline fill="none" stroke="#555555" points="44,-55.5 150,-55.5 "/>
<text text-anchor="middle" x="97" y="-44.3" font-family="Verdana" font-size="9.00" fill="#555555">FullName</text>
<polyline fill="none" stroke="#555555" points="44,-37.5 150,-37.5 "/>
<text text-anchor="middle" x="97" y="-26.3" font-family="Verdana" font-size="9.00" fill="#555555">Created</text>
</g>
<!-- struct2 -->
<g id="node3" class="node">
<title>struct2</title>
<polygon fill="#f7f7f9" stroke="#555555" points="212,-181.5 212,-361.5 423,-361.5 423,-181.5 212,-181.5"/>
<text text-anchor="middle" x="317.5" y="-350.3" font-family="Verdana" font-size="9.00" fill="#555555">Table: ExaminationsActivitiesCWPRepairs</text>
<polyline fill="none" stroke="#555555" points="212,-343.5 423,-343.5 "/>
<text text-anchor="middle" x="317.5" y="-332.3" font-family="Verdana" font-size="9.00" fill="#555555">Id</text>
<polyline fill="none" stroke="#555555" points="212,-325.5 423,-325.5 "/>
<text text-anchor="middle" x="317.5" y="-314.3" font-family="Verdana" font-size="9.00" fill="#555555">TenderRequestDate</text>
<polyline fill="none" stroke="#555555" points="212,-307.5 423,-307.5 "/>
<text text-anchor="middle" x="317.5" y="-296.3" font-family="Verdana" font-size="9.00" fill="#555555">TenderRequestNumber</text>
<polyline fill="none" stroke="#555555" points="212,-289.5 423,-289.5 "/>
<text text-anchor="middle" x="317.5" y="-278.3" font-family="Verdana" font-size="9.00" fill="#555555">+ ExaminationsActivityId</text>
<polyline fill="none" stroke="#555555" points="212,-271.5 423,-271.5 "/>
<text text-anchor="middle" x="317.5" y="-260.3" font-family="Verdana" font-size="9.00" fill="#555555">Created</text>
<polyline fill="none" stroke="#555555" points="212,-253.5 423,-253.5 "/>
<text text-anchor="middle" x="317.5" y="-242.3" font-family="Verdana" font-size="9.00" fill="#555555">+ CreatedBy</text>
<polyline fill="none" stroke="#555555" points="212,-235.5 423,-235.5 "/>
<text text-anchor="middle" x="317.5" y="-224.3" font-family="Verdana" font-size="9.00" fill="#555555">RowVersion</text>
<polyline fill="none" stroke="#555555" points="212,-217.5 423,-217.5 "/>
<text text-anchor="middle" x="317.5" y="-206.3" font-family="Verdana" font-size="9.00" fill="#555555">Modified</text>
<polyline fill="none" stroke="#555555" points="212,-199.5 423,-199.5 "/>
<text text-anchor="middle" x="317.5" y="-188.3" font-family="Verdana" font-size="9.00" fill="#555555">+ ModifiedBy</text>
</g>
<!-- struct0&#45;&gt;struct2 -->
<g id="edge2" class="edge">
<title>struct0:c789577851_1&#45;&gt;struct2:c1991678143_6</title>
<path fill="none" stroke="#337ab7" d="M151,-190.5C176.21,-190.5 175.27,-210.62 194,-227.5 198.6,-231.64 200.24,-236.51 202.75,-239.97"/>
<polygon fill="#337ab7" stroke="#337ab7" points="201.48,-243.24 212,-244.5 204.56,-236.96 201.48,-243.24"/>
</g>
<!-- struct0&#45;&gt;struct2 -->
<g id="edge3" class="edge">
<title>struct0:c789577851_1&#45;&gt;struct2:c1991678143_9</title>
<path fill="none" stroke="#337ab7" d="M151,-190.5C174.4,-190.5 182.66,-190.5 201.92,-190.5"/>
<polygon fill="#337ab7" stroke="#337ab7" points="202,-194 212,-190.5 202,-187 202,-194"/>
</g>
<!-- struct1 -->
<g id="node2" class="node">
<title>struct1</title>
<polygon fill="#f7f7f9" stroke="#555555" points="0,-236.5 0,-740.5 194,-740.5 194,-236.5 0,-236.5"/>
<text text-anchor="middle" x="97" y="-729.3" font-family="Verdana" font-size="9.00" fill="#555555">Table: ExaminationsActivities</text>
<polyline fill="none" stroke="#555555" points="0,-722.5 194,-722.5 "/>
<text text-anchor="middle" x="97" y="-711.3" font-family="Verdana" font-size="9.00" fill="#555555">Id +</text>
<polyline fill="none" stroke="#555555" points="0,-704.5 194,-704.5 "/>
<text text-anchor="middle" x="97" y="-693.3" font-family="Verdana" font-size="9.00" fill="#555555">+ ExaminationId</text>
<polyline fill="none" stroke="#555555" points="0,-686.5 194,-686.5 "/>
<text text-anchor="middle" x="97" y="-675.3" font-family="Verdana" font-size="9.00" fill="#555555">SeqNumber</text>
<polyline fill="none" stroke="#555555" points="0,-668.5 194,-668.5 "/>
<text text-anchor="middle" x="97" y="-657.3" font-family="Verdana" font-size="9.00" fill="#555555">Description</text>
<polyline fill="none" stroke="#555555" points="0,-650.5 194,-650.5 "/>
<text text-anchor="middle" x="97" y="-639.3" font-family="Verdana" font-size="9.00" fill="#555555">+ ExecutorId</text>
<polyline fill="none" stroke="#555555" points="0,-632.5 194,-632.5 "/>
<text text-anchor="middle" x="97" y="-621.3" font-family="Verdana" font-size="9.00" fill="#555555">PlanDate</text>
<polyline fill="none" stroke="#555555" points="0,-614.5 194,-614.5 "/>
<text text-anchor="middle" x="97" y="-603.3" font-family="Verdana" font-size="9.00" fill="#555555">FactDate</text>
<polyline fill="none" stroke="#555555" points="0,-596.5 194,-596.5 "/>
<text text-anchor="middle" x="97" y="-585.3" font-family="Verdana" font-size="9.00" fill="#555555">+ ExecutionStatusId</text>
<polyline fill="none" stroke="#555555" points="0,-578.5 194,-578.5 "/>
<text text-anchor="middle" x="97" y="-567.3" font-family="Verdana" font-size="9.00" fill="#555555">IsIncludedInBudget</text>
<polyline fill="none" stroke="#555555" points="0,-560.5 194,-560.5 "/>
<text text-anchor="middle" x="97" y="-549.3" font-family="Verdana" font-size="9.00" fill="#555555">CheckingStatus</text>
<polyline fill="none" stroke="#555555" points="0,-542.5 194,-542.5 "/>
<text text-anchor="middle" x="97" y="-531.3" font-family="Verdana" font-size="9.00" fill="#555555">Created</text>
<polyline fill="none" stroke="#555555" points="0,-524.5 194,-524.5 "/>
<text text-anchor="middle" x="97" y="-513.3" font-family="Verdana" font-size="9.00" fill="#555555">+ CreatedBy</text>
<polyline fill="none" stroke="#555555" points="0,-506.5 194,-506.5 "/>
<text text-anchor="middle" x="97" y="-495.3" font-family="Verdana" font-size="9.00" fill="#555555">Modified</text>
<polyline fill="none" stroke="#555555" points="0,-488.5 194,-488.5 "/>
<text text-anchor="middle" x="97" y="-477.3" font-family="Verdana" font-size="9.00" fill="#555555">+ ModifiedBy</text>
<polyline fill="none" stroke="#555555" points="0,-470.5 194,-470.5 "/>
<text text-anchor="middle" x="97" y="-459.3" font-family="Verdana" font-size="9.00" fill="#555555">Deleted</text>
<polyline fill="none" stroke="#555555" points="0,-452.5 194,-452.5 "/>
<text text-anchor="middle" x="97" y="-441.3" font-family="Verdana" font-size="9.00" fill="#555555">+ DeletedBy</text>
<polyline fill="none" stroke="#555555" points="0,-434.5 194,-434.5 "/>
<text text-anchor="middle" x="97" y="-423.3" font-family="Verdana" font-size="9.00" fill="#555555">+ DangersCategoryId</text>
<polyline fill="none" stroke="#555555" points="0,-416.5 194,-416.5 "/>
<text text-anchor="middle" x="97" y="-405.3" font-family="Verdana" font-size="9.00" fill="#555555">+ MeasuresUnitId</text>
<polyline fill="none" stroke="#555555" points="0,-398.5 194,-398.5 "/>
<text text-anchor="middle" x="97" y="-387.3" font-family="Verdana" font-size="9.00" fill="#555555">RowVersion</text>
<polyline fill="none" stroke="#555555" points="0,-380.5 194,-380.5 "/>
<text text-anchor="middle" x="97" y="-369.3" font-family="Verdana" font-size="9.00" fill="#555555">IsActive</text>
<polyline fill="none" stroke="#555555" points="0,-362.5 194,-362.5 "/>
<text text-anchor="middle" x="97" y="-351.3" font-family="Verdana" font-size="9.00" fill="#555555">DamagesDescription</text>
<polyline fill="none" stroke="#555555" points="0,-344.5 194,-344.5 "/>
<text text-anchor="middle" x="97" y="-333.3" font-family="Verdana" font-size="9.00" fill="#555555">DamagesVolume</text>
<polyline fill="none" stroke="#555555" points="0,-326.5 194,-326.5 "/>
<text text-anchor="middle" x="97" y="-315.3" font-family="Verdana" font-size="9.00" fill="#555555">IsDefectListsDevelopmentRequired</text>
<polyline fill="none" stroke="#555555" points="0,-308.5 194,-308.5 "/>
<text text-anchor="middle" x="97" y="-297.3" font-family="Verdana" font-size="9.00" fill="#555555">IsSpecificationsDevelopmentRequired</text>
<polyline fill="none" stroke="#555555" points="0,-290.5 194,-290.5 "/>
<text text-anchor="middle" x="97" y="-279.3" font-family="Verdana" font-size="9.00" fill="#555555">RequiredBudget4CIW</text>
<polyline fill="none" stroke="#555555" points="0,-272.5 194,-272.5 "/>
<text text-anchor="middle" x="97" y="-261.3" font-family="Verdana" font-size="9.00" fill="#555555">RequiredBudget4Inventory</text>
<polyline fill="none" stroke="#555555" points="0,-254.5 194,-254.5 "/>
<text text-anchor="middle" x="97" y="-243.3" font-family="Verdana" font-size="9.00" fill="#555555">TotalRequiredBudget</text>
</g>
<!-- struct1&#45;&gt;struct2 -->
<g id="edge1" class="edge">
<title>struct1:c1045578763_1&#45;&gt;struct2:c1991678143_4</title>
<path fill="none" stroke="#337ab7" d="M194,-713.5C383.04,-713.5 32.82,-296.42 201.85,-280.94"/>
<polygon fill="#337ab7" stroke="#337ab7" points="202.16,-284.43 212,-280.5 201.86,-277.44 202.16,-284.43"/>
</g>
</g>
</svg>
