<?xml version="1.0" encoding="UTF-8" standalone="no"?>
<!DOCTYPE svg PUBLIC "-//W3C//DTD SVG 1.1//EN"
 "http://www.w3.org/Graphics/SVG/1.1/DTD/svg11.dtd">
<!-- Generated by graphviz version 5.0.0 (20220707.1540)
 -->
<!-- Title: g Pages: 1 -->
<svg width="560pt" height="706pt"
 viewBox="0.00 0.00 560.00 706.00" xmlns="http://www.w3.org/2000/svg" xmlns:xlink="http://www.w3.org/1999/xlink">
<g id="graph0" class="graph" transform="scale(1 1) rotate(0) translate(4 702)">
<title>g</title>
<polygon fill="white" stroke="transparent" points="-4,4 -4,-702 556,-702 556,4 -4,4"/>
<text text-anchor="middle" x="276" y="-7" font-family="Verdana" font-size="10.00">Table: DistributionShedules</text>
<!-- struct0 -->
<g id="node1" class="node">
<title>struct0</title>
<polygon fill="#f7f7f9" stroke="#555555" points="8,-317.5 8,-371.5 162,-371.5 162,-317.5 8,-317.5"/>
<text text-anchor="middle" x="85" y="-360.3" font-family="Verdana" font-size="9.00" fill="#555555">Table: DistributionDaysTypes</text>
<polyline fill="none" stroke="#555555" points="8,-353.5 162,-353.5 "/>
<text text-anchor="middle" x="85" y="-342.3" font-family="Verdana" font-size="9.00" fill="#555555">Id +</text>
<polyline fill="none" stroke="#555555" points="8,-335.5 162,-335.5 "/>
<text text-anchor="middle" x="85" y="-324.3" font-family="Verdana" font-size="9.00" fill="#555555">Name</text>
</g>
<!-- struct2 -->
<g id="node3" class="node">
<title>struct2</title>
<polygon fill="#f7f7f9" stroke="#555555" points="188,-109.5 188,-433.5 340,-433.5 340,-109.5 188,-109.5"/>
<text text-anchor="middle" x="264" y="-422.3" font-family="Verdana" font-size="9.00" fill="#555555">Table: DistributionShedules</text>
<polyline fill="none" stroke="#555555" points="188,-415.5 340,-415.5 "/>
<text text-anchor="middle" x="264" y="-404.3" font-family="Verdana" font-size="9.00" fill="#555555">Id +</text>
<polyline fill="none" stroke="#555555" points="188,-397.5 340,-397.5 "/>
<text text-anchor="middle" x="264" y="-386.3" font-family="Verdana" font-size="9.00" fill="#555555">+ EnterpriseId</text>
<polyline fill="none" stroke="#555555" points="188,-379.5 340,-379.5 "/>
<text text-anchor="middle" x="264" y="-368.3" font-family="Verdana" font-size="9.00" fill="#555555">+ DistributionTrackingTypeId</text>
<polyline fill="none" stroke="#555555" points="188,-361.5 340,-361.5 "/>
<text text-anchor="middle" x="264" y="-350.3" font-family="Verdana" font-size="9.00" fill="#555555">+ DistributionDaysTypeId</text>
<polyline fill="none" stroke="#555555" points="188,-343.5 340,-343.5 "/>
<text text-anchor="middle" x="264" y="-332.3" font-family="Verdana" font-size="9.00" fill="#555555">+ DistributionPeriodicityId</text>
<polyline fill="none" stroke="#555555" points="188,-325.5 340,-325.5 "/>
<text text-anchor="middle" x="264" y="-314.3" font-family="Verdana" font-size="9.00" fill="#555555">DaysNumber</text>
<polyline fill="none" stroke="#555555" points="188,-307.5 340,-307.5 "/>
<text text-anchor="middle" x="264" y="-296.3" font-family="Verdana" font-size="9.00" fill="#555555">Name</text>
<polyline fill="none" stroke="#555555" points="188,-289.5 340,-289.5 "/>
<text text-anchor="middle" x="264" y="-278.3" font-family="Verdana" font-size="9.00" fill="#555555">StartDate</text>
<polyline fill="none" stroke="#555555" points="188,-271.5 340,-271.5 "/>
<text text-anchor="middle" x="264" y="-260.3" font-family="Verdana" font-size="9.00" fill="#555555">Remainder</text>
<polyline fill="none" stroke="#555555" points="188,-253.5 340,-253.5 "/>
<text text-anchor="middle" x="264" y="-242.3" font-family="Verdana" font-size="9.00" fill="#555555">Created</text>
<polyline fill="none" stroke="#555555" points="188,-235.5 340,-235.5 "/>
<text text-anchor="middle" x="264" y="-224.3" font-family="Verdana" font-size="9.00" fill="#555555">+ CreatedBy</text>
<polyline fill="none" stroke="#555555" points="188,-217.5 340,-217.5 "/>
<text text-anchor="middle" x="264" y="-206.3" font-family="Verdana" font-size="9.00" fill="#555555">Modified</text>
<polyline fill="none" stroke="#555555" points="188,-199.5 340,-199.5 "/>
<text text-anchor="middle" x="264" y="-188.3" font-family="Verdana" font-size="9.00" fill="#555555">+ ModifiedBy</text>
<polyline fill="none" stroke="#555555" points="188,-181.5 340,-181.5 "/>
<text text-anchor="middle" x="264" y="-170.3" font-family="Verdana" font-size="9.00" fill="#555555">Deleted</text>
<polyline fill="none" stroke="#555555" points="188,-163.5 340,-163.5 "/>
<text text-anchor="middle" x="264" y="-152.3" font-family="Verdana" font-size="9.00" fill="#555555">+ DeletedBy</text>
<polyline fill="none" stroke="#555555" points="188,-145.5 340,-145.5 "/>
<text text-anchor="middle" x="264" y="-134.3" font-family="Verdana" font-size="9.00" fill="#555555">RowVersion</text>
<polyline fill="none" stroke="#555555" points="188,-127.5 340,-127.5 "/>
<text text-anchor="middle" x="264" y="-116.3" font-family="Verdana" font-size="9.00" fill="#555555">IsActive</text>
</g>
<!-- struct0&#45;&gt;struct2 -->
<g id="edge4" class="edge">
<title>struct0:c50099219_1&#45;&gt;struct2:c1186103266_4</title>
<path fill="none" stroke="#337ab7" d="M163,-344.5C170.29,-344.5 173.68,-347.62 178.04,-349.97"/>
<polygon fill="#337ab7" stroke="#337ab7" points="177.45,-353.43 188,-352.5 179.17,-346.64 177.45,-353.43"/>
</g>
<!-- struct1 -->
<g id="node2" class="node">
<title>struct1</title>
<polygon fill="#f7f7f9" stroke="#555555" points="5.5,-244.5 5.5,-298.5 164.5,-298.5 164.5,-244.5 5.5,-244.5"/>
<text text-anchor="middle" x="85" y="-287.3" font-family="Verdana" font-size="9.00" fill="#555555">Table: DistributionPeriodicities</text>
<polyline fill="none" stroke="#555555" points="5.5,-280.5 164.5,-280.5 "/>
<text text-anchor="middle" x="85" y="-269.3" font-family="Verdana" font-size="9.00" fill="#555555">Id +</text>
<polyline fill="none" stroke="#555555" points="5.5,-262.5 164.5,-262.5 "/>
<text text-anchor="middle" x="85" y="-251.3" font-family="Verdana" font-size="9.00" fill="#555555">Name</text>
</g>
<!-- struct1&#45;&gt;struct2 -->
<g id="edge5" class="edge">
<title>struct1:c82099333_1&#45;&gt;struct2:c1186103266_5</title>
<path fill="none" stroke="#337ab7" d="M166,-271.5C191.02,-271.5 168.37,-316.35 178.49,-330.37"/>
<polygon fill="#337ab7" stroke="#337ab7" points="177.43,-333.72 188,-334.5 180.22,-327.3 177.43,-333.72"/>
</g>
<!-- struct3 -->
<g id="node4" class="node">
<title>struct3</title>
<polygon fill="#f7f7f9" stroke="#555555" points="358,-163.5 358,-451.5 552,-451.5 552,-163.5 358,-163.5"/>
<text text-anchor="middle" x="455" y="-440.3" font-family="Verdana" font-size="9.00" fill="#555555">Table: DistributionShedulesRecipients</text>
<polyline fill="none" stroke="#555555" points="358,-433.5 552,-433.5 "/>
<text text-anchor="middle" x="455" y="-422.3" font-family="Verdana" font-size="9.00" fill="#555555">Id</text>
<polyline fill="none" stroke="#555555" points="358,-415.5 552,-415.5 "/>
<text text-anchor="middle" x="455" y="-404.3" font-family="Verdana" font-size="9.00" fill="#555555">+ DistributionSheduleId</text>
<polyline fill="none" stroke="#555555" points="358,-397.5 552,-397.5 "/>
<text text-anchor="middle" x="455" y="-386.3" font-family="Verdana" font-size="9.00" fill="#555555">+ AuditedEnterpiseId</text>
<polyline fill="none" stroke="#555555" points="358,-379.5 552,-379.5 "/>
<text text-anchor="middle" x="455" y="-368.3" font-family="Verdana" font-size="9.00" fill="#555555">+ AuditedSegmentId</text>
<polyline fill="none" stroke="#555555" points="358,-361.5 552,-361.5 "/>
<text text-anchor="middle" x="455" y="-350.3" font-family="Verdana" font-size="9.00" fill="#555555">+ AuditedDepartmentId</text>
<polyline fill="none" stroke="#555555" points="358,-343.5 552,-343.5 "/>
<text text-anchor="middle" x="455" y="-332.3" font-family="Verdana" font-size="9.00" fill="#555555">AuditedOrganizationUnitName</text>
<polyline fill="none" stroke="#555555" points="358,-325.5 552,-325.5 "/>
<text text-anchor="middle" x="455" y="-314.3" font-family="Verdana" font-size="9.00" fill="#555555">+ EmployeesWorkPlaceId</text>
<polyline fill="none" stroke="#555555" points="358,-307.5 552,-307.5 "/>
<text text-anchor="middle" x="455" y="-296.3" font-family="Verdana" font-size="9.00" fill="#555555">Created</text>
<polyline fill="none" stroke="#555555" points="358,-289.5 552,-289.5 "/>
<text text-anchor="middle" x="455" y="-278.3" font-family="Verdana" font-size="9.00" fill="#555555">+ CreatedBy</text>
<polyline fill="none" stroke="#555555" points="358,-271.5 552,-271.5 "/>
<text text-anchor="middle" x="455" y="-260.3" font-family="Verdana" font-size="9.00" fill="#555555">Modified</text>
<polyline fill="none" stroke="#555555" points="358,-253.5 552,-253.5 "/>
<text text-anchor="middle" x="455" y="-242.3" font-family="Verdana" font-size="9.00" fill="#555555">+ ModifiedBy</text>
<polyline fill="none" stroke="#555555" points="358,-235.5 552,-235.5 "/>
<text text-anchor="middle" x="455" y="-224.3" font-family="Verdana" font-size="9.00" fill="#555555">Deleted</text>
<polyline fill="none" stroke="#555555" points="358,-217.5 552,-217.5 "/>
<text text-anchor="middle" x="455" y="-206.3" font-family="Verdana" font-size="9.00" fill="#555555">+ DeletedBy</text>
<polyline fill="none" stroke="#555555" points="358,-199.5 552,-199.5 "/>
<text text-anchor="middle" x="455" y="-188.3" font-family="Verdana" font-size="9.00" fill="#555555">RowVersion</text>
<polyline fill="none" stroke="#555555" points="358,-181.5 552,-181.5 "/>
<text text-anchor="middle" x="455" y="-170.3" font-family="Verdana" font-size="9.00" fill="#555555">IsActive</text>
</g>
<!-- struct2&#45;&gt;struct3 -->
<g id="edge1" class="edge">
<title>struct2:c1186103266_1&#45;&gt;struct3:c1522104463_2</title>
<path fill="none" stroke="black" d="M340,-406.5C343.25,-406.5 345.51,-406.5 347.58,-406.5"/>
<polygon fill="black" stroke="black" points="348,-410 358,-406.5 348,-403 348,-410"/>
</g>
<!-- struct4 -->
<g id="node5" class="node">
<title>struct4</title>
<polygon fill="#f7f7f9" stroke="#555555" points="0,-390.5 0,-444.5 170,-444.5 170,-390.5 0,-390.5"/>
<text text-anchor="middle" x="85" y="-433.3" font-family="Verdana" font-size="9.00" fill="#555555">Table: DistributionTrackingTypes</text>
<polyline fill="none" stroke="#555555" points="0,-426.5 170,-426.5 "/>
<text text-anchor="middle" x="85" y="-415.3" font-family="Verdana" font-size="9.00" fill="#555555">Id +</text>
<polyline fill="none" stroke="#555555" points="0,-408.5 170,-408.5 "/>
<text text-anchor="middle" x="85" y="-397.3" font-family="Verdana" font-size="9.00" fill="#555555">Name</text>
</g>
<!-- struct4&#45;&gt;struct2 -->
<g id="edge3" class="edge">
<title>struct4:c18099105_1&#45;&gt;struct2:c1186103266_3</title>
<path fill="none" stroke="#337ab7" d="M170,-417.5C187.65,-417.5 174.73,-388.24 179.48,-375.89"/>
<polygon fill="#337ab7" stroke="#337ab7" points="181.42,-378.8 188,-370.5 177.68,-372.89 181.42,-378.8"/>
</g>
<!-- struct5 -->
<g id="node6" class="node">
<title>struct5</title>
<polygon fill="#f7f7f9" stroke="#555555" points="32,-19.5 32,-217.5 138,-217.5 138,-19.5 32,-19.5"/>
<text text-anchor="middle" x="85" y="-206.3" font-family="Verdana" font-size="9.00" fill="#555555">Table: Employees</text>
<polyline fill="none" stroke="#555555" points="32,-199.5 138,-199.5 "/>
<text text-anchor="middle" x="85" y="-188.3" font-family="Verdana" font-size="9.00" fill="#555555">Id +</text>
<polyline fill="none" stroke="#555555" points="32,-181.5 138,-181.5 "/>
<text text-anchor="middle" x="85" y="-170.3" font-family="Verdana" font-size="9.00" fill="#555555">ExternalEmploeeId</text>
<polyline fill="none" stroke="#555555" points="32,-163.5 138,-163.5 "/>
<text text-anchor="middle" x="85" y="-152.3" font-family="Verdana" font-size="9.00" fill="#555555">Surname</text>
<polyline fill="none" stroke="#555555" points="32,-145.5 138,-145.5 "/>
<text text-anchor="middle" x="85" y="-134.3" font-family="Verdana" font-size="9.00" fill="#555555">Name</text>
<polyline fill="none" stroke="#555555" points="32,-127.5 138,-127.5 "/>
<text text-anchor="middle" x="85" y="-116.3" font-family="Verdana" font-size="9.00" fill="#555555">MiddleName</text>
<polyline fill="none" stroke="#555555" points="32,-109.5 138,-109.5 "/>
<text text-anchor="middle" x="85" y="-98.3" font-family="Verdana" font-size="9.00" fill="#555555">Email</text>
<polyline fill="none" stroke="#555555" points="32,-91.5 138,-91.5 "/>
<text text-anchor="middle" x="85" y="-80.3" font-family="Verdana" font-size="9.00" fill="#555555">DomainLogin</text>
<polyline fill="none" stroke="#555555" points="32,-73.5 138,-73.5 "/>
<text text-anchor="middle" x="85" y="-62.3" font-family="Verdana" font-size="9.00" fill="#555555">FIO</text>
<polyline fill="none" stroke="#555555" points="32,-55.5 138,-55.5 "/>
<text text-anchor="middle" x="85" y="-44.3" font-family="Verdana" font-size="9.00" fill="#555555">FullName</text>
<polyline fill="none" stroke="#555555" points="32,-37.5 138,-37.5 "/>
<text text-anchor="middle" x="85" y="-26.3" font-family="Verdana" font-size="9.00" fill="#555555">Created</text>
</g>
<!-- struct5&#45;&gt;struct2 -->
<g id="edge6" class="edge">
<title>struct5:c789577851_1&#45;&gt;struct2:c1186103266_12</title>
<path fill="none" stroke="#337ab7" d="M139,-190.5C162.01,-190.5 161.77,-216.61 177.88,-224.36"/>
<polygon fill="#337ab7" stroke="#337ab7" points="177.49,-227.85 188,-226.5 178.94,-221 177.49,-227.85"/>
</g>
<!-- struct5&#45;&gt;struct2 -->
<g id="edge7" class="edge">
<title>struct5:c789577851_1&#45;&gt;struct2:c1186103266_14</title>
<path fill="none" stroke="#337ab7" d="M139,-190.5C156.86,-190.5 163.74,-190.5 177.65,-190.5"/>
<polygon fill="#337ab7" stroke="#337ab7" points="178,-194 188,-190.5 178,-187 178,-194"/>
</g>
<!-- struct5&#45;&gt;struct2 -->
<g id="edge8" class="edge">
<title>struct5:c789577851_1&#45;&gt;struct2:c1186103266_16</title>
<path fill="none" stroke="#337ab7" d="M139,-190.5C162.01,-190.5 161.77,-164.39 177.88,-156.64"/>
<polygon fill="#337ab7" stroke="#337ab7" points="178.94,-160 188,-154.5 177.49,-153.15 178.94,-160"/>
</g>
<!-- struct6 -->
<g id="node7" class="node">
<title>struct6</title>
<polygon fill="#f7f7f9" stroke="#555555" points="28,-463.5 28,-697.5 142,-697.5 142,-463.5 28,-463.5"/>
<text text-anchor="middle" x="85" y="-686.3" font-family="Verdana" font-size="9.00" fill="#555555">Table: Enterprises</text>
<polyline fill="none" stroke="#555555" points="28,-679.5 142,-679.5 "/>
<text text-anchor="middle" x="85" y="-668.3" font-family="Verdana" font-size="9.00" fill="#555555">Id +</text>
<polyline fill="none" stroke="#555555" points="28,-661.5 142,-661.5 "/>
<text text-anchor="middle" x="85" y="-650.3" font-family="Verdana" font-size="9.00" fill="#555555">Code</text>
<polyline fill="none" stroke="#555555" points="28,-643.5 142,-643.5 "/>
<text text-anchor="middle" x="85" y="-632.3" font-family="Verdana" font-size="9.00" fill="#555555">Name</text>
<polyline fill="none" stroke="#555555" points="28,-625.5 142,-625.5 "/>
<text text-anchor="middle" x="85" y="-614.3" font-family="Verdana" font-size="9.00" fill="#555555">ExternalEnterpriseId</text>
<polyline fill="none" stroke="#555555" points="28,-607.5 142,-607.5 "/>
<text text-anchor="middle" x="85" y="-596.3" font-family="Verdana" font-size="9.00" fill="#555555">Created</text>
<polyline fill="none" stroke="#555555" points="28,-589.5 142,-589.5 "/>
<text text-anchor="middle" x="85" y="-578.3" font-family="Verdana" font-size="9.00" fill="#555555">+ CreatedBy</text>
<polyline fill="none" stroke="#555555" points="28,-571.5 142,-571.5 "/>
<text text-anchor="middle" x="85" y="-560.3" font-family="Verdana" font-size="9.00" fill="#555555">Modified</text>
<polyline fill="none" stroke="#555555" points="28,-553.5 142,-553.5 "/>
<text text-anchor="middle" x="85" y="-542.3" font-family="Verdana" font-size="9.00" fill="#555555">+ ModifiedBy</text>
<polyline fill="none" stroke="#555555" points="28,-535.5 142,-535.5 "/>
<text text-anchor="middle" x="85" y="-524.3" font-family="Verdana" font-size="9.00" fill="#555555">Deleted</text>
<polyline fill="none" stroke="#555555" points="28,-517.5 142,-517.5 "/>
<text text-anchor="middle" x="85" y="-506.3" font-family="Verdana" font-size="9.00" fill="#555555">+ DeletedBy</text>
<polyline fill="none" stroke="#555555" points="28,-499.5 142,-499.5 "/>
<text text-anchor="middle" x="85" y="-488.3" font-family="Verdana" font-size="9.00" fill="#555555">RowVersion</text>
<polyline fill="none" stroke="#555555" points="28,-481.5 142,-481.5 "/>
<text text-anchor="middle" x="85" y="-470.3" font-family="Verdana" font-size="9.00" fill="#555555">IsActive</text>
</g>
<!-- struct6&#45;&gt;struct2 -->
<g id="edge2" class="edge">
<title>struct6:c741577680_1&#45;&gt;struct2:c1186103266_2</title>
<path fill="none" stroke="#337ab7" d="M143,-670.5C157.19,-670.5 169.31,-444.85 183.06,-397.25"/>
<polygon fill="#337ab7" stroke="#337ab7" points="186.13,-398.93 188,-388.5 180.04,-395.49 186.13,-398.93"/>
</g>
</g>
</svg>
