<?xml version="1.0" encoding="UTF-8" standalone="no"?>
<!DOCTYPE svg PUBLIC "-//W3C//DTD SVG 1.1//EN"
 "http://www.w3.org/Graphics/SVG/1.1/DTD/svg11.dtd">
<!-- Generated by graphviz version 5.0.0 (20220707.1540)
 -->
<!-- Title: g Pages: 1 -->
<svg width="337pt" height="352pt"
 viewBox="0.00 0.00 337.00 352.00" xmlns="http://www.w3.org/2000/svg" xmlns:xlink="http://www.w3.org/1999/xlink">
<g id="graph0" class="graph" transform="scale(1 1) rotate(0) translate(4 348)">
<title>g</title>
<polygon fill="white" stroke="transparent" points="-4,4 -4,-348 333,-348 333,4 -4,4"/>
<text text-anchor="middle" x="164.5" y="-7" font-family="Verdana" font-size="10.00">Table: DistributionPeriodicities</text>
<!-- struct0 -->
<g id="node1" class="node">
<title>struct0</title>
<polygon fill="#f7f7f9" stroke="#555555" points="0,-217.5 0,-271.5 159,-271.5 159,-217.5 0,-217.5"/>
<text text-anchor="middle" x="79.5" y="-260.3" font-family="Verdana" font-size="9.00" fill="#555555">Table: DistributionPeriodicities</text>
<polyline fill="none" stroke="#555555" points="0,-253.5 159,-253.5 "/>
<text text-anchor="middle" x="79.5" y="-242.3" font-family="Verdana" font-size="9.00" fill="#555555">Id +</text>
<polyline fill="none" stroke="#555555" points="0,-235.5 159,-235.5 "/>
<text text-anchor="middle" x="79.5" y="-224.3" font-family="Verdana" font-size="9.00" fill="#555555">Name</text>
</g>
<!-- struct1 -->
<g id="node2" class="node">
<title>struct1</title>
<polygon fill="#f7f7f9" stroke="#555555" points="177,-19.5 177,-343.5 329,-343.5 329,-19.5 177,-19.5"/>
<text text-anchor="middle" x="253" y="-332.3" font-family="Verdana" font-size="9.00" fill="#555555">Table: DistributionShedules</text>
<polyline fill="none" stroke="#555555" points="177,-325.5 329,-325.5 "/>
<text text-anchor="middle" x="253" y="-314.3" font-family="Verdana" font-size="9.00" fill="#555555">Id +</text>
<polyline fill="none" stroke="#555555" points="177,-307.5 329,-307.5 "/>
<text text-anchor="middle" x="253" y="-296.3" font-family="Verdana" font-size="9.00" fill="#555555">+ EnterpriseId</text>
<polyline fill="none" stroke="#555555" points="177,-289.5 329,-289.5 "/>
<text text-anchor="middle" x="253" y="-278.3" font-family="Verdana" font-size="9.00" fill="#555555">+ DistributionTrackingTypeId</text>
<polyline fill="none" stroke="#555555" points="177,-271.5 329,-271.5 "/>
<text text-anchor="middle" x="253" y="-260.3" font-family="Verdana" font-size="9.00" fill="#555555">+ DistributionDaysTypeId</text>
<polyline fill="none" stroke="#555555" points="177,-253.5 329,-253.5 "/>
<text text-anchor="middle" x="253" y="-242.3" font-family="Verdana" font-size="9.00" fill="#555555">+ DistributionPeriodicityId</text>
<polyline fill="none" stroke="#555555" points="177,-235.5 329,-235.5 "/>
<text text-anchor="middle" x="253" y="-224.3" font-family="Verdana" font-size="9.00" fill="#555555">DaysNumber</text>
<polyline fill="none" stroke="#555555" points="177,-217.5 329,-217.5 "/>
<text text-anchor="middle" x="253" y="-206.3" font-family="Verdana" font-size="9.00" fill="#555555">Name</text>
<polyline fill="none" stroke="#555555" points="177,-199.5 329,-199.5 "/>
<text text-anchor="middle" x="253" y="-188.3" font-family="Verdana" font-size="9.00" fill="#555555">StartDate</text>
<polyline fill="none" stroke="#555555" points="177,-181.5 329,-181.5 "/>
<text text-anchor="middle" x="253" y="-170.3" font-family="Verdana" font-size="9.00" fill="#555555">Remainder</text>
<polyline fill="none" stroke="#555555" points="177,-163.5 329,-163.5 "/>
<text text-anchor="middle" x="253" y="-152.3" font-family="Verdana" font-size="9.00" fill="#555555">Created</text>
<polyline fill="none" stroke="#555555" points="177,-145.5 329,-145.5 "/>
<text text-anchor="middle" x="253" y="-134.3" font-family="Verdana" font-size="9.00" fill="#555555">+ CreatedBy</text>
<polyline fill="none" stroke="#555555" points="177,-127.5 329,-127.5 "/>
<text text-anchor="middle" x="253" y="-116.3" font-family="Verdana" font-size="9.00" fill="#555555">Modified</text>
<polyline fill="none" stroke="#555555" points="177,-109.5 329,-109.5 "/>
<text text-anchor="middle" x="253" y="-98.3" font-family="Verdana" font-size="9.00" fill="#555555">+ ModifiedBy</text>
<polyline fill="none" stroke="#555555" points="177,-91.5 329,-91.5 "/>
<text text-anchor="middle" x="253" y="-80.3" font-family="Verdana" font-size="9.00" fill="#555555">Deleted</text>
<polyline fill="none" stroke="#555555" points="177,-73.5 329,-73.5 "/>
<text text-anchor="middle" x="253" y="-62.3" font-family="Verdana" font-size="9.00" fill="#555555">+ DeletedBy</text>
<polyline fill="none" stroke="#555555" points="177,-55.5 329,-55.5 "/>
<text text-anchor="middle" x="253" y="-44.3" font-family="Verdana" font-size="9.00" fill="#555555">RowVersion</text>
<polyline fill="none" stroke="#555555" points="177,-37.5 329,-37.5 "/>
<text text-anchor="middle" x="253" y="-26.3" font-family="Verdana" font-size="9.00" fill="#555555">IsActive</text>
</g>
<!-- struct0&#45;&gt;struct1 -->
<g id="edge1" class="edge">
<title>struct0:c82099333_1&#45;&gt;struct1:c1186103266_5</title>
<path fill="none" stroke="black" d="M159,-244.5C162.25,-244.5 164.51,-244.5 166.58,-244.5"/>
<polygon fill="black" stroke="black" points="167,-248 177,-244.5 167,-241 167,-248"/>
</g>
</g>
</svg>
