<?xml version="1.0" encoding="UTF-8" standalone="no"?>
<!DOCTYPE svg PUBLIC "-//W3C//DTD SVG 1.1//EN"
 "http://www.w3.org/Graphics/SVG/1.1/DTD/svg11.dtd">
<!-- Generated by graphviz version 5.0.0 (20220707.1540)
 -->
<!-- Title: g Pages: 1 -->
<svg width="294pt" height="271pt"
 viewBox="0.00 0.00 294.00 271.00" xmlns="http://www.w3.org/2000/svg" xmlns:xlink="http://www.w3.org/1999/xlink">
<g id="graph0" class="graph" transform="scale(1 1) rotate(0) translate(4 267)">
<title>g</title>
<polygon fill="white" stroke="transparent" points="-4,4 -4,-267 290,-267 290,4 -4,4"/>
<text text-anchor="middle" x="143" y="-7" font-family="Verdana" font-size="10.00">Table: UserSettings</text>
<!-- struct0 -->
<g id="node1" class="node">
<title>struct0</title>
<polygon fill="#f7f7f9" stroke="#555555" points="0,-19.5 0,-217.5 106,-217.5 106,-19.5 0,-19.5"/>
<text text-anchor="middle" x="53" y="-206.3" font-family="Verdana" font-size="9.00" fill="#555555">Table: Employees</text>
<polyline fill="none" stroke="#555555" points="0,-199.5 106,-199.5 "/>
<text text-anchor="middle" x="53" y="-188.3" font-family="Verdana" font-size="9.00" fill="#555555">Id +</text>
<polyline fill="none" stroke="#555555" points="0,-181.5 106,-181.5 "/>
<text text-anchor="middle" x="53" y="-170.3" font-family="Verdana" font-size="9.00" fill="#555555">ExternalEmploeeId</text>
<polyline fill="none" stroke="#555555" points="0,-163.5 106,-163.5 "/>
<text text-anchor="middle" x="53" y="-152.3" font-family="Verdana" font-size="9.00" fill="#555555">Surname</text>
<polyline fill="none" stroke="#555555" points="0,-145.5 106,-145.5 "/>
<text text-anchor="middle" x="53" y="-134.3" font-family="Verdana" font-size="9.00" fill="#555555">Name</text>
<polyline fill="none" stroke="#555555" points="0,-127.5 106,-127.5 "/>
<text text-anchor="middle" x="53" y="-116.3" font-family="Verdana" font-size="9.00" fill="#555555">MiddleName</text>
<polyline fill="none" stroke="#555555" points="0,-109.5 106,-109.5 "/>
<text text-anchor="middle" x="53" y="-98.3" font-family="Verdana" font-size="9.00" fill="#555555">Email</text>
<polyline fill="none" stroke="#555555" points="0,-91.5 106,-91.5 "/>
<text text-anchor="middle" x="53" y="-80.3" font-family="Verdana" font-size="9.00" fill="#555555">DomainLogin</text>
<polyline fill="none" stroke="#555555" points="0,-73.5 106,-73.5 "/>
<text text-anchor="middle" x="53" y="-62.3" font-family="Verdana" font-size="9.00" fill="#555555">FIO</text>
<polyline fill="none" stroke="#555555" points="0,-55.5 106,-55.5 "/>
<text text-anchor="middle" x="53" y="-44.3" font-family="Verdana" font-size="9.00" fill="#555555">FullName</text>
<polyline fill="none" stroke="#555555" points="0,-37.5 106,-37.5 "/>
<text text-anchor="middle" x="53" y="-26.3" font-family="Verdana" font-size="9.00" fill="#555555">Created</text>
</g>
<!-- struct1 -->
<g id="node2" class="node">
<title>struct1</title>
<polygon fill="#f7f7f9" stroke="#555555" points="124,-118.5 124,-262.5 286,-262.5 286,-118.5 124,-118.5"/>
<text text-anchor="middle" x="205" y="-251.3" font-family="Verdana" font-size="9.00" fill="#555555">Table: UserSettings</text>
<polyline fill="none" stroke="#555555" points="124,-244.5 286,-244.5 "/>
<text text-anchor="middle" x="205" y="-233.3" font-family="Verdana" font-size="9.00" fill="#555555">Id</text>
<polyline fill="none" stroke="#555555" points="124,-226.5 286,-226.5 "/>
<text text-anchor="middle" x="205" y="-215.3" font-family="Verdana" font-size="9.00" fill="#555555">+ EmployeesId</text>
<polyline fill="none" stroke="#555555" points="124,-208.5 286,-208.5 "/>
<text text-anchor="middle" x="205" y="-197.3" font-family="Verdana" font-size="9.00" fill="#555555">IsOpenPageInExternalWindow</text>
<polyline fill="none" stroke="#555555" points="124,-190.5 286,-190.5 "/>
<text text-anchor="middle" x="205" y="-179.3" font-family="Verdana" font-size="9.00" fill="#555555">Created</text>
<polyline fill="none" stroke="#555555" points="124,-172.5 286,-172.5 "/>
<text text-anchor="middle" x="205" y="-161.3" font-family="Verdana" font-size="9.00" fill="#555555">+ CreatedBy</text>
<polyline fill="none" stroke="#555555" points="124,-154.5 286,-154.5 "/>
<text text-anchor="middle" x="205" y="-143.3" font-family="Verdana" font-size="9.00" fill="#555555">RowVersion</text>
<polyline fill="none" stroke="#555555" points="124,-136.5 286,-136.5 "/>
<text text-anchor="middle" x="205" y="-125.3" font-family="Verdana" font-size="9.00" fill="#555555">IsSidebarExpanded</text>
</g>
<!-- struct0&#45;&gt;struct1 -->
<g id="edge1" class="edge">
<title>struct0:c789577851_1&#45;&gt;struct1:c1422628111_2</title>
<path fill="none" stroke="#337ab7" d="M106,-190.5C115.8,-190.5 113.93,-202.97 116.26,-210.96"/>
<polygon fill="#337ab7" stroke="#337ab7" points="114.1,-213.72 124,-217.5 118.62,-208.37 114.1,-213.72"/>
</g>
<!-- struct0&#45;&gt;struct1 -->
<g id="edge2" class="edge">
<title>struct0:c789577851_1&#45;&gt;struct1:c1422628111_5</title>
<path fill="none" stroke="#337ab7" d="M106,-190.5C115.8,-190.5 113.93,-178.03 116.26,-170.04"/>
<polygon fill="#337ab7" stroke="#337ab7" points="118.62,-172.63 124,-163.5 114.1,-167.28 118.62,-172.63"/>
</g>
</g>
</svg>
