<?xml version="1.0" encoding="UTF-8" standalone="no"?>
<!DOCTYPE svg PUBLIC "-//W3C//DTD SVG 1.1//EN"
 "http://www.w3.org/Graphics/SVG/1.1/DTD/svg11.dtd">
<!-- Generated by graphviz version 5.0.0 (20220707.1540)
 -->
<!-- Title: g Pages: 1 -->
<svg width="454pt" height="749pt"
 viewBox="0.00 0.00 454.00 749.00" xmlns="http://www.w3.org/2000/svg" xmlns:xlink="http://www.w3.org/1999/xlink">
<g id="graph0" class="graph" transform="scale(1 1) rotate(0) translate(4 745)">
<title>g</title>
<polygon fill="white" stroke="transparent" points="-4,4 -4,-745 450,-745 450,4 -4,4"/>
<text text-anchor="middle" x="223" y="-7" font-family="Verdana" font-size="10.00">Table: Departments</text>
<!-- struct0 -->
<g id="node1" class="node">
<title>struct0</title>
<polygon fill="#f7f7f9" stroke="#555555" points="124,-307.5 124,-541.5 234,-541.5 234,-307.5 124,-307.5"/>
<text text-anchor="middle" x="179" y="-530.3" font-family="Verdana" font-size="9.00" fill="#555555">Table: Departments</text>
<polyline fill="none" stroke="#555555" points="124,-523.5 234,-523.5 "/>
<text text-anchor="middle" x="179" y="-512.3" font-family="Verdana" font-size="9.00" fill="#555555">Id +</text>
<polyline fill="none" stroke="#555555" points="124,-505.5 234,-505.5 "/>
<text text-anchor="middle" x="179" y="-494.3" font-family="Verdana" font-size="9.00" fill="#555555">+ SegmentId</text>
<polyline fill="none" stroke="#555555" points="124,-487.5 234,-487.5 "/>
<text text-anchor="middle" x="179" y="-476.3" font-family="Verdana" font-size="9.00" fill="#555555">Code</text>
<polyline fill="none" stroke="#555555" points="124,-469.5 234,-469.5 "/>
<text text-anchor="middle" x="179" y="-458.3" font-family="Verdana" font-size="9.00" fill="#555555">Name</text>
<polyline fill="none" stroke="#555555" points="124,-451.5 234,-451.5 "/>
<text text-anchor="middle" x="179" y="-440.3" font-family="Verdana" font-size="9.00" fill="#555555">Created</text>
<polyline fill="none" stroke="#555555" points="124,-433.5 234,-433.5 "/>
<text text-anchor="middle" x="179" y="-422.3" font-family="Verdana" font-size="9.00" fill="#555555">+ CreatedBy</text>
<polyline fill="none" stroke="#555555" points="124,-415.5 234,-415.5 "/>
<text text-anchor="middle" x="179" y="-404.3" font-family="Verdana" font-size="9.00" fill="#555555">Modified</text>
<polyline fill="none" stroke="#555555" points="124,-397.5 234,-397.5 "/>
<text text-anchor="middle" x="179" y="-386.3" font-family="Verdana" font-size="9.00" fill="#555555">+ ModifiedBy</text>
<polyline fill="none" stroke="#555555" points="124,-379.5 234,-379.5 "/>
<text text-anchor="middle" x="179" y="-368.3" font-family="Verdana" font-size="9.00" fill="#555555">Deleted</text>
<polyline fill="none" stroke="#555555" points="124,-361.5 234,-361.5 "/>
<text text-anchor="middle" x="179" y="-350.3" font-family="Verdana" font-size="9.00" fill="#555555">+ DeletedBy</text>
<polyline fill="none" stroke="#555555" points="124,-343.5 234,-343.5 "/>
<text text-anchor="middle" x="179" y="-332.3" font-family="Verdana" font-size="9.00" fill="#555555">RowVersion</text>
<polyline fill="none" stroke="#555555" points="124,-325.5 234,-325.5 "/>
<text text-anchor="middle" x="179" y="-314.3" font-family="Verdana" font-size="9.00" fill="#555555">IsActive</text>
</g>
<!-- struct1 -->
<g id="node2" class="node">
<title>struct1</title>
<polygon fill="#f7f7f9" stroke="#555555" points="252,-452.5 252,-740.5 446,-740.5 446,-452.5 252,-452.5"/>
<text text-anchor="middle" x="349" y="-729.3" font-family="Verdana" font-size="9.00" fill="#555555">Table: DistributionShedulesRecipients</text>
<polyline fill="none" stroke="#555555" points="252,-722.5 446,-722.5 "/>
<text text-anchor="middle" x="349" y="-711.3" font-family="Verdana" font-size="9.00" fill="#555555">Id</text>
<polyline fill="none" stroke="#555555" points="252,-704.5 446,-704.5 "/>
<text text-anchor="middle" x="349" y="-693.3" font-family="Verdana" font-size="9.00" fill="#555555">+ DistributionSheduleId</text>
<polyline fill="none" stroke="#555555" points="252,-686.5 446,-686.5 "/>
<text text-anchor="middle" x="349" y="-675.3" font-family="Verdana" font-size="9.00" fill="#555555">+ AuditedEnterpiseId</text>
<polyline fill="none" stroke="#555555" points="252,-668.5 446,-668.5 "/>
<text text-anchor="middle" x="349" y="-657.3" font-family="Verdana" font-size="9.00" fill="#555555">+ AuditedSegmentId</text>
<polyline fill="none" stroke="#555555" points="252,-650.5 446,-650.5 "/>
<text text-anchor="middle" x="349" y="-639.3" font-family="Verdana" font-size="9.00" fill="#555555">+ AuditedDepartmentId</text>
<polyline fill="none" stroke="#555555" points="252,-632.5 446,-632.5 "/>
<text text-anchor="middle" x="349" y="-621.3" font-family="Verdana" font-size="9.00" fill="#555555">AuditedOrganizationUnitName</text>
<polyline fill="none" stroke="#555555" points="252,-614.5 446,-614.5 "/>
<text text-anchor="middle" x="349" y="-603.3" font-family="Verdana" font-size="9.00" fill="#555555">+ EmployeesWorkPlaceId</text>
<polyline fill="none" stroke="#555555" points="252,-596.5 446,-596.5 "/>
<text text-anchor="middle" x="349" y="-585.3" font-family="Verdana" font-size="9.00" fill="#555555">Created</text>
<polyline fill="none" stroke="#555555" points="252,-578.5 446,-578.5 "/>
<text text-anchor="middle" x="349" y="-567.3" font-family="Verdana" font-size="9.00" fill="#555555">+ CreatedBy</text>
<polyline fill="none" stroke="#555555" points="252,-560.5 446,-560.5 "/>
<text text-anchor="middle" x="349" y="-549.3" font-family="Verdana" font-size="9.00" fill="#555555">Modified</text>
<polyline fill="none" stroke="#555555" points="252,-542.5 446,-542.5 "/>
<text text-anchor="middle" x="349" y="-531.3" font-family="Verdana" font-size="9.00" fill="#555555">+ ModifiedBy</text>
<polyline fill="none" stroke="#555555" points="252,-524.5 446,-524.5 "/>
<text text-anchor="middle" x="349" y="-513.3" font-family="Verdana" font-size="9.00" fill="#555555">Deleted</text>
<polyline fill="none" stroke="#555555" points="252,-506.5 446,-506.5 "/>
<text text-anchor="middle" x="349" y="-495.3" font-family="Verdana" font-size="9.00" fill="#555555">+ DeletedBy</text>
<polyline fill="none" stroke="#555555" points="252,-488.5 446,-488.5 "/>
<text text-anchor="middle" x="349" y="-477.3" font-family="Verdana" font-size="9.00" fill="#555555">RowVersion</text>
<polyline fill="none" stroke="#555555" points="252,-470.5 446,-470.5 "/>
<text text-anchor="middle" x="349" y="-459.3" font-family="Verdana" font-size="9.00" fill="#555555">IsActive</text>
</g>
<!-- struct0&#45;&gt;struct1 -->
<g id="edge1" class="edge">
<title>struct0:c693577509_1&#45;&gt;struct1:c1522104463_5</title>
<path fill="none" stroke="black" d="M234,-514.5C287,-514.5 207.74,-624.27 242.14,-639.7"/>
<polygon fill="black" stroke="black" points="241.53,-643.15 252,-641.5 242.79,-636.27 241.53,-643.15"/>
</g>
<!-- struct3 -->
<g id="node4" class="node">
<title>struct3</title>
<polygon fill="#f7f7f9" stroke="#555555" points="275,-19.5 275,-433.5 423,-433.5 423,-19.5 275,-19.5"/>
<text text-anchor="middle" x="349" y="-422.3" font-family="Verdana" font-size="9.00" fill="#555555">Table: SapToroExtension</text>
<polyline fill="none" stroke="#555555" points="275,-415.5 423,-415.5 "/>
<text text-anchor="middle" x="349" y="-404.3" font-family="Verdana" font-size="9.00" fill="#555555">Id +</text>
<polyline fill="none" stroke="#555555" points="275,-397.5 423,-397.5 "/>
<text text-anchor="middle" x="349" y="-386.3" font-family="Verdana" font-size="9.00" fill="#555555">+ DepartmentId</text>
<polyline fill="none" stroke="#555555" points="275,-379.5 423,-379.5 "/>
<text text-anchor="middle" x="349" y="-368.3" font-family="Verdana" font-size="9.00" fill="#555555">Code</text>
<polyline fill="none" stroke="#555555" points="275,-361.5 423,-361.5 "/>
<text text-anchor="middle" x="349" y="-350.3" font-family="Verdana" font-size="9.00" fill="#555555">Name</text>
<polyline fill="none" stroke="#555555" points="275,-343.5 423,-343.5 "/>
<text text-anchor="middle" x="349" y="-332.3" font-family="Verdana" font-size="9.00" fill="#555555">+ ObjectTypeId</text>
<polyline fill="none" stroke="#555555" points="275,-325.5 423,-325.5 "/>
<text text-anchor="middle" x="349" y="-314.3" font-family="Verdana" font-size="9.00" fill="#555555">TechnologyNumber</text>
<polyline fill="none" stroke="#555555" points="275,-307.5 423,-307.5 "/>
<text text-anchor="middle" x="349" y="-296.3" font-family="Verdana" font-size="9.00" fill="#555555">RegistrationNumber</text>
<polyline fill="none" stroke="#555555" points="275,-289.5 423,-289.5 "/>
<text text-anchor="middle" x="349" y="-278.3" font-family="Verdana" font-size="9.00" fill="#555555">InventoryNumber</text>
<polyline fill="none" stroke="#555555" points="275,-271.5 423,-271.5 "/>
<text text-anchor="middle" x="349" y="-260.3" font-family="Verdana" font-size="9.00" fill="#555555">BeginDate</text>
<polyline fill="none" stroke="#555555" points="275,-253.5 423,-253.5 "/>
<text text-anchor="middle" x="349" y="-242.3" font-family="Verdana" font-size="9.00" fill="#555555">EndDate</text>
<polyline fill="none" stroke="#555555" points="275,-235.5 423,-235.5 "/>
<text text-anchor="middle" x="349" y="-224.3" font-family="Verdana" font-size="9.00" fill="#555555">PrimaryId</text>
<polyline fill="none" stroke="#555555" points="275,-217.5 423,-217.5 "/>
<text text-anchor="middle" x="349" y="-206.3" font-family="Verdana" font-size="9.00" fill="#555555">Created</text>
<polyline fill="none" stroke="#555555" points="275,-199.5 423,-199.5 "/>
<text text-anchor="middle" x="349" y="-188.3" font-family="Verdana" font-size="9.00" fill="#555555">+ CreatedBy</text>
<polyline fill="none" stroke="#555555" points="275,-181.5 423,-181.5 "/>
<text text-anchor="middle" x="349" y="-170.3" font-family="Verdana" font-size="9.00" fill="#555555">Modified</text>
<polyline fill="none" stroke="#555555" points="275,-163.5 423,-163.5 "/>
<text text-anchor="middle" x="349" y="-152.3" font-family="Verdana" font-size="9.00" fill="#555555">+ ModifiedBy</text>
<polyline fill="none" stroke="#555555" points="275,-145.5 423,-145.5 "/>
<text text-anchor="middle" x="349" y="-134.3" font-family="Verdana" font-size="9.00" fill="#555555">Deleted</text>
<polyline fill="none" stroke="#555555" points="275,-127.5 423,-127.5 "/>
<text text-anchor="middle" x="349" y="-116.3" font-family="Verdana" font-size="9.00" fill="#555555">+ DeletedBy</text>
<polyline fill="none" stroke="#555555" points="275,-109.5 423,-109.5 "/>
<text text-anchor="middle" x="349" y="-98.3" font-family="Verdana" font-size="9.00" fill="#555555">RowVersion</text>
<polyline fill="none" stroke="#555555" points="275,-91.5 423,-91.5 "/>
<text text-anchor="middle" x="349" y="-80.3" font-family="Verdana" font-size="9.00" fill="#555555">IsActive</text>
<polyline fill="none" stroke="#555555" points="275,-73.5 423,-73.5 "/>
<text text-anchor="middle" x="349" y="-62.3" font-family="Verdana" font-size="9.00" fill="#555555">+ HPFRegistrationNumberId</text>
<polyline fill="none" stroke="#555555" points="275,-55.5 423,-55.5 "/>
<text text-anchor="middle" x="349" y="-44.3" font-family="Verdana" font-size="9.00" fill="#555555">InServiceDate</text>
<polyline fill="none" stroke="#555555" points="275,-37.5 423,-37.5 "/>
<text text-anchor="middle" x="349" y="-26.3" font-family="Verdana" font-size="9.00" fill="#555555">+ ObjectsCategoryId</text>
</g>
<!-- struct0&#45;&gt;struct3 -->
<g id="edge2" class="edge">
<title>struct0:c693577509_1&#45;&gt;struct3:c1938105945_2</title>
<path fill="none" stroke="black" d="M234,-514.5C266.55,-514.5 241.93,-474.46 252,-443.5 258.81,-422.57 251.21,-398.2 263.91,-390.77"/>
<polygon fill="black" stroke="black" points="265.01,-394.11 274,-388.5 263.48,-387.28 265.01,-394.11"/>
</g>
<!-- struct2 -->
<g id="node3" class="node">
<title>struct2</title>
<polygon fill="#f7f7f9" stroke="#555555" points="0,-199.5 0,-397.5 106,-397.5 106,-199.5 0,-199.5"/>
<text text-anchor="middle" x="53" y="-386.3" font-family="Verdana" font-size="9.00" fill="#555555">Table: Employees</text>
<polyline fill="none" stroke="#555555" points="0,-379.5 106,-379.5 "/>
<text text-anchor="middle" x="53" y="-368.3" font-family="Verdana" font-size="9.00" fill="#555555">Id +</text>
<polyline fill="none" stroke="#555555" points="0,-361.5 106,-361.5 "/>
<text text-anchor="middle" x="53" y="-350.3" font-family="Verdana" font-size="9.00" fill="#555555">ExternalEmploeeId</text>
<polyline fill="none" stroke="#555555" points="0,-343.5 106,-343.5 "/>
<text text-anchor="middle" x="53" y="-332.3" font-family="Verdana" font-size="9.00" fill="#555555">Surname</text>
<polyline fill="none" stroke="#555555" points="0,-325.5 106,-325.5 "/>
<text text-anchor="middle" x="53" y="-314.3" font-family="Verdana" font-size="9.00" fill="#555555">Name</text>
<polyline fill="none" stroke="#555555" points="0,-307.5 106,-307.5 "/>
<text text-anchor="middle" x="53" y="-296.3" font-family="Verdana" font-size="9.00" fill="#555555">MiddleName</text>
<polyline fill="none" stroke="#555555" points="0,-289.5 106,-289.5 "/>
<text text-anchor="middle" x="53" y="-278.3" font-family="Verdana" font-size="9.00" fill="#555555">Email</text>
<polyline fill="none" stroke="#555555" points="0,-271.5 106,-271.5 "/>
<text text-anchor="middle" x="53" y="-260.3" font-family="Verdana" font-size="9.00" fill="#555555">DomainLogin</text>
<polyline fill="none" stroke="#555555" points="0,-253.5 106,-253.5 "/>
<text text-anchor="middle" x="53" y="-242.3" font-family="Verdana" font-size="9.00" fill="#555555">FIO</text>
<polyline fill="none" stroke="#555555" points="0,-235.5 106,-235.5 "/>
<text text-anchor="middle" x="53" y="-224.3" font-family="Verdana" font-size="9.00" fill="#555555">FullName</text>
<polyline fill="none" stroke="#555555" points="0,-217.5 106,-217.5 "/>
<text text-anchor="middle" x="53" y="-206.3" font-family="Verdana" font-size="9.00" fill="#555555">Created</text>
</g>
<!-- struct2&#45;&gt;struct0 -->
<g id="edge4" class="edge">
<title>struct2:c789577851_1&#45;&gt;struct0:c693577509_6</title>
<path fill="none" stroke="#337ab7" d="M106,-370.5C126.55,-370.5 108.89,-406.15 115.11,-419.52"/>
<polygon fill="#337ab7" stroke="#337ab7" points="113.57,-422.66 124,-424.5 116.99,-416.56 113.57,-422.66"/>
</g>
<!-- struct2&#45;&gt;struct0 -->
<g id="edge5" class="edge">
<title>struct2:c789577851_1&#45;&gt;struct0:c693577509_8</title>
<path fill="none" stroke="#337ab7" d="M106,-370.5C112.72,-370.5 113.82,-376.85 115.97,-382"/>
<polygon fill="#337ab7" stroke="#337ab7" points="114.02,-384.93 124,-388.5 118.43,-379.49 114.02,-384.93"/>
</g>
<!-- struct2&#45;&gt;struct0 -->
<g id="edge6" class="edge">
<title>struct2:c789577851_1&#45;&gt;struct0:c693577509_10</title>
<path fill="none" stroke="#337ab7" d="M106,-370.5C112.72,-370.5 113.82,-364.15 115.97,-359"/>
<polygon fill="#337ab7" stroke="#337ab7" points="118.43,-361.51 124,-352.5 114.02,-356.07 118.43,-361.51"/>
</g>
<!-- struct4 -->
<g id="node5" class="node">
<title>struct4</title>
<polygon fill="#f7f7f9" stroke="#555555" points="5,-416.5 5,-650.5 101,-650.5 101,-416.5 5,-416.5"/>
<text text-anchor="middle" x="53" y="-639.3" font-family="Verdana" font-size="9.00" fill="#555555">Table: Segments</text>
<polyline fill="none" stroke="#555555" points="5,-632.5 101,-632.5 "/>
<text text-anchor="middle" x="53" y="-621.3" font-family="Verdana" font-size="9.00" fill="#555555">Id +</text>
<polyline fill="none" stroke="#555555" points="5,-614.5 101,-614.5 "/>
<text text-anchor="middle" x="53" y="-603.3" font-family="Verdana" font-size="9.00" fill="#555555">+ EnterpriseId</text>
<polyline fill="none" stroke="#555555" points="5,-596.5 101,-596.5 "/>
<text text-anchor="middle" x="53" y="-585.3" font-family="Verdana" font-size="9.00" fill="#555555">Code</text>
<polyline fill="none" stroke="#555555" points="5,-578.5 101,-578.5 "/>
<text text-anchor="middle" x="53" y="-567.3" font-family="Verdana" font-size="9.00" fill="#555555">Name</text>
<polyline fill="none" stroke="#555555" points="5,-560.5 101,-560.5 "/>
<text text-anchor="middle" x="53" y="-549.3" font-family="Verdana" font-size="9.00" fill="#555555">Created</text>
<polyline fill="none" stroke="#555555" points="5,-542.5 101,-542.5 "/>
<text text-anchor="middle" x="53" y="-531.3" font-family="Verdana" font-size="9.00" fill="#555555">+ CreatedBy</text>
<polyline fill="none" stroke="#555555" points="5,-524.5 101,-524.5 "/>
<text text-anchor="middle" x="53" y="-513.3" font-family="Verdana" font-size="9.00" fill="#555555">Modified</text>
<polyline fill="none" stroke="#555555" points="5,-506.5 101,-506.5 "/>
<text text-anchor="middle" x="53" y="-495.3" font-family="Verdana" font-size="9.00" fill="#555555">+ ModifiedBy</text>
<polyline fill="none" stroke="#555555" points="5,-488.5 101,-488.5 "/>
<text text-anchor="middle" x="53" y="-477.3" font-family="Verdana" font-size="9.00" fill="#555555">Deleted</text>
<polyline fill="none" stroke="#555555" points="5,-470.5 101,-470.5 "/>
<text text-anchor="middle" x="53" y="-459.3" font-family="Verdana" font-size="9.00" fill="#555555">+ DeletedBy</text>
<polyline fill="none" stroke="#555555" points="5,-452.5 101,-452.5 "/>
<text text-anchor="middle" x="53" y="-441.3" font-family="Verdana" font-size="9.00" fill="#555555">RowVersion</text>
<polyline fill="none" stroke="#555555" points="5,-434.5 101,-434.5 "/>
<text text-anchor="middle" x="53" y="-423.3" font-family="Verdana" font-size="9.00" fill="#555555">IsActive</text>
</g>
<!-- struct4&#45;&gt;struct0 -->
<g id="edge3" class="edge">
<title>struct4:c645577338_1&#45;&gt;struct0:c693577509_2</title>
<path fill="none" stroke="#337ab7" d="M102,-623.5C155.26,-623.5 78.99,-513.73 114.03,-498.3"/>
<polygon fill="#337ab7" stroke="#337ab7" points="114.78,-501.72 124,-496.5 113.54,-494.83 114.78,-501.72"/>
</g>
</g>
</svg>
