<?xml version="1.0" encoding="UTF-8" standalone="no"?>
<!DOCTYPE svg PUBLIC "-//W3C//DTD SVG 1.1//EN"
 "http://www.w3.org/Graphics/SVG/1.1/DTD/svg11.dtd">
<!-- Generated by graphviz version 5.0.0 (20220707.1540)
 -->
<!-- Title: g Pages: 1 -->
<svg width="649pt" height="1473pt"
 viewBox="0.00 0.00 649.00 1473.00" xmlns="http://www.w3.org/2000/svg" xmlns:xlink="http://www.w3.org/1999/xlink">
<g id="graph0" class="graph" transform="scale(1 1) rotate(0) translate(4 1469)">
<title>g</title>
<polygon fill="white" stroke="transparent" points="-4,4 -4,-1469 645,-1469 645,4 -4,4"/>
<text text-anchor="middle" x="320.5" y="-7" font-family="Verdana" font-size="10.00">Table: ExaminationsActivities</text>
<!-- struct0 -->
<g id="node1" class="node">
<title>struct0</title>
<polygon fill="#f7f7f9" stroke="#555555" points="468.5,-1058.5 468.5,-1274.5 600.5,-1274.5 600.5,-1058.5 468.5,-1058.5"/>
<text text-anchor="middle" x="534.5" y="-1263.3" font-family="Verdana" font-size="9.00" fill="#555555">Table: AnnualBudgets</text>
<polyline fill="none" stroke="#555555" points="468.5,-1256.5 600.5,-1256.5 "/>
<text text-anchor="middle" x="534.5" y="-1245.3" font-family="Verdana" font-size="9.00" fill="#555555">Id</text>
<polyline fill="none" stroke="#555555" points="468.5,-1238.5 600.5,-1238.5 "/>
<text text-anchor="middle" x="534.5" y="-1227.3" font-family="Verdana" font-size="9.00" fill="#555555">+ ExaminationsActivityId</text>
<polyline fill="none" stroke="#555555" points="468.5,-1220.5 600.5,-1220.5 "/>
<text text-anchor="middle" x="534.5" y="-1209.3" font-family="Verdana" font-size="9.00" fill="#555555">Year</text>
<polyline fill="none" stroke="#555555" points="468.5,-1202.5 600.5,-1202.5 "/>
<text text-anchor="middle" x="534.5" y="-1191.3" font-family="Verdana" font-size="9.00" fill="#555555">Budget4CIW</text>
<polyline fill="none" stroke="#555555" points="468.5,-1184.5 600.5,-1184.5 "/>
<text text-anchor="middle" x="534.5" y="-1173.3" font-family="Verdana" font-size="9.00" fill="#555555">Budget4Inventory</text>
<polyline fill="none" stroke="#555555" points="468.5,-1166.5 600.5,-1166.5 "/>
<text text-anchor="middle" x="534.5" y="-1155.3" font-family="Verdana" font-size="9.00" fill="#555555">Created</text>
<polyline fill="none" stroke="#555555" points="468.5,-1148.5 600.5,-1148.5 "/>
<text text-anchor="middle" x="534.5" y="-1137.3" font-family="Verdana" font-size="9.00" fill="#555555">+ CreatedBy</text>
<polyline fill="none" stroke="#555555" points="468.5,-1130.5 600.5,-1130.5 "/>
<text text-anchor="middle" x="534.5" y="-1119.3" font-family="Verdana" font-size="9.00" fill="#555555">RowVersion</text>
<polyline fill="none" stroke="#555555" points="468.5,-1112.5 600.5,-1112.5 "/>
<text text-anchor="middle" x="534.5" y="-1101.3" font-family="Verdana" font-size="9.00" fill="#555555">Modified</text>
<polyline fill="none" stroke="#555555" points="468.5,-1094.5 600.5,-1094.5 "/>
<text text-anchor="middle" x="534.5" y="-1083.3" font-family="Verdana" font-size="9.00" fill="#555555">+ ModifiedBy</text>
<polyline fill="none" stroke="#555555" points="468.5,-1076.5 600.5,-1076.5 "/>
<text text-anchor="middle" x="534.5" y="-1065.3" font-family="Verdana" font-size="9.00" fill="#555555">TotalBudget</text>
</g>
<!-- struct1 -->
<g id="node2" class="node">
<title>struct1</title>
<polygon fill="#f7f7f9" stroke="#555555" points="29,-218.5 29,-380.5 169,-380.5 169,-218.5 29,-218.5"/>
<text text-anchor="middle" x="99" y="-369.3" font-family="Verdana" font-size="9.00" fill="#555555">Table: DangersCategories</text>
<polyline fill="none" stroke="#555555" points="29,-362.5 169,-362.5 "/>
<text text-anchor="middle" x="99" y="-351.3" font-family="Verdana" font-size="9.00" fill="#555555">Id +</text>
<polyline fill="none" stroke="#555555" points="29,-344.5 169,-344.5 "/>
<text text-anchor="middle" x="99" y="-333.3" font-family="Verdana" font-size="9.00" fill="#555555">Name</text>
<polyline fill="none" stroke="#555555" points="29,-326.5 169,-326.5 "/>
<text text-anchor="middle" x="99" y="-315.3" font-family="Verdana" font-size="9.00" fill="#555555">IsActive</text>
<polyline fill="none" stroke="#555555" points="29,-308.5 169,-308.5 "/>
<text text-anchor="middle" x="99" y="-297.3" font-family="Verdana" font-size="9.00" fill="#555555">Created</text>
<polyline fill="none" stroke="#555555" points="29,-290.5 169,-290.5 "/>
<text text-anchor="middle" x="99" y="-279.3" font-family="Verdana" font-size="9.00" fill="#555555">+ CreatedBy</text>
<polyline fill="none" stroke="#555555" points="29,-272.5 169,-272.5 "/>
<text text-anchor="middle" x="99" y="-261.3" font-family="Verdana" font-size="9.00" fill="#555555">Modified</text>
<polyline fill="none" stroke="#555555" points="29,-254.5 169,-254.5 "/>
<text text-anchor="middle" x="99" y="-243.3" font-family="Verdana" font-size="9.00" fill="#555555">+ ModifiedBy</text>
<polyline fill="none" stroke="#555555" points="29,-236.5 169,-236.5 "/>
<text text-anchor="middle" x="99" y="-225.3" font-family="Verdana" font-size="9.00" fill="#555555">RowVersion</text>
</g>
<!-- struct5 -->
<g id="node6" class="node">
<title>struct5</title>
<polygon fill="#f7f7f9" stroke="#555555" points="216,-318.5 216,-822.5 410,-822.5 410,-318.5 216,-318.5"/>
<text text-anchor="middle" x="313" y="-811.3" font-family="Verdana" font-size="9.00" fill="#555555">Table: ExaminationsActivities</text>
<polyline fill="none" stroke="#555555" points="216,-804.5 410,-804.5 "/>
<text text-anchor="middle" x="313" y="-793.3" font-family="Verdana" font-size="9.00" fill="#555555">Id +</text>
<polyline fill="none" stroke="#555555" points="216,-786.5 410,-786.5 "/>
<text text-anchor="middle" x="313" y="-775.3" font-family="Verdana" font-size="9.00" fill="#555555">+ ExaminationId</text>
<polyline fill="none" stroke="#555555" points="216,-768.5 410,-768.5 "/>
<text text-anchor="middle" x="313" y="-757.3" font-family="Verdana" font-size="9.00" fill="#555555">SeqNumber</text>
<polyline fill="none" stroke="#555555" points="216,-750.5 410,-750.5 "/>
<text text-anchor="middle" x="313" y="-739.3" font-family="Verdana" font-size="9.00" fill="#555555">Description</text>
<polyline fill="none" stroke="#555555" points="216,-732.5 410,-732.5 "/>
<text text-anchor="middle" x="313" y="-721.3" font-family="Verdana" font-size="9.00" fill="#555555">+ ExecutorId</text>
<polyline fill="none" stroke="#555555" points="216,-714.5 410,-714.5 "/>
<text text-anchor="middle" x="313" y="-703.3" font-family="Verdana" font-size="9.00" fill="#555555">PlanDate</text>
<polyline fill="none" stroke="#555555" points="216,-696.5 410,-696.5 "/>
<text text-anchor="middle" x="313" y="-685.3" font-family="Verdana" font-size="9.00" fill="#555555">FactDate</text>
<polyline fill="none" stroke="#555555" points="216,-678.5 410,-678.5 "/>
<text text-anchor="middle" x="313" y="-667.3" font-family="Verdana" font-size="9.00" fill="#555555">+ ExecutionStatusId</text>
<polyline fill="none" stroke="#555555" points="216,-660.5 410,-660.5 "/>
<text text-anchor="middle" x="313" y="-649.3" font-family="Verdana" font-size="9.00" fill="#555555">IsIncludedInBudget</text>
<polyline fill="none" stroke="#555555" points="216,-642.5 410,-642.5 "/>
<text text-anchor="middle" x="313" y="-631.3" font-family="Verdana" font-size="9.00" fill="#555555">CheckingStatus</text>
<polyline fill="none" stroke="#555555" points="216,-624.5 410,-624.5 "/>
<text text-anchor="middle" x="313" y="-613.3" font-family="Verdana" font-size="9.00" fill="#555555">Created</text>
<polyline fill="none" stroke="#555555" points="216,-606.5 410,-606.5 "/>
<text text-anchor="middle" x="313" y="-595.3" font-family="Verdana" font-size="9.00" fill="#555555">+ CreatedBy</text>
<polyline fill="none" stroke="#555555" points="216,-588.5 410,-588.5 "/>
<text text-anchor="middle" x="313" y="-577.3" font-family="Verdana" font-size="9.00" fill="#555555">Modified</text>
<polyline fill="none" stroke="#555555" points="216,-570.5 410,-570.5 "/>
<text text-anchor="middle" x="313" y="-559.3" font-family="Verdana" font-size="9.00" fill="#555555">+ ModifiedBy</text>
<polyline fill="none" stroke="#555555" points="216,-552.5 410,-552.5 "/>
<text text-anchor="middle" x="313" y="-541.3" font-family="Verdana" font-size="9.00" fill="#555555">Deleted</text>
<polyline fill="none" stroke="#555555" points="216,-534.5 410,-534.5 "/>
<text text-anchor="middle" x="313" y="-523.3" font-family="Verdana" font-size="9.00" fill="#555555">+ DeletedBy</text>
<polyline fill="none" stroke="#555555" points="216,-516.5 410,-516.5 "/>
<text text-anchor="middle" x="313" y="-505.3" font-family="Verdana" font-size="9.00" fill="#555555">+ DangersCategoryId</text>
<polyline fill="none" stroke="#555555" points="216,-498.5 410,-498.5 "/>
<text text-anchor="middle" x="313" y="-487.3" font-family="Verdana" font-size="9.00" fill="#555555">+ MeasuresUnitId</text>
<polyline fill="none" stroke="#555555" points="216,-480.5 410,-480.5 "/>
<text text-anchor="middle" x="313" y="-469.3" font-family="Verdana" font-size="9.00" fill="#555555">RowVersion</text>
<polyline fill="none" stroke="#555555" points="216,-462.5 410,-462.5 "/>
<text text-anchor="middle" x="313" y="-451.3" font-family="Verdana" font-size="9.00" fill="#555555">IsActive</text>
<polyline fill="none" stroke="#555555" points="216,-444.5 410,-444.5 "/>
<text text-anchor="middle" x="313" y="-433.3" font-family="Verdana" font-size="9.00" fill="#555555">DamagesDescription</text>
<polyline fill="none" stroke="#555555" points="216,-426.5 410,-426.5 "/>
<text text-anchor="middle" x="313" y="-415.3" font-family="Verdana" font-size="9.00" fill="#555555">DamagesVolume</text>
<polyline fill="none" stroke="#555555" points="216,-408.5 410,-408.5 "/>
<text text-anchor="middle" x="313" y="-397.3" font-family="Verdana" font-size="9.00" fill="#555555">IsDefectListsDevelopmentRequired</text>
<polyline fill="none" stroke="#555555" points="216,-390.5 410,-390.5 "/>
<text text-anchor="middle" x="313" y="-379.3" font-family="Verdana" font-size="9.00" fill="#555555">IsSpecificationsDevelopmentRequired</text>
<polyline fill="none" stroke="#555555" points="216,-372.5 410,-372.5 "/>
<text text-anchor="middle" x="313" y="-361.3" font-family="Verdana" font-size="9.00" fill="#555555">RequiredBudget4CIW</text>
<polyline fill="none" stroke="#555555" points="216,-354.5 410,-354.5 "/>
<text text-anchor="middle" x="313" y="-343.3" font-family="Verdana" font-size="9.00" fill="#555555">RequiredBudget4Inventory</text>
<polyline fill="none" stroke="#555555" points="216,-336.5 410,-336.5 "/>
<text text-anchor="middle" x="313" y="-325.3" font-family="Verdana" font-size="9.00" fill="#555555">TotalRequiredBudget</text>
</g>
<!-- struct1&#45;&gt;struct5 -->
<g id="edge12" class="edge">
<title>struct1:c766625774_1&#45;&gt;struct5:c1045578763_20</title>
<path fill="none" stroke="#337ab7" d="M170,-353.5C190.62,-353.5 189.96,-371.51 198,-390.5 206.81,-411.32 194.34,-482.76 207.36,-502.44"/>
<polygon fill="#337ab7" stroke="#337ab7" points="205.6,-505.47 216,-507.5 209.14,-499.43 205.6,-505.47"/>
</g>
<!-- struct2 -->
<g id="node3" class="node">
<title>struct2</title>
<polygon fill="#f7f7f9" stroke="#555555" points="46,-399.5 46,-597.5 152,-597.5 152,-399.5 46,-399.5"/>
<text text-anchor="middle" x="99" y="-586.3" font-family="Verdana" font-size="9.00" fill="#555555">Table: Employees</text>
<polyline fill="none" stroke="#555555" points="46,-579.5 152,-579.5 "/>
<text text-anchor="middle" x="99" y="-568.3" font-family="Verdana" font-size="9.00" fill="#555555">Id +</text>
<polyline fill="none" stroke="#555555" points="46,-561.5 152,-561.5 "/>
<text text-anchor="middle" x="99" y="-550.3" font-family="Verdana" font-size="9.00" fill="#555555">ExternalEmploeeId</text>
<polyline fill="none" stroke="#555555" points="46,-543.5 152,-543.5 "/>
<text text-anchor="middle" x="99" y="-532.3" font-family="Verdana" font-size="9.00" fill="#555555">Surname</text>
<polyline fill="none" stroke="#555555" points="46,-525.5 152,-525.5 "/>
<text text-anchor="middle" x="99" y="-514.3" font-family="Verdana" font-size="9.00" fill="#555555">Name</text>
<polyline fill="none" stroke="#555555" points="46,-507.5 152,-507.5 "/>
<text text-anchor="middle" x="99" y="-496.3" font-family="Verdana" font-size="9.00" fill="#555555">MiddleName</text>
<polyline fill="none" stroke="#555555" points="46,-489.5 152,-489.5 "/>
<text text-anchor="middle" x="99" y="-478.3" font-family="Verdana" font-size="9.00" fill="#555555">Email</text>
<polyline fill="none" stroke="#555555" points="46,-471.5 152,-471.5 "/>
<text text-anchor="middle" x="99" y="-460.3" font-family="Verdana" font-size="9.00" fill="#555555">DomainLogin</text>
<polyline fill="none" stroke="#555555" points="46,-453.5 152,-453.5 "/>
<text text-anchor="middle" x="99" y="-442.3" font-family="Verdana" font-size="9.00" fill="#555555">FIO</text>
<polyline fill="none" stroke="#555555" points="46,-435.5 152,-435.5 "/>
<text text-anchor="middle" x="99" y="-424.3" font-family="Verdana" font-size="9.00" fill="#555555">FullName</text>
<polyline fill="none" stroke="#555555" points="46,-417.5 152,-417.5 "/>
<text text-anchor="middle" x="99" y="-406.3" font-family="Verdana" font-size="9.00" fill="#555555">Created</text>
</g>
<!-- struct2&#45;&gt;struct5 -->
<g id="edge9" class="edge">
<title>struct2:c789577851_1&#45;&gt;struct5:c1045578763_13</title>
<path fill="none" stroke="#337ab7" d="M153,-570.5C179.66,-570.5 184.57,-591.17 205.8,-596.34"/>
<polygon fill="#337ab7" stroke="#337ab7" points="205.67,-599.85 216,-597.5 206.46,-592.89 205.67,-599.85"/>
</g>
<!-- struct2&#45;&gt;struct5 -->
<g id="edge10" class="edge">
<title>struct2:c789577851_1&#45;&gt;struct5:c1045578763_15</title>
<path fill="none" stroke="#337ab7" d="M153,-570.5C177.53,-570.5 185.62,-563.73 205.78,-561.93"/>
<polygon fill="#337ab7" stroke="#337ab7" points="206.16,-565.42 216,-561.5 205.86,-558.43 206.16,-565.42"/>
</g>
<!-- struct2&#45;&gt;struct5 -->
<g id="edge11" class="edge">
<title>struct2:c789577851_1&#45;&gt;struct5:c1045578763_17</title>
<path fill="none" stroke="#337ab7" d="M153,-570.5C183.65,-570.5 182.38,-534.81 206.05,-527"/>
<polygon fill="#337ab7" stroke="#337ab7" points="206.63,-530.45 216,-525.5 205.59,-523.53 206.63,-530.45"/>
</g>
<!-- struct3 -->
<g id="node4" class="node">
<title>struct3</title>
<polygon fill="#f7f7f9" stroke="#555555" points="0,-707.5 0,-1067.5 198,-1067.5 198,-707.5 0,-707.5"/>
<text text-anchor="middle" x="99" y="-1056.3" font-family="Verdana" font-size="9.00" fill="#555555">Table: EmployeeWorkPlaces</text>
<polyline fill="none" stroke="#555555" points="0,-1049.5 198,-1049.5 "/>
<text text-anchor="middle" x="99" y="-1038.3" font-family="Verdana" font-size="9.00" fill="#555555">Id +</text>
<polyline fill="none" stroke="#555555" points="0,-1031.5 198,-1031.5 "/>
<text text-anchor="middle" x="99" y="-1020.3" font-family="Verdana" font-size="9.00" fill="#555555">+ EmployeeId</text>
<polyline fill="none" stroke="#555555" points="0,-1013.5 198,-1013.5 "/>
<text text-anchor="middle" x="99" y="-1002.3" font-family="Verdana" font-size="9.00" fill="#555555">ExternalEmployeeId</text>
<polyline fill="none" stroke="#555555" points="0,-995.5 198,-995.5 "/>
<text text-anchor="middle" x="99" y="-984.3" font-family="Verdana" font-size="9.00" fill="#555555">ExternalPersonnelCode</text>
<polyline fill="none" stroke="#555555" points="0,-977.5 198,-977.5 "/>
<text text-anchor="middle" x="99" y="-966.3" font-family="Verdana" font-size="9.00" fill="#555555">ExternalEmployeeWorkPlaceId</text>
<polyline fill="none" stroke="#555555" points="0,-959.5 198,-959.5 "/>
<text text-anchor="middle" x="99" y="-948.3" font-family="Verdana" font-size="9.00" fill="#555555">ExternalJobTitleId</text>
<polyline fill="none" stroke="#555555" points="0,-941.5 198,-941.5 "/>
<text text-anchor="middle" x="99" y="-930.3" font-family="Verdana" font-size="9.00" fill="#555555">ExternalJobTitleName</text>
<polyline fill="none" stroke="#555555" points="0,-923.5 198,-923.5 "/>
<text text-anchor="middle" x="99" y="-912.3" font-family="Verdana" font-size="9.00" fill="#555555">ExternalWorkplaceCode</text>
<polyline fill="none" stroke="#555555" points="0,-905.5 198,-905.5 "/>
<text text-anchor="middle" x="99" y="-894.3" font-family="Verdana" font-size="9.00" fill="#555555">ExternalWorkPlaceName</text>
<polyline fill="none" stroke="#555555" points="0,-887.5 198,-887.5 "/>
<text text-anchor="middle" x="99" y="-876.3" font-family="Verdana" font-size="9.00" fill="#555555">ExternalOrganizationUnitId</text>
<polyline fill="none" stroke="#555555" points="0,-869.5 198,-869.5 "/>
<text text-anchor="middle" x="99" y="-858.3" font-family="Verdana" font-size="9.00" fill="#555555">ExternalOrganizationUnitName</text>
<polyline fill="none" stroke="#555555" points="0,-851.5 198,-851.5 "/>
<text text-anchor="middle" x="99" y="-840.3" font-family="Verdana" font-size="9.00" fill="#555555">ExternalParentOrganizationUnitName</text>
<polyline fill="none" stroke="#555555" points="0,-833.5 198,-833.5 "/>
<text text-anchor="middle" x="99" y="-822.3" font-family="Verdana" font-size="9.00" fill="#555555">ExternalAuditedOrganizationUnitName</text>
<polyline fill="none" stroke="#555555" points="0,-815.5 198,-815.5 "/>
<text text-anchor="middle" x="99" y="-804.3" font-family="Verdana" font-size="9.00" fill="#555555">ExternalIsOutside</text>
<polyline fill="none" stroke="#555555" points="0,-797.5 198,-797.5 "/>
<text text-anchor="middle" x="99" y="-786.3" font-family="Verdana" font-size="9.00" fill="#555555">ExternalOrganizationUnitFullName</text>
<polyline fill="none" stroke="#555555" points="0,-779.5 198,-779.5 "/>
<text text-anchor="middle" x="99" y="-768.3" font-family="Verdana" font-size="9.00" fill="#555555">ExternalEnterpriseId</text>
<polyline fill="none" stroke="#555555" points="0,-761.5 198,-761.5 "/>
<text text-anchor="middle" x="99" y="-750.3" font-family="Verdana" font-size="9.00" fill="#555555">Created</text>
<polyline fill="none" stroke="#555555" points="0,-743.5 198,-743.5 "/>
<text text-anchor="middle" x="99" y="-732.3" font-family="Verdana" font-size="9.00" fill="#555555">+ CreatedBy</text>
<polyline fill="none" stroke="#555555" points="0,-725.5 198,-725.5 "/>
<text text-anchor="middle" x="99" y="-714.3" font-family="Verdana" font-size="9.00" fill="#555555">RowVersion</text>
</g>
<!-- struct3&#45;&gt;struct5 -->
<g id="edge7" class="edge">
<title>struct3:c1714105147_1&#45;&gt;struct5:c1045578763_5</title>
<path fill="none" stroke="#337ab7" d="M198,-1040.5C335.4,-1040.5 88.54,-740 205.67,-724.15"/>
<polygon fill="#337ab7" stroke="#337ab7" points="206.24,-727.62 216,-723.5 205.8,-720.63 206.24,-727.62"/>
</g>
<!-- struct4 -->
<g id="node5" class="node">
<title>struct4</title>
<polygon fill="#f7f7f9" stroke="#555555" points="21.5,-1086.5 21.5,-1464.5 176.5,-1464.5 176.5,-1086.5 21.5,-1086.5"/>
<text text-anchor="middle" x="99" y="-1453.3" font-family="Verdana" font-size="9.00" fill="#555555">Table: Examinations</text>
<polyline fill="none" stroke="#555555" points="21.5,-1446.5 176.5,-1446.5 "/>
<text text-anchor="middle" x="99" y="-1435.3" font-family="Verdana" font-size="9.00" fill="#555555">Id +</text>
<polyline fill="none" stroke="#555555" points="21.5,-1428.5 176.5,-1428.5 "/>
<text text-anchor="middle" x="99" y="-1417.3" font-family="Verdana" font-size="9.00" fill="#555555">+ ObjectsCardId</text>
<polyline fill="none" stroke="#555555" points="21.5,-1410.5 176.5,-1410.5 "/>
<text text-anchor="middle" x="99" y="-1399.3" font-family="Verdana" font-size="9.00" fill="#555555">PlanDate</text>
<polyline fill="none" stroke="#555555" points="21.5,-1392.5 176.5,-1392.5 "/>
<text text-anchor="middle" x="99" y="-1381.3" font-family="Verdana" font-size="9.00" fill="#555555">FactDate</text>
<polyline fill="none" stroke="#555555" points="21.5,-1374.5 176.5,-1374.5 "/>
<text text-anchor="middle" x="99" y="-1363.3" font-family="Verdana" font-size="9.00" fill="#555555">ConclusionsNumber</text>
<polyline fill="none" stroke="#555555" points="21.5,-1356.5 176.5,-1356.5 "/>
<text text-anchor="middle" x="99" y="-1345.3" font-family="Verdana" font-size="9.00" fill="#555555">NextPlanDate</text>
<polyline fill="none" stroke="#555555" points="21.5,-1338.5 176.5,-1338.5 "/>
<text text-anchor="middle" x="99" y="-1327.3" font-family="Verdana" font-size="9.00" fill="#555555">Created</text>
<polyline fill="none" stroke="#555555" points="21.5,-1320.5 176.5,-1320.5 "/>
<text text-anchor="middle" x="99" y="-1309.3" font-family="Verdana" font-size="9.00" fill="#555555">+ CreatedBy</text>
<polyline fill="none" stroke="#555555" points="21.5,-1302.5 176.5,-1302.5 "/>
<text text-anchor="middle" x="99" y="-1291.3" font-family="Verdana" font-size="9.00" fill="#555555">Modified</text>
<polyline fill="none" stroke="#555555" points="21.5,-1284.5 176.5,-1284.5 "/>
<text text-anchor="middle" x="99" y="-1273.3" font-family="Verdana" font-size="9.00" fill="#555555">+ ModifiedBy</text>
<polyline fill="none" stroke="#555555" points="21.5,-1266.5 176.5,-1266.5 "/>
<text text-anchor="middle" x="99" y="-1255.3" font-family="Verdana" font-size="9.00" fill="#555555">Deleted</text>
<polyline fill="none" stroke="#555555" points="21.5,-1248.5 176.5,-1248.5 "/>
<text text-anchor="middle" x="99" y="-1237.3" font-family="Verdana" font-size="9.00" fill="#555555">+ DeletedBy</text>
<polyline fill="none" stroke="#555555" points="21.5,-1230.5 176.5,-1230.5 "/>
<text text-anchor="middle" x="99" y="-1219.3" font-family="Verdana" font-size="9.00" fill="#555555">RowVersion</text>
<polyline fill="none" stroke="#555555" points="21.5,-1212.5 176.5,-1212.5 "/>
<text text-anchor="middle" x="99" y="-1201.3" font-family="Verdana" font-size="9.00" fill="#555555">IsActive</text>
<polyline fill="none" stroke="#555555" points="21.5,-1194.5 176.5,-1194.5 "/>
<text text-anchor="middle" x="99" y="-1183.3" font-family="Verdana" font-size="9.00" fill="#555555">IsInOperatingState</text>
<polyline fill="none" stroke="#555555" points="21.5,-1176.5 176.5,-1176.5 "/>
<text text-anchor="middle" x="99" y="-1165.3" font-family="Verdana" font-size="9.00" fill="#555555">IsOffline</text>
<polyline fill="none" stroke="#555555" points="21.5,-1158.5 176.5,-1158.5 "/>
<text text-anchor="middle" x="99" y="-1147.3" font-family="Verdana" font-size="9.00" fill="#555555">IsOfflineSource</text>
<polyline fill="none" stroke="#555555" points="21.5,-1140.5 176.5,-1140.5 "/>
<text text-anchor="middle" x="99" y="-1129.3" font-family="Verdana" font-size="9.00" fill="#555555">InterimDate</text>
<polyline fill="none" stroke="#555555" points="21.5,-1122.5 176.5,-1122.5 "/>
<text text-anchor="middle" x="99" y="-1111.3" font-family="Verdana" font-size="9.00" fill="#555555">Name</text>
<polyline fill="none" stroke="#555555" points="21.5,-1104.5 176.5,-1104.5 "/>
<text text-anchor="middle" x="99" y="-1093.3" font-family="Verdana" font-size="9.00" fill="#555555">+ RequirementsComplianceId</text>
</g>
<!-- struct4&#45;&gt;struct5 -->
<g id="edge6" class="edge">
<title>struct4:c1077578877_1&#45;&gt;struct5:c1045578763_2</title>
<path fill="none" stroke="#337ab7" d="M178,-1437.5C186.52,-1437.5 204.03,-869.44 213.85,-787.34"/>
<polygon fill="#337ab7" stroke="#337ab7" points="217.29,-788.02 216,-777.5 210.45,-786.52 217.29,-788.02"/>
</g>
<!-- struct5&#45;&gt;struct0 -->
<g id="edge5" class="edge">
<title>struct5:c1045578763_1&#45;&gt;struct0:c955150448_2</title>
<path fill="none" stroke="black" d="M410,-795.5C424.15,-795.5 425.98,-1035.5 428,-1049.5 439.18,-1126.92 390.32,-1220.65 457.27,-1228.91"/>
<polygon fill="black" stroke="black" points="457.32,-1232.42 467.5,-1229.5 457.72,-1225.43 457.32,-1232.42"/>
</g>
<!-- struct6 -->
<g id="node7" class="node">
<title>struct6</title>
<polygon fill="#f7f7f9" stroke="#555555" points="429,-859.5 429,-1039.5 640,-1039.5 640,-859.5 429,-859.5"/>
<text text-anchor="middle" x="534.5" y="-1028.3" font-family="Verdana" font-size="9.00" fill="#555555">Table: ExaminationsActivitiesCWPRepairs</text>
<polyline fill="none" stroke="#555555" points="429,-1021.5 640,-1021.5 "/>
<text text-anchor="middle" x="534.5" y="-1010.3" font-family="Verdana" font-size="9.00" fill="#555555">Id</text>
<polyline fill="none" stroke="#555555" points="429,-1003.5 640,-1003.5 "/>
<text text-anchor="middle" x="534.5" y="-992.3" font-family="Verdana" font-size="9.00" fill="#555555">TenderRequestDate</text>
<polyline fill="none" stroke="#555555" points="429,-985.5 640,-985.5 "/>
<text text-anchor="middle" x="534.5" y="-974.3" font-family="Verdana" font-size="9.00" fill="#555555">TenderRequestNumber</text>
<polyline fill="none" stroke="#555555" points="429,-967.5 640,-967.5 "/>
<text text-anchor="middle" x="534.5" y="-956.3" font-family="Verdana" font-size="9.00" fill="#555555">+ ExaminationsActivityId</text>
<polyline fill="none" stroke="#555555" points="429,-949.5 640,-949.5 "/>
<text text-anchor="middle" x="534.5" y="-938.3" font-family="Verdana" font-size="9.00" fill="#555555">Created</text>
<polyline fill="none" stroke="#555555" points="429,-931.5 640,-931.5 "/>
<text text-anchor="middle" x="534.5" y="-920.3" font-family="Verdana" font-size="9.00" fill="#555555">+ CreatedBy</text>
<polyline fill="none" stroke="#555555" points="429,-913.5 640,-913.5 "/>
<text text-anchor="middle" x="534.5" y="-902.3" font-family="Verdana" font-size="9.00" fill="#555555">RowVersion</text>
<polyline fill="none" stroke="#555555" points="429,-895.5 640,-895.5 "/>
<text text-anchor="middle" x="534.5" y="-884.3" font-family="Verdana" font-size="9.00" fill="#555555">Modified</text>
<polyline fill="none" stroke="#555555" points="429,-877.5 640,-877.5 "/>
<text text-anchor="middle" x="534.5" y="-866.3" font-family="Verdana" font-size="9.00" fill="#555555">+ ModifiedBy</text>
</g>
<!-- struct5&#45;&gt;struct6 -->
<g id="edge4" class="edge">
<title>struct5:c1045578763_1&#45;&gt;struct6:c1991678143_4</title>
<path fill="none" stroke="black" d="M410,-795.5C442.6,-795.5 402.12,-925.93 419.3,-953.44"/>
<polygon fill="black" stroke="black" points="417.6,-956.5 428,-958.5 421.11,-950.45 417.6,-956.5"/>
</g>
<!-- struct7 -->
<g id="node8" class="node">
<title>struct7</title>
<polygon fill="#f7f7f9" stroke="#555555" points="431.5,-606.5 431.5,-840.5 637.5,-840.5 637.5,-606.5 431.5,-606.5"/>
<text text-anchor="middle" x="534.5" y="-829.3" font-family="Verdana" font-size="9.00" fill="#555555">Table: ExaminationsActivitiesDocuments</text>
<polyline fill="none" stroke="#555555" points="431.5,-822.5 637.5,-822.5 "/>
<text text-anchor="middle" x="534.5" y="-811.3" font-family="Verdana" font-size="9.00" fill="#555555">Id</text>
<polyline fill="none" stroke="#555555" points="431.5,-804.5 637.5,-804.5 "/>
<text text-anchor="middle" x="534.5" y="-793.3" font-family="Verdana" font-size="9.00" fill="#555555">+ ExaminationsActivityId</text>
<polyline fill="none" stroke="#555555" points="431.5,-786.5 637.5,-786.5 "/>
<text text-anchor="middle" x="534.5" y="-775.3" font-family="Verdana" font-size="9.00" fill="#555555">FileBody</text>
<polyline fill="none" stroke="#555555" points="431.5,-768.5 637.5,-768.5 "/>
<text text-anchor="middle" x="534.5" y="-757.3" font-family="Verdana" font-size="9.00" fill="#555555">Created</text>
<polyline fill="none" stroke="#555555" points="431.5,-750.5 637.5,-750.5 "/>
<text text-anchor="middle" x="534.5" y="-739.3" font-family="Verdana" font-size="9.00" fill="#555555">+ CreatedBy</text>
<polyline fill="none" stroke="#555555" points="431.5,-732.5 637.5,-732.5 "/>
<text text-anchor="middle" x="534.5" y="-721.3" font-family="Verdana" font-size="9.00" fill="#555555">RowVersion</text>
<polyline fill="none" stroke="#555555" points="431.5,-714.5 637.5,-714.5 "/>
<text text-anchor="middle" x="534.5" y="-703.3" font-family="Verdana" font-size="9.00" fill="#555555">Modified</text>
<polyline fill="none" stroke="#555555" points="431.5,-696.5 637.5,-696.5 "/>
<text text-anchor="middle" x="534.5" y="-685.3" font-family="Verdana" font-size="9.00" fill="#555555">+ ModifiedBy</text>
<polyline fill="none" stroke="#555555" points="431.5,-678.5 637.5,-678.5 "/>
<text text-anchor="middle" x="534.5" y="-667.3" font-family="Verdana" font-size="9.00" fill="#555555">SeqNumber</text>
<polyline fill="none" stroke="#555555" points="431.5,-660.5 637.5,-660.5 "/>
<text text-anchor="middle" x="534.5" y="-649.3" font-family="Verdana" font-size="9.00" fill="#555555">FileName</text>
<polyline fill="none" stroke="#555555" points="431.5,-642.5 637.5,-642.5 "/>
<text text-anchor="middle" x="534.5" y="-631.3" font-family="Verdana" font-size="9.00" fill="#555555">Description</text>
<polyline fill="none" stroke="#555555" points="431.5,-624.5 637.5,-624.5 "/>
<text text-anchor="middle" x="534.5" y="-613.3" font-family="Verdana" font-size="9.00" fill="#555555">ContentType</text>
</g>
<!-- struct5&#45;&gt;struct7 -->
<g id="edge1" class="edge">
<title>struct5:c1045578763_1&#45;&gt;struct7:c1255675521_2</title>
<path fill="none" stroke="black" d="M410,-795.5C414.56,-795.5 417.4,-795.5 420.25,-795.5"/>
<polygon fill="black" stroke="black" points="420.5,-799 430.5,-795.5 420.5,-792 420.5,-799"/>
</g>
<!-- struct8 -->
<g id="node9" class="node">
<title>struct8</title>
<polygon fill="#f7f7f9" stroke="#555555" points="434,-317.5 434,-587.5 635,-587.5 635,-317.5 434,-317.5"/>
<text text-anchor="middle" x="534.5" y="-576.3" font-family="Verdana" font-size="9.00" fill="#555555">Table: ExaminationsActivitiesDRRepairs</text>
<polyline fill="none" stroke="#555555" points="434,-569.5 635,-569.5 "/>
<text text-anchor="middle" x="534.5" y="-558.3" font-family="Verdana" font-size="9.00" fill="#555555">Id</text>
<polyline fill="none" stroke="#555555" points="434,-551.5 635,-551.5 "/>
<text text-anchor="middle" x="534.5" y="-540.3" font-family="Verdana" font-size="9.00" fill="#555555">DefectListPlannedDate</text>
<polyline fill="none" stroke="#555555" points="434,-533.5 635,-533.5 "/>
<text text-anchor="middle" x="534.5" y="-522.3" font-family="Verdana" font-size="9.00" fill="#555555">DefectListActualDate</text>
<polyline fill="none" stroke="#555555" points="434,-515.5 635,-515.5 "/>
<text text-anchor="middle" x="534.5" y="-504.3" font-family="Verdana" font-size="9.00" fill="#555555">EstimateSheetPlannedDate</text>
<polyline fill="none" stroke="#555555" points="434,-497.5 635,-497.5 "/>
<text text-anchor="middle" x="534.5" y="-486.3" font-family="Verdana" font-size="9.00" fill="#555555">EstimateSheetActualDate</text>
<polyline fill="none" stroke="#555555" points="434,-479.5 635,-479.5 "/>
<text text-anchor="middle" x="534.5" y="-468.3" font-family="Verdana" font-size="9.00" fill="#555555">EstimateSheetNumber</text>
<polyline fill="none" stroke="#555555" points="434,-461.5 635,-461.5 "/>
<text text-anchor="middle" x="534.5" y="-450.3" font-family="Verdana" font-size="9.00" fill="#555555">ContractDate</text>
<polyline fill="none" stroke="#555555" points="434,-443.5 635,-443.5 "/>
<text text-anchor="middle" x="534.5" y="-432.3" font-family="Verdana" font-size="9.00" fill="#555555">ContractNumber</text>
<polyline fill="none" stroke="#555555" points="434,-425.5 635,-425.5 "/>
<text text-anchor="middle" x="534.5" y="-414.3" font-family="Verdana" font-size="9.00" fill="#555555">+ ExaminationsActivityId</text>
<polyline fill="none" stroke="#555555" points="434,-407.5 635,-407.5 "/>
<text text-anchor="middle" x="534.5" y="-396.3" font-family="Verdana" font-size="9.00" fill="#555555">Created</text>
<polyline fill="none" stroke="#555555" points="434,-389.5 635,-389.5 "/>
<text text-anchor="middle" x="534.5" y="-378.3" font-family="Verdana" font-size="9.00" fill="#555555">+ CreatedBy</text>
<polyline fill="none" stroke="#555555" points="434,-371.5 635,-371.5 "/>
<text text-anchor="middle" x="534.5" y="-360.3" font-family="Verdana" font-size="9.00" fill="#555555">RowVersion</text>
<polyline fill="none" stroke="#555555" points="434,-353.5 635,-353.5 "/>
<text text-anchor="middle" x="534.5" y="-342.3" font-family="Verdana" font-size="9.00" fill="#555555">Modified</text>
<polyline fill="none" stroke="#555555" points="434,-335.5 635,-335.5 "/>
<text text-anchor="middle" x="534.5" y="-324.3" font-family="Verdana" font-size="9.00" fill="#555555">+ ModifiedBy</text>
</g>
<!-- struct5&#45;&gt;struct8 -->
<g id="edge2" class="edge">
<title>struct5:c1045578763_1&#45;&gt;struct8:c1575676661_9</title>
<path fill="none" stroke="black" d="M410,-795.5C448.97,-795.5 399.14,-472.04 424.58,-422.76"/>
<polygon fill="black" stroke="black" points="426.83,-425.45 432.5,-416.5 422.48,-419.96 426.83,-425.45"/>
</g>
<!-- struct9 -->
<g id="node10" class="node">
<title>struct9</title>
<polygon fill="#f7f7f9" stroke="#555555" points="428,-46.5 428,-298.5 641,-298.5 641,-46.5 428,-46.5"/>
<text text-anchor="middle" x="534.5" y="-287.3" font-family="Verdana" font-size="9.00" fill="#555555">Table: ExaminationsActivitiesRPRCRepairs</text>
<polyline fill="none" stroke="#555555" points="428,-280.5 641,-280.5 "/>
<text text-anchor="middle" x="534.5" y="-269.3" font-family="Verdana" font-size="9.00" fill="#555555">Id</text>
<polyline fill="none" stroke="#555555" points="428,-262.5 641,-262.5 "/>
<text text-anchor="middle" x="534.5" y="-251.3" font-family="Verdana" font-size="9.00" fill="#555555">SpecificationsDevelopmentPlannedDate</text>
<polyline fill="none" stroke="#555555" points="428,-244.5 641,-244.5 "/>
<text text-anchor="middle" x="534.5" y="-233.3" font-family="Verdana" font-size="9.00" fill="#555555">SpecificationsDevelopmentActualDate</text>
<polyline fill="none" stroke="#555555" points="428,-226.5 641,-226.5 "/>
<text text-anchor="middle" x="534.5" y="-215.3" font-family="Verdana" font-size="9.00" fill="#555555">IsEstimateSheetRequired</text>
<polyline fill="none" stroke="#555555" points="428,-208.5 641,-208.5 "/>
<text text-anchor="middle" x="534.5" y="-197.3" font-family="Verdana" font-size="9.00" fill="#555555">ProjectPlannedDate</text>
<polyline fill="none" stroke="#555555" points="428,-190.5 641,-190.5 "/>
<text text-anchor="middle" x="534.5" y="-179.3" font-family="Verdana" font-size="9.00" fill="#555555">ProjectActualDate</text>
<polyline fill="none" stroke="#555555" points="428,-172.5 641,-172.5 "/>
<text text-anchor="middle" x="534.5" y="-161.3" font-family="Verdana" font-size="9.00" fill="#555555">ProjectNumber</text>
<polyline fill="none" stroke="#555555" points="428,-154.5 641,-154.5 "/>
<text text-anchor="middle" x="534.5" y="-143.3" font-family="Verdana" font-size="9.00" fill="#555555">+ ExaminationsActivityId</text>
<polyline fill="none" stroke="#555555" points="428,-136.5 641,-136.5 "/>
<text text-anchor="middle" x="534.5" y="-125.3" font-family="Verdana" font-size="9.00" fill="#555555">Created</text>
<polyline fill="none" stroke="#555555" points="428,-118.5 641,-118.5 "/>
<text text-anchor="middle" x="534.5" y="-107.3" font-family="Verdana" font-size="9.00" fill="#555555">+ CreatedBy</text>
<polyline fill="none" stroke="#555555" points="428,-100.5 641,-100.5 "/>
<text text-anchor="middle" x="534.5" y="-89.3" font-family="Verdana" font-size="9.00" fill="#555555">RowVersion</text>
<polyline fill="none" stroke="#555555" points="428,-82.5 641,-82.5 "/>
<text text-anchor="middle" x="534.5" y="-71.3" font-family="Verdana" font-size="9.00" fill="#555555">Modified</text>
<polyline fill="none" stroke="#555555" points="428,-64.5 641,-64.5 "/>
<text text-anchor="middle" x="534.5" y="-53.3" font-family="Verdana" font-size="9.00" fill="#555555">+ ModifiedBy</text>
</g>
<!-- struct5&#45;&gt;struct9 -->
<g id="edge3" class="edge">
<title>struct5:c1045578763_1&#45;&gt;struct9:c1895677801_8</title>
<path fill="none" stroke="black" d="M410,-795.5C443.73,-795.5 398.68,-228.96 421.95,-153.72"/>
<polygon fill="black" stroke="black" points="424.89,-155.63 428,-145.5 419.25,-151.48 424.89,-155.63"/>
</g>
<!-- struct10 -->
<g id="node11" class="node">
<title>struct10</title>
<polygon fill="#f7f7f9" stroke="#555555" points="30.5,-616.5 30.5,-688.5 167.5,-688.5 167.5,-616.5 30.5,-616.5"/>
<text text-anchor="middle" x="99" y="-677.3" font-family="Verdana" font-size="9.00" fill="#555555">Table: ExecutionStatuses</text>
<polyline fill="none" stroke="#555555" points="30.5,-670.5 167.5,-670.5 "/>
<text text-anchor="middle" x="99" y="-659.3" font-family="Verdana" font-size="9.00" fill="#555555">Id +</text>
<polyline fill="none" stroke="#555555" points="30.5,-652.5 167.5,-652.5 "/>
<text text-anchor="middle" x="99" y="-641.3" font-family="Verdana" font-size="9.00" fill="#555555">Name</text>
<polyline fill="none" stroke="#555555" points="30.5,-634.5 167.5,-634.5 "/>
<text text-anchor="middle" x="99" y="-623.3" font-family="Verdana" font-size="9.00" fill="#555555">CSSClass</text>
</g>
<!-- struct10&#45;&gt;struct5 -->
<g id="edge8" class="edge">
<title>struct10:c901578250_1&#45;&gt;struct5:c1045578763_8</title>
<path fill="none" stroke="#337ab7" d="M169,-661.5C186.38,-661.5 192.61,-666.88 205.99,-668.82"/>
<polygon fill="#337ab7" stroke="#337ab7" points="205.79,-672.31 216,-669.5 206.26,-665.33 205.79,-672.31"/>
</g>
<!-- struct11 -->
<g id="node12" class="node">
<title>struct11</title>
<polygon fill="#f7f7f9" stroke="#555555" points="39.5,-19.5 39.5,-199.5 158.5,-199.5 158.5,-19.5 39.5,-19.5"/>
<text text-anchor="middle" x="99" y="-188.3" font-family="Verdana" font-size="9.00" fill="#555555">Table: MeasuresUnits</text>
<polyline fill="none" stroke="#555555" points="39.5,-181.5 158.5,-181.5 "/>
<text text-anchor="middle" x="99" y="-170.3" font-family="Verdana" font-size="9.00" fill="#555555">Id +</text>
<polyline fill="none" stroke="#555555" points="39.5,-163.5 158.5,-163.5 "/>
<text text-anchor="middle" x="99" y="-152.3" font-family="Verdana" font-size="9.00" fill="#555555">Name</text>
<polyline fill="none" stroke="#555555" points="39.5,-145.5 158.5,-145.5 "/>
<text text-anchor="middle" x="99" y="-134.3" font-family="Verdana" font-size="9.00" fill="#555555">Code</text>
<polyline fill="none" stroke="#555555" points="39.5,-127.5 158.5,-127.5 "/>
<text text-anchor="middle" x="99" y="-116.3" font-family="Verdana" font-size="9.00" fill="#555555">IsActive</text>
<polyline fill="none" stroke="#555555" points="39.5,-109.5 158.5,-109.5 "/>
<text text-anchor="middle" x="99" y="-98.3" font-family="Verdana" font-size="9.00" fill="#555555">Created</text>
<polyline fill="none" stroke="#555555" points="39.5,-91.5 158.5,-91.5 "/>
<text text-anchor="middle" x="99" y="-80.3" font-family="Verdana" font-size="9.00" fill="#555555">+ CreatedBy</text>
<polyline fill="none" stroke="#555555" points="39.5,-73.5 158.5,-73.5 "/>
<text text-anchor="middle" x="99" y="-62.3" font-family="Verdana" font-size="9.00" fill="#555555">Modified</text>
<polyline fill="none" stroke="#555555" points="39.5,-55.5 158.5,-55.5 "/>
<text text-anchor="middle" x="99" y="-44.3" font-family="Verdana" font-size="9.00" fill="#555555">+ ModifiedBy</text>
<polyline fill="none" stroke="#555555" points="39.5,-37.5 158.5,-37.5 "/>
<text text-anchor="middle" x="99" y="-26.3" font-family="Verdana" font-size="9.00" fill="#555555">RowVersion</text>
</g>
<!-- struct11&#45;&gt;struct5 -->
<g id="edge13" class="edge">
<title>struct11:c1022626686_1&#45;&gt;struct5:c1045578763_21</title>
<path fill="none" stroke="#337ab7" d="M160,-172.5C183.26,-172.5 188.13,-187.43 198,-208.5 209.98,-234.06 189.52,-442.29 208.4,-482.72"/>
<polygon fill="#337ab7" stroke="#337ab7" points="206.21,-485.45 216,-489.5 210.87,-480.23 206.21,-485.45"/>
</g>
</g>
</svg>
