<?xml version="1.0" encoding="UTF-8" standalone="no"?>
<!DOCTYPE svg PUBLIC "-//W3C//DTD SVG 1.1//EN"
 "http://www.w3.org/Graphics/SVG/1.1/DTD/svg11.dtd">
<!-- Generated by graphviz version 5.0.0 (20220707.1540)
 -->
<!-- Title: g Pages: 1 -->
<svg width="465pt" height="1040pt"
 viewBox="0.00 0.00 465.00 1040.00" xmlns="http://www.w3.org/2000/svg" xmlns:xlink="http://www.w3.org/1999/xlink">
<g id="graph0" class="graph" transform="scale(1 1) rotate(0) translate(4 1036)">
<title>g</title>
<polygon fill="white" stroke="transparent" points="-4,4 -4,-1036 461,-1036 461,4 -4,4"/>
<text text-anchor="middle" x="228.5" y="-7" font-family="Verdana" font-size="10.00">Table: SapToroExtension</text>
<!-- struct0 -->
<g id="node1" class="node">
<title>struct0</title>
<polygon fill="#f7f7f9" stroke="#555555" points="28,-797.5 28,-1031.5 138,-1031.5 138,-797.5 28,-797.5"/>
<text text-anchor="middle" x="83" y="-1020.3" font-family="Verdana" font-size="9.00" fill="#555555">Table: Departments</text>
<polyline fill="none" stroke="#555555" points="28,-1013.5 138,-1013.5 "/>
<text text-anchor="middle" x="83" y="-1002.3" font-family="Verdana" font-size="9.00" fill="#555555">Id +</text>
<polyline fill="none" stroke="#555555" points="28,-995.5 138,-995.5 "/>
<text text-anchor="middle" x="83" y="-984.3" font-family="Verdana" font-size="9.00" fill="#555555">+ SegmentId</text>
<polyline fill="none" stroke="#555555" points="28,-977.5 138,-977.5 "/>
<text text-anchor="middle" x="83" y="-966.3" font-family="Verdana" font-size="9.00" fill="#555555">Code</text>
<polyline fill="none" stroke="#555555" points="28,-959.5 138,-959.5 "/>
<text text-anchor="middle" x="83" y="-948.3" font-family="Verdana" font-size="9.00" fill="#555555">Name</text>
<polyline fill="none" stroke="#555555" points="28,-941.5 138,-941.5 "/>
<text text-anchor="middle" x="83" y="-930.3" font-family="Verdana" font-size="9.00" fill="#555555">Created</text>
<polyline fill="none" stroke="#555555" points="28,-923.5 138,-923.5 "/>
<text text-anchor="middle" x="83" y="-912.3" font-family="Verdana" font-size="9.00" fill="#555555">+ CreatedBy</text>
<polyline fill="none" stroke="#555555" points="28,-905.5 138,-905.5 "/>
<text text-anchor="middle" x="83" y="-894.3" font-family="Verdana" font-size="9.00" fill="#555555">Modified</text>
<polyline fill="none" stroke="#555555" points="28,-887.5 138,-887.5 "/>
<text text-anchor="middle" x="83" y="-876.3" font-family="Verdana" font-size="9.00" fill="#555555">+ ModifiedBy</text>
<polyline fill="none" stroke="#555555" points="28,-869.5 138,-869.5 "/>
<text text-anchor="middle" x="83" y="-858.3" font-family="Verdana" font-size="9.00" fill="#555555">Deleted</text>
<polyline fill="none" stroke="#555555" points="28,-851.5 138,-851.5 "/>
<text text-anchor="middle" x="83" y="-840.3" font-family="Verdana" font-size="9.00" fill="#555555">+ DeletedBy</text>
<polyline fill="none" stroke="#555555" points="28,-833.5 138,-833.5 "/>
<text text-anchor="middle" x="83" y="-822.3" font-family="Verdana" font-size="9.00" fill="#555555">RowVersion</text>
<polyline fill="none" stroke="#555555" points="28,-815.5 138,-815.5 "/>
<text text-anchor="middle" x="83" y="-804.3" font-family="Verdana" font-size="9.00" fill="#555555">IsActive</text>
</g>
<!-- struct6 -->
<g id="node7" class="node">
<title>struct6</title>
<polygon fill="#f7f7f9" stroke="#555555" points="184,-435.5 184,-849.5 332,-849.5 332,-435.5 184,-435.5"/>
<text text-anchor="middle" x="258" y="-838.3" font-family="Verdana" font-size="9.00" fill="#555555">Table: SapToroExtension</text>
<polyline fill="none" stroke="#555555" points="184,-831.5 332,-831.5 "/>
<text text-anchor="middle" x="258" y="-820.3" font-family="Verdana" font-size="9.00" fill="#555555">Id +</text>
<polyline fill="none" stroke="#555555" points="184,-813.5 332,-813.5 "/>
<text text-anchor="middle" x="258" y="-802.3" font-family="Verdana" font-size="9.00" fill="#555555">+ DepartmentId</text>
<polyline fill="none" stroke="#555555" points="184,-795.5 332,-795.5 "/>
<text text-anchor="middle" x="258" y="-784.3" font-family="Verdana" font-size="9.00" fill="#555555">Code</text>
<polyline fill="none" stroke="#555555" points="184,-777.5 332,-777.5 "/>
<text text-anchor="middle" x="258" y="-766.3" font-family="Verdana" font-size="9.00" fill="#555555">Name</text>
<polyline fill="none" stroke="#555555" points="184,-759.5 332,-759.5 "/>
<text text-anchor="middle" x="258" y="-748.3" font-family="Verdana" font-size="9.00" fill="#555555">+ ObjectTypeId</text>
<polyline fill="none" stroke="#555555" points="184,-741.5 332,-741.5 "/>
<text text-anchor="middle" x="258" y="-730.3" font-family="Verdana" font-size="9.00" fill="#555555">TechnologyNumber</text>
<polyline fill="none" stroke="#555555" points="184,-723.5 332,-723.5 "/>
<text text-anchor="middle" x="258" y="-712.3" font-family="Verdana" font-size="9.00" fill="#555555">RegistrationNumber</text>
<polyline fill="none" stroke="#555555" points="184,-705.5 332,-705.5 "/>
<text text-anchor="middle" x="258" y="-694.3" font-family="Verdana" font-size="9.00" fill="#555555">InventoryNumber</text>
<polyline fill="none" stroke="#555555" points="184,-687.5 332,-687.5 "/>
<text text-anchor="middle" x="258" y="-676.3" font-family="Verdana" font-size="9.00" fill="#555555">BeginDate</text>
<polyline fill="none" stroke="#555555" points="184,-669.5 332,-669.5 "/>
<text text-anchor="middle" x="258" y="-658.3" font-family="Verdana" font-size="9.00" fill="#555555">EndDate</text>
<polyline fill="none" stroke="#555555" points="184,-651.5 332,-651.5 "/>
<text text-anchor="middle" x="258" y="-640.3" font-family="Verdana" font-size="9.00" fill="#555555">PrimaryId</text>
<polyline fill="none" stroke="#555555" points="184,-633.5 332,-633.5 "/>
<text text-anchor="middle" x="258" y="-622.3" font-family="Verdana" font-size="9.00" fill="#555555">Created</text>
<polyline fill="none" stroke="#555555" points="184,-615.5 332,-615.5 "/>
<text text-anchor="middle" x="258" y="-604.3" font-family="Verdana" font-size="9.00" fill="#555555">+ CreatedBy</text>
<polyline fill="none" stroke="#555555" points="184,-597.5 332,-597.5 "/>
<text text-anchor="middle" x="258" y="-586.3" font-family="Verdana" font-size="9.00" fill="#555555">Modified</text>
<polyline fill="none" stroke="#555555" points="184,-579.5 332,-579.5 "/>
<text text-anchor="middle" x="258" y="-568.3" font-family="Verdana" font-size="9.00" fill="#555555">+ ModifiedBy</text>
<polyline fill="none" stroke="#555555" points="184,-561.5 332,-561.5 "/>
<text text-anchor="middle" x="258" y="-550.3" font-family="Verdana" font-size="9.00" fill="#555555">Deleted</text>
<polyline fill="none" stroke="#555555" points="184,-543.5 332,-543.5 "/>
<text text-anchor="middle" x="258" y="-532.3" font-family="Verdana" font-size="9.00" fill="#555555">+ DeletedBy</text>
<polyline fill="none" stroke="#555555" points="184,-525.5 332,-525.5 "/>
<text text-anchor="middle" x="258" y="-514.3" font-family="Verdana" font-size="9.00" fill="#555555">RowVersion</text>
<polyline fill="none" stroke="#555555" points="184,-507.5 332,-507.5 "/>
<text text-anchor="middle" x="258" y="-496.3" font-family="Verdana" font-size="9.00" fill="#555555">IsActive</text>
<polyline fill="none" stroke="#555555" points="184,-489.5 332,-489.5 "/>
<text text-anchor="middle" x="258" y="-478.3" font-family="Verdana" font-size="9.00" fill="#555555">+ HPFRegistrationNumberId</text>
<polyline fill="none" stroke="#555555" points="184,-471.5 332,-471.5 "/>
<text text-anchor="middle" x="258" y="-460.3" font-family="Verdana" font-size="9.00" fill="#555555">InServiceDate</text>
<polyline fill="none" stroke="#555555" points="184,-453.5 332,-453.5 "/>
<text text-anchor="middle" x="258" y="-442.3" font-family="Verdana" font-size="9.00" fill="#555555">+ ObjectsCategoryId</text>
</g>
<!-- struct0&#45;&gt;struct6 -->
<g id="edge2" class="edge">
<title>struct0:c693577509_1&#45;&gt;struct6:c1938105945_2</title>
<path fill="none" stroke="#337ab7" d="M139,-1004.5C226.37,-1004.5 103.76,-820.57 173.91,-805.48"/>
<polygon fill="#337ab7" stroke="#337ab7" points="174.39,-808.95 184,-804.5 173.71,-801.98 174.39,-808.95"/>
</g>
<!-- struct1 -->
<g id="node2" class="node">
<title>struct1</title>
<polygon fill="#f7f7f9" stroke="#555555" points="30,-399.5 30,-597.5 136,-597.5 136,-399.5 30,-399.5"/>
<text text-anchor="middle" x="83" y="-586.3" font-family="Verdana" font-size="9.00" fill="#555555">Table: Employees</text>
<polyline fill="none" stroke="#555555" points="30,-579.5 136,-579.5 "/>
<text text-anchor="middle" x="83" y="-568.3" font-family="Verdana" font-size="9.00" fill="#555555">Id +</text>
<polyline fill="none" stroke="#555555" points="30,-561.5 136,-561.5 "/>
<text text-anchor="middle" x="83" y="-550.3" font-family="Verdana" font-size="9.00" fill="#555555">ExternalEmploeeId</text>
<polyline fill="none" stroke="#555555" points="30,-543.5 136,-543.5 "/>
<text text-anchor="middle" x="83" y="-532.3" font-family="Verdana" font-size="9.00" fill="#555555">Surname</text>
<polyline fill="none" stroke="#555555" points="30,-525.5 136,-525.5 "/>
<text text-anchor="middle" x="83" y="-514.3" font-family="Verdana" font-size="9.00" fill="#555555">Name</text>
<polyline fill="none" stroke="#555555" points="30,-507.5 136,-507.5 "/>
<text text-anchor="middle" x="83" y="-496.3" font-family="Verdana" font-size="9.00" fill="#555555">MiddleName</text>
<polyline fill="none" stroke="#555555" points="30,-489.5 136,-489.5 "/>
<text text-anchor="middle" x="83" y="-478.3" font-family="Verdana" font-size="9.00" fill="#555555">Email</text>
<polyline fill="none" stroke="#555555" points="30,-471.5 136,-471.5 "/>
<text text-anchor="middle" x="83" y="-460.3" font-family="Verdana" font-size="9.00" fill="#555555">DomainLogin</text>
<polyline fill="none" stroke="#555555" points="30,-453.5 136,-453.5 "/>
<text text-anchor="middle" x="83" y="-442.3" font-family="Verdana" font-size="9.00" fill="#555555">FIO</text>
<polyline fill="none" stroke="#555555" points="30,-435.5 136,-435.5 "/>
<text text-anchor="middle" x="83" y="-424.3" font-family="Verdana" font-size="9.00" fill="#555555">FullName</text>
<polyline fill="none" stroke="#555555" points="30,-417.5 136,-417.5 "/>
<text text-anchor="middle" x="83" y="-406.3" font-family="Verdana" font-size="9.00" fill="#555555">Created</text>
</g>
<!-- struct1&#45;&gt;struct6 -->
<g id="edge4" class="edge">
<title>struct1:c789577851_1&#45;&gt;struct6:c1938105945_14</title>
<path fill="none" stroke="#337ab7" d="M137,-570.5C159.41,-570.5 158.65,-596.61 174.18,-604.36"/>
<polygon fill="#337ab7" stroke="#337ab7" points="173.48,-607.79 184,-606.5 174.98,-600.95 173.48,-607.79"/>
</g>
<!-- struct1&#45;&gt;struct6 -->
<g id="edge5" class="edge">
<title>struct1:c789577851_1&#45;&gt;struct6:c1938105945_16</title>
<path fill="none" stroke="#337ab7" d="M137,-570.5C153.97,-570.5 160.6,-570.5 173.7,-570.5"/>
<polygon fill="#337ab7" stroke="#337ab7" points="174,-574 184,-570.5 174,-567 174,-574"/>
</g>
<!-- struct1&#45;&gt;struct6 -->
<g id="edge6" class="edge">
<title>struct1:c789577851_1&#45;&gt;struct6:c1938105945_18</title>
<path fill="none" stroke="#337ab7" d="M137,-570.5C159.41,-570.5 158.65,-544.39 174.18,-536.64"/>
<polygon fill="#337ab7" stroke="#337ab7" points="174.98,-540.05 184,-534.5 173.48,-533.21 174.98,-540.05"/>
</g>
<!-- struct2 -->
<g id="node3" class="node">
<title>struct2</title>
<polygon fill="#f7f7f9" stroke="#555555" points="0,-200.5 0,-380.5 166,-380.5 166,-200.5 0,-200.5"/>
<text text-anchor="middle" x="83" y="-369.3" font-family="Verdana" font-size="9.00" fill="#555555">Table: HPFRegistrationNumbers</text>
<polyline fill="none" stroke="#555555" points="0,-362.5 166,-362.5 "/>
<text text-anchor="middle" x="83" y="-351.3" font-family="Verdana" font-size="9.00" fill="#555555">Id +</text>
<polyline fill="none" stroke="#555555" points="0,-344.5 166,-344.5 "/>
<text text-anchor="middle" x="83" y="-333.3" font-family="Verdana" font-size="9.00" fill="#555555">Name</text>
<polyline fill="none" stroke="#555555" points="0,-326.5 166,-326.5 "/>
<text text-anchor="middle" x="83" y="-315.3" font-family="Verdana" font-size="9.00" fill="#555555">IsActive</text>
<polyline fill="none" stroke="#555555" points="0,-308.5 166,-308.5 "/>
<text text-anchor="middle" x="83" y="-297.3" font-family="Verdana" font-size="9.00" fill="#555555">RowVersion</text>
<polyline fill="none" stroke="#555555" points="0,-290.5 166,-290.5 "/>
<text text-anchor="middle" x="83" y="-279.3" font-family="Verdana" font-size="9.00" fill="#555555">Created</text>
<polyline fill="none" stroke="#555555" points="0,-272.5 166,-272.5 "/>
<text text-anchor="middle" x="83" y="-261.3" font-family="Verdana" font-size="9.00" fill="#555555">+ CreatedBy</text>
<polyline fill="none" stroke="#555555" points="0,-254.5 166,-254.5 "/>
<text text-anchor="middle" x="83" y="-243.3" font-family="Verdana" font-size="9.00" fill="#555555">Modified</text>
<polyline fill="none" stroke="#555555" points="0,-236.5 166,-236.5 "/>
<text text-anchor="middle" x="83" y="-225.3" font-family="Verdana" font-size="9.00" fill="#555555">+ ModifiedBy</text>
<polyline fill="none" stroke="#555555" points="0,-218.5 166,-218.5 "/>
<text text-anchor="middle" x="83" y="-207.3" font-family="Verdana" font-size="9.00" fill="#555555">Number</text>
</g>
<!-- struct2&#45;&gt;struct6 -->
<g id="edge7" class="edge">
<title>struct2:c1310627712_1&#45;&gt;struct6:c1938105945_22</title>
<path fill="none" stroke="#337ab7" d="M166,-353.5C190.72,-353.5 164.67,-449.01 175.9,-474.37"/>
<polygon fill="#337ab7" stroke="#337ab7" points="173.91,-477.26 184,-480.5 178.13,-471.68 173.91,-477.26"/>
</g>
<!-- struct3 -->
<g id="node4" class="node">
<title>struct3</title>
<polygon fill="#f7f7f9" stroke="#555555" points="350,-759.5 350,-849.5 457,-849.5 457,-759.5 350,-759.5"/>
<text text-anchor="middle" x="403.5" y="-838.3" font-family="Verdana" font-size="9.00" fill="#555555">Table: ObjectCards</text>
<polyline fill="none" stroke="#555555" points="350,-831.5 457,-831.5 "/>
<text text-anchor="middle" x="403.5" y="-820.3" font-family="Verdana" font-size="9.00" fill="#555555">Id +</text>
<polyline fill="none" stroke="#555555" points="350,-813.5 457,-813.5 "/>
<text text-anchor="middle" x="403.5" y="-802.3" font-family="Verdana" font-size="9.00" fill="#555555">Created</text>
<polyline fill="none" stroke="#555555" points="350,-795.5 457,-795.5 "/>
<text text-anchor="middle" x="403.5" y="-784.3" font-family="Verdana" font-size="9.00" fill="#555555">+ CreatedBy</text>
<polyline fill="none" stroke="#555555" points="350,-777.5 457,-777.5 "/>
<text text-anchor="middle" x="403.5" y="-766.3" font-family="Verdana" font-size="9.00" fill="#555555">RowVersion</text>
</g>
<!-- struct4 -->
<g id="node5" class="node">
<title>struct4</title>
<polygon fill="#f7f7f9" stroke="#555555" points="14.5,-19.5 14.5,-181.5 151.5,-181.5 151.5,-19.5 14.5,-19.5"/>
<text text-anchor="middle" x="83" y="-170.3" font-family="Verdana" font-size="9.00" fill="#555555">Table: ObjectsCategories</text>
<polyline fill="none" stroke="#555555" points="14.5,-163.5 151.5,-163.5 "/>
<text text-anchor="middle" x="83" y="-152.3" font-family="Verdana" font-size="9.00" fill="#555555">Id +</text>
<polyline fill="none" stroke="#555555" points="14.5,-145.5 151.5,-145.5 "/>
<text text-anchor="middle" x="83" y="-134.3" font-family="Verdana" font-size="9.00" fill="#555555">Name</text>
<polyline fill="none" stroke="#555555" points="14.5,-127.5 151.5,-127.5 "/>
<text text-anchor="middle" x="83" y="-116.3" font-family="Verdana" font-size="9.00" fill="#555555">IsActive</text>
<polyline fill="none" stroke="#555555" points="14.5,-109.5 151.5,-109.5 "/>
<text text-anchor="middle" x="83" y="-98.3" font-family="Verdana" font-size="9.00" fill="#555555">Created</text>
<polyline fill="none" stroke="#555555" points="14.5,-91.5 151.5,-91.5 "/>
<text text-anchor="middle" x="83" y="-80.3" font-family="Verdana" font-size="9.00" fill="#555555">+ CreatedBy</text>
<polyline fill="none" stroke="#555555" points="14.5,-73.5 151.5,-73.5 "/>
<text text-anchor="middle" x="83" y="-62.3" font-family="Verdana" font-size="9.00" fill="#555555">Modified</text>
<polyline fill="none" stroke="#555555" points="14.5,-55.5 151.5,-55.5 "/>
<text text-anchor="middle" x="83" y="-44.3" font-family="Verdana" font-size="9.00" fill="#555555">+ ModifiedBy</text>
<polyline fill="none" stroke="#555555" points="14.5,-37.5 151.5,-37.5 "/>
<text text-anchor="middle" x="83" y="-26.3" font-family="Verdana" font-size="9.00" fill="#555555">RowVersion</text>
</g>
<!-- struct4&#45;&gt;struct6 -->
<g id="edge8" class="edge">
<title>struct4:c894626230_1&#45;&gt;struct6:c1938105945_24</title>
<path fill="none" stroke="#337ab7" d="M153,-154.5C182.43,-154.5 157.24,-393.7 176.65,-437.62"/>
<polygon fill="#337ab7" stroke="#337ab7" points="174.31,-440.22 184,-444.5 179.09,-435.11 174.31,-440.22"/>
</g>
<!-- struct5 -->
<g id="node6" class="node">
<title>struct5</title>
<polygon fill="#f7f7f9" stroke="#555555" points="26.5,-616.5 26.5,-778.5 139.5,-778.5 139.5,-616.5 26.5,-616.5"/>
<text text-anchor="middle" x="83" y="-767.3" font-family="Verdana" font-size="9.00" fill="#555555">Table: ObjectsTypes</text>
<polyline fill="none" stroke="#555555" points="26.5,-760.5 139.5,-760.5 "/>
<text text-anchor="middle" x="83" y="-749.3" font-family="Verdana" font-size="9.00" fill="#555555">Id +</text>
<polyline fill="none" stroke="#555555" points="26.5,-742.5 139.5,-742.5 "/>
<text text-anchor="middle" x="83" y="-731.3" font-family="Verdana" font-size="9.00" fill="#555555">Name</text>
<polyline fill="none" stroke="#555555" points="26.5,-724.5 139.5,-724.5 "/>
<text text-anchor="middle" x="83" y="-713.3" font-family="Verdana" font-size="9.00" fill="#555555">Created</text>
<polyline fill="none" stroke="#555555" points="26.5,-706.5 139.5,-706.5 "/>
<text text-anchor="middle" x="83" y="-695.3" font-family="Verdana" font-size="9.00" fill="#555555">+ CreatedBy</text>
<polyline fill="none" stroke="#555555" points="26.5,-688.5 139.5,-688.5 "/>
<text text-anchor="middle" x="83" y="-677.3" font-family="Verdana" font-size="9.00" fill="#555555">Modified</text>
<polyline fill="none" stroke="#555555" points="26.5,-670.5 139.5,-670.5 "/>
<text text-anchor="middle" x="83" y="-659.3" font-family="Verdana" font-size="9.00" fill="#555555">+ ModifiedBy</text>
<polyline fill="none" stroke="#555555" points="26.5,-652.5 139.5,-652.5 "/>
<text text-anchor="middle" x="83" y="-641.3" font-family="Verdana" font-size="9.00" fill="#555555">RowVersion</text>
<polyline fill="none" stroke="#555555" points="26.5,-634.5 139.5,-634.5 "/>
<text text-anchor="middle" x="83" y="-623.3" font-family="Verdana" font-size="9.00" fill="#555555">IsActive</text>
</g>
<!-- struct5&#45;&gt;struct6 -->
<g id="edge3" class="edge">
<title>struct5:c949578421_1&#45;&gt;struct6:c1938105945_5</title>
<path fill="none" stroke="#337ab7" d="M141,-751.5C156.23,-751.5 162.35,-750.86 173.89,-750.61"/>
<polygon fill="#337ab7" stroke="#337ab7" points="174.04,-754.11 184,-750.5 173.96,-747.11 174.04,-754.11"/>
</g>
<!-- struct6&#45;&gt;struct3 -->
<g id="edge1" class="edge">
<title>struct6:c1938105945_1&#45;&gt;struct3:c1986106116_1</title>
<path fill="none" stroke="black" d="M332,-822.5C335.25,-822.5 337.51,-822.5 339.58,-822.5"/>
<polygon fill="black" stroke="black" points="340,-826 350,-822.5 340,-819 340,-826"/>
</g>
</g>
</svg>
