<?xml version="1.0" encoding="UTF-8" standalone="no"?>
<!DOCTYPE svg PUBLIC "-//W3C//DTD SVG 1.1//EN"
 "http://www.w3.org/Graphics/SVG/1.1/DTD/svg11.dtd">
<!-- Generated by graphviz version 5.0.0 (20220707.1540)
 -->
<!-- Title: g Pages: 1 -->
<svg width="234pt" height="244pt"
 viewBox="0.00 0.00 234.00 244.00" xmlns="http://www.w3.org/2000/svg" xmlns:xlink="http://www.w3.org/1999/xlink">
<g id="graph0" class="graph" transform="scale(1 1) rotate(0) translate(4 240)">
<title>g</title>
<polygon fill="white" stroke="transparent" points="-4,4 -4,-240 230,-240 230,4 -4,4"/>
<text text-anchor="middle" x="113" y="-7" font-family="Verdana" font-size="10.00">Table: LoginsLogs</text>
<!-- struct0 -->
<g id="node1" class="node">
<title>struct0</title>
<polygon fill="#f7f7f9" stroke="#555555" points="0,-19.5 0,-217.5 106,-217.5 106,-19.5 0,-19.5"/>
<text text-anchor="middle" x="53" y="-206.3" font-family="Verdana" font-size="9.00" fill="#555555">Table: Employees</text>
<polyline fill="none" stroke="#555555" points="0,-199.5 106,-199.5 "/>
<text text-anchor="middle" x="53" y="-188.3" font-family="Verdana" font-size="9.00" fill="#555555">Id +</text>
<polyline fill="none" stroke="#555555" points="0,-181.5 106,-181.5 "/>
<text text-anchor="middle" x="53" y="-170.3" font-family="Verdana" font-size="9.00" fill="#555555">ExternalEmploeeId</text>
<polyline fill="none" stroke="#555555" points="0,-163.5 106,-163.5 "/>
<text text-anchor="middle" x="53" y="-152.3" font-family="Verdana" font-size="9.00" fill="#555555">Surname</text>
<polyline fill="none" stroke="#555555" points="0,-145.5 106,-145.5 "/>
<text text-anchor="middle" x="53" y="-134.3" font-family="Verdana" font-size="9.00" fill="#555555">Name</text>
<polyline fill="none" stroke="#555555" points="0,-127.5 106,-127.5 "/>
<text text-anchor="middle" x="53" y="-116.3" font-family="Verdana" font-size="9.00" fill="#555555">MiddleName</text>
<polyline fill="none" stroke="#555555" points="0,-109.5 106,-109.5 "/>
<text text-anchor="middle" x="53" y="-98.3" font-family="Verdana" font-size="9.00" fill="#555555">Email</text>
<polyline fill="none" stroke="#555555" points="0,-91.5 106,-91.5 "/>
<text text-anchor="middle" x="53" y="-80.3" font-family="Verdana" font-size="9.00" fill="#555555">DomainLogin</text>
<polyline fill="none" stroke="#555555" points="0,-73.5 106,-73.5 "/>
<text text-anchor="middle" x="53" y="-62.3" font-family="Verdana" font-size="9.00" fill="#555555">FIO</text>
<polyline fill="none" stroke="#555555" points="0,-55.5 106,-55.5 "/>
<text text-anchor="middle" x="53" y="-44.3" font-family="Verdana" font-size="9.00" fill="#555555">FullName</text>
<polyline fill="none" stroke="#555555" points="0,-37.5 106,-37.5 "/>
<text text-anchor="middle" x="53" y="-26.3" font-family="Verdana" font-size="9.00" fill="#555555">Created</text>
</g>
<!-- struct1 -->
<g id="node2" class="node">
<title>struct1</title>
<polygon fill="#f7f7f9" stroke="#555555" points="124,-127.5 124,-235.5 226,-235.5 226,-127.5 124,-127.5"/>
<text text-anchor="middle" x="175" y="-224.3" font-family="Verdana" font-size="9.00" fill="#555555">Table: LoginsLogs</text>
<polyline fill="none" stroke="#555555" points="124,-217.5 226,-217.5 "/>
<text text-anchor="middle" x="175" y="-206.3" font-family="Verdana" font-size="9.00" fill="#555555">Id</text>
<polyline fill="none" stroke="#555555" points="124,-199.5 226,-199.5 "/>
<text text-anchor="middle" x="175" y="-188.3" font-family="Verdana" font-size="9.00" fill="#555555">+ EmployeeId</text>
<polyline fill="none" stroke="#555555" points="124,-181.5 226,-181.5 "/>
<text text-anchor="middle" x="175" y="-170.3" font-family="Verdana" font-size="9.00" fill="#555555">FactDomainLogin</text>
<polyline fill="none" stroke="#555555" points="124,-163.5 226,-163.5 "/>
<text text-anchor="middle" x="175" y="-152.3" font-family="Verdana" font-size="9.00" fill="#555555">Created</text>
<polyline fill="none" stroke="#555555" points="124,-145.5 226,-145.5 "/>
<text text-anchor="middle" x="175" y="-134.3" font-family="Verdana" font-size="9.00" fill="#555555">RowVersion</text>
</g>
<!-- struct0&#45;&gt;struct1 -->
<g id="edge1" class="edge">
<title>struct0:c789577851_1&#45;&gt;struct1:c581577110_2</title>
<path fill="none" stroke="#337ab7" d="M106,-190.5C109.25,-190.5 111.51,-190.5 113.58,-190.5"/>
<polygon fill="#337ab7" stroke="#337ab7" points="114,-194 124,-190.5 114,-187 114,-194"/>
</g>
</g>
</svg>
