<?xml version="1.0" encoding="UTF-8" standalone="no"?>
<!DOCTYPE svg PUBLIC "-//W3C//DTD SVG 1.1//EN"
 "http://www.w3.org/Graphics/SVG/1.1/DTD/svg11.dtd">
<!-- Generated by graphviz version 5.0.0 (20220707.1540)
 -->
<!-- Title: g Pages: 1 -->
<svg width="411pt" height="442pt"
 viewBox="0.00 0.00 411.00 442.00" xmlns="http://www.w3.org/2000/svg" xmlns:xlink="http://www.w3.org/1999/xlink">
<g id="graph0" class="graph" transform="scale(1 1) rotate(0) translate(4 438)">
<title>g</title>
<polygon fill="white" stroke="transparent" points="-4,4 -4,-438 407,-438 407,4 -4,4"/>
<text text-anchor="middle" x="201.5" y="-7" font-family="Verdana" font-size="10.00">Table: ObjectsTypes</text>
<!-- struct0 -->
<g id="node1" class="node">
<title>struct0</title>
<polygon fill="#f7f7f9" stroke="#555555" points="0,-91.5 0,-289.5 106,-289.5 106,-91.5 0,-91.5"/>
<text text-anchor="middle" x="53" y="-278.3" font-family="Verdana" font-size="9.00" fill="#555555">Table: Employees</text>
<polyline fill="none" stroke="#555555" points="0,-271.5 106,-271.5 "/>
<text text-anchor="middle" x="53" y="-260.3" font-family="Verdana" font-size="9.00" fill="#555555">Id +</text>
<polyline fill="none" stroke="#555555" points="0,-253.5 106,-253.5 "/>
<text text-anchor="middle" x="53" y="-242.3" font-family="Verdana" font-size="9.00" fill="#555555">ExternalEmploeeId</text>
<polyline fill="none" stroke="#555555" points="0,-235.5 106,-235.5 "/>
<text text-anchor="middle" x="53" y="-224.3" font-family="Verdana" font-size="9.00" fill="#555555">Surname</text>
<polyline fill="none" stroke="#555555" points="0,-217.5 106,-217.5 "/>
<text text-anchor="middle" x="53" y="-206.3" font-family="Verdana" font-size="9.00" fill="#555555">Name</text>
<polyline fill="none" stroke="#555555" points="0,-199.5 106,-199.5 "/>
<text text-anchor="middle" x="53" y="-188.3" font-family="Verdana" font-size="9.00" fill="#555555">MiddleName</text>
<polyline fill="none" stroke="#555555" points="0,-181.5 106,-181.5 "/>
<text text-anchor="middle" x="53" y="-170.3" font-family="Verdana" font-size="9.00" fill="#555555">Email</text>
<polyline fill="none" stroke="#555555" points="0,-163.5 106,-163.5 "/>
<text text-anchor="middle" x="53" y="-152.3" font-family="Verdana" font-size="9.00" fill="#555555">DomainLogin</text>
<polyline fill="none" stroke="#555555" points="0,-145.5 106,-145.5 "/>
<text text-anchor="middle" x="53" y="-134.3" font-family="Verdana" font-size="9.00" fill="#555555">FIO</text>
<polyline fill="none" stroke="#555555" points="0,-127.5 106,-127.5 "/>
<text text-anchor="middle" x="53" y="-116.3" font-family="Verdana" font-size="9.00" fill="#555555">FullName</text>
<polyline fill="none" stroke="#555555" points="0,-109.5 106,-109.5 "/>
<text text-anchor="middle" x="53" y="-98.3" font-family="Verdana" font-size="9.00" fill="#555555">Created</text>
</g>
<!-- struct1 -->
<g id="node2" class="node">
<title>struct1</title>
<polygon fill="#f7f7f9" stroke="#555555" points="124,-199.5 124,-361.5 237,-361.5 237,-199.5 124,-199.5"/>
<text text-anchor="middle" x="180.5" y="-350.3" font-family="Verdana" font-size="9.00" fill="#555555">Table: ObjectsTypes</text>
<polyline fill="none" stroke="#555555" points="124,-343.5 237,-343.5 "/>
<text text-anchor="middle" x="180.5" y="-332.3" font-family="Verdana" font-size="9.00" fill="#555555">Id +</text>
<polyline fill="none" stroke="#555555" points="124,-325.5 237,-325.5 "/>
<text text-anchor="middle" x="180.5" y="-314.3" font-family="Verdana" font-size="9.00" fill="#555555">Name</text>
<polyline fill="none" stroke="#555555" points="124,-307.5 237,-307.5 "/>
<text text-anchor="middle" x="180.5" y="-296.3" font-family="Verdana" font-size="9.00" fill="#555555">Created</text>
<polyline fill="none" stroke="#555555" points="124,-289.5 237,-289.5 "/>
<text text-anchor="middle" x="180.5" y="-278.3" font-family="Verdana" font-size="9.00" fill="#555555">+ CreatedBy</text>
<polyline fill="none" stroke="#555555" points="124,-271.5 237,-271.5 "/>
<text text-anchor="middle" x="180.5" y="-260.3" font-family="Verdana" font-size="9.00" fill="#555555">Modified</text>
<polyline fill="none" stroke="#555555" points="124,-253.5 237,-253.5 "/>
<text text-anchor="middle" x="180.5" y="-242.3" font-family="Verdana" font-size="9.00" fill="#555555">+ ModifiedBy</text>
<polyline fill="none" stroke="#555555" points="124,-235.5 237,-235.5 "/>
<text text-anchor="middle" x="180.5" y="-224.3" font-family="Verdana" font-size="9.00" fill="#555555">RowVersion</text>
<polyline fill="none" stroke="#555555" points="124,-217.5 237,-217.5 "/>
<text text-anchor="middle" x="180.5" y="-206.3" font-family="Verdana" font-size="9.00" fill="#555555">IsActive</text>
</g>
<!-- struct0&#45;&gt;struct1 -->
<g id="edge2" class="edge">
<title>struct0:c789577851_1&#45;&gt;struct1:c949578421_5</title>
<path fill="none" stroke="#337ab7" d="M106,-262.5C112.72,-262.5 113.82,-268.85 115.97,-274"/>
<polygon fill="#337ab7" stroke="#337ab7" points="114.02,-276.93 124,-280.5 118.43,-271.49 114.02,-276.93"/>
</g>
<!-- struct0&#45;&gt;struct1 -->
<g id="edge3" class="edge">
<title>struct0:c789577851_1&#45;&gt;struct1:c949578421_7</title>
<path fill="none" stroke="#337ab7" d="M106,-262.5C112.72,-262.5 113.82,-256.15 115.97,-251"/>
<polygon fill="#337ab7" stroke="#337ab7" points="118.43,-253.51 124,-244.5 114.02,-248.07 118.43,-253.51"/>
</g>
<!-- struct2 -->
<g id="node3" class="node">
<title>struct2</title>
<polygon fill="#f7f7f9" stroke="#555555" points="255,-19.5 255,-433.5 403,-433.5 403,-19.5 255,-19.5"/>
<text text-anchor="middle" x="329" y="-422.3" font-family="Verdana" font-size="9.00" fill="#555555">Table: SapToroExtension</text>
<polyline fill="none" stroke="#555555" points="255,-415.5 403,-415.5 "/>
<text text-anchor="middle" x="329" y="-404.3" font-family="Verdana" font-size="9.00" fill="#555555">Id +</text>
<polyline fill="none" stroke="#555555" points="255,-397.5 403,-397.5 "/>
<text text-anchor="middle" x="329" y="-386.3" font-family="Verdana" font-size="9.00" fill="#555555">+ DepartmentId</text>
<polyline fill="none" stroke="#555555" points="255,-379.5 403,-379.5 "/>
<text text-anchor="middle" x="329" y="-368.3" font-family="Verdana" font-size="9.00" fill="#555555">Code</text>
<polyline fill="none" stroke="#555555" points="255,-361.5 403,-361.5 "/>
<text text-anchor="middle" x="329" y="-350.3" font-family="Verdana" font-size="9.00" fill="#555555">Name</text>
<polyline fill="none" stroke="#555555" points="255,-343.5 403,-343.5 "/>
<text text-anchor="middle" x="329" y="-332.3" font-family="Verdana" font-size="9.00" fill="#555555">+ ObjectTypeId</text>
<polyline fill="none" stroke="#555555" points="255,-325.5 403,-325.5 "/>
<text text-anchor="middle" x="329" y="-314.3" font-family="Verdana" font-size="9.00" fill="#555555">TechnologyNumber</text>
<polyline fill="none" stroke="#555555" points="255,-307.5 403,-307.5 "/>
<text text-anchor="middle" x="329" y="-296.3" font-family="Verdana" font-size="9.00" fill="#555555">RegistrationNumber</text>
<polyline fill="none" stroke="#555555" points="255,-289.5 403,-289.5 "/>
<text text-anchor="middle" x="329" y="-278.3" font-family="Verdana" font-size="9.00" fill="#555555">InventoryNumber</text>
<polyline fill="none" stroke="#555555" points="255,-271.5 403,-271.5 "/>
<text text-anchor="middle" x="329" y="-260.3" font-family="Verdana" font-size="9.00" fill="#555555">BeginDate</text>
<polyline fill="none" stroke="#555555" points="255,-253.5 403,-253.5 "/>
<text text-anchor="middle" x="329" y="-242.3" font-family="Verdana" font-size="9.00" fill="#555555">EndDate</text>
<polyline fill="none" stroke="#555555" points="255,-235.5 403,-235.5 "/>
<text text-anchor="middle" x="329" y="-224.3" font-family="Verdana" font-size="9.00" fill="#555555">PrimaryId</text>
<polyline fill="none" stroke="#555555" points="255,-217.5 403,-217.5 "/>
<text text-anchor="middle" x="329" y="-206.3" font-family="Verdana" font-size="9.00" fill="#555555">Created</text>
<polyline fill="none" stroke="#555555" points="255,-199.5 403,-199.5 "/>
<text text-anchor="middle" x="329" y="-188.3" font-family="Verdana" font-size="9.00" fill="#555555">+ CreatedBy</text>
<polyline fill="none" stroke="#555555" points="255,-181.5 403,-181.5 "/>
<text text-anchor="middle" x="329" y="-170.3" font-family="Verdana" font-size="9.00" fill="#555555">Modified</text>
<polyline fill="none" stroke="#555555" points="255,-163.5 403,-163.5 "/>
<text text-anchor="middle" x="329" y="-152.3" font-family="Verdana" font-size="9.00" fill="#555555">+ ModifiedBy</text>
<polyline fill="none" stroke="#555555" points="255,-145.5 403,-145.5 "/>
<text text-anchor="middle" x="329" y="-134.3" font-family="Verdana" font-size="9.00" fill="#555555">Deleted</text>
<polyline fill="none" stroke="#555555" points="255,-127.5 403,-127.5 "/>
<text text-anchor="middle" x="329" y="-116.3" font-family="Verdana" font-size="9.00" fill="#555555">+ DeletedBy</text>
<polyline fill="none" stroke="#555555" points="255,-109.5 403,-109.5 "/>
<text text-anchor="middle" x="329" y="-98.3" font-family="Verdana" font-size="9.00" fill="#555555">RowVersion</text>
<polyline fill="none" stroke="#555555" points="255,-91.5 403,-91.5 "/>
<text text-anchor="middle" x="329" y="-80.3" font-family="Verdana" font-size="9.00" fill="#555555">IsActive</text>
<polyline fill="none" stroke="#555555" points="255,-73.5 403,-73.5 "/>
<text text-anchor="middle" x="329" y="-62.3" font-family="Verdana" font-size="9.00" fill="#555555">+ HPFRegistrationNumberId</text>
<polyline fill="none" stroke="#555555" points="255,-55.5 403,-55.5 "/>
<text text-anchor="middle" x="329" y="-44.3" font-family="Verdana" font-size="9.00" fill="#555555">InServiceDate</text>
<polyline fill="none" stroke="#555555" points="255,-37.5 403,-37.5 "/>
<text text-anchor="middle" x="329" y="-26.3" font-family="Verdana" font-size="9.00" fill="#555555">+ ObjectsCategoryId</text>
</g>
<!-- struct1&#45;&gt;struct2 -->
<g id="edge1" class="edge">
<title>struct1:c949578421_1&#45;&gt;struct2:c1938105945_5</title>
<path fill="none" stroke="black" d="M237,-334.5C240.25,-334.5 242.51,-334.5 244.58,-334.5"/>
<polygon fill="black" stroke="black" points="245,-338 255,-334.5 245,-331 245,-338"/>
</g>
</g>
</svg>
