<?xml version="1.0" encoding="UTF-8" standalone="no"?>
<!DOCTYPE svg PUBLIC "-//W3C//DTD SVG 1.1//EN"
 "http://www.w3.org/Graphics/SVG/1.1/DTD/svg11.dtd">
<!-- Generated by graphviz version 5.0.0 (20220707.1540)
 -->
<!-- Title: g Pages: 1 -->
<svg width="418pt" height="1707pt"
 viewBox="0.00 0.00 418.00 1707.00" xmlns="http://www.w3.org/2000/svg" xmlns:xlink="http://www.w3.org/1999/xlink">
<g id="graph0" class="graph" transform="scale(1 1) rotate(0) translate(4 1703)">
<title>g</title>
<polygon fill="white" stroke="transparent" points="-4,4 -4,-1703 414,-1703 414,4 -4,4"/>
<text text-anchor="middle" x="205" y="-7" font-family="Verdana" font-size="10.00">Table: DistributionShedulesRecipients</text>
<!-- struct0 -->
<g id="node1" class="node">
<title>struct0</title>
<polygon fill="#f7f7f9" stroke="#555555" points="44,-615.5 44,-849.5 154,-849.5 154,-615.5 44,-615.5"/>
<text text-anchor="middle" x="99" y="-838.3" font-family="Verdana" font-size="9.00" fill="#555555">Table: Departments</text>
<polyline fill="none" stroke="#555555" points="44,-831.5 154,-831.5 "/>
<text text-anchor="middle" x="99" y="-820.3" font-family="Verdana" font-size="9.00" fill="#555555">Id +</text>
<polyline fill="none" stroke="#555555" points="44,-813.5 154,-813.5 "/>
<text text-anchor="middle" x="99" y="-802.3" font-family="Verdana" font-size="9.00" fill="#555555">+ SegmentId</text>
<polyline fill="none" stroke="#555555" points="44,-795.5 154,-795.5 "/>
<text text-anchor="middle" x="99" y="-784.3" font-family="Verdana" font-size="9.00" fill="#555555">Code</text>
<polyline fill="none" stroke="#555555" points="44,-777.5 154,-777.5 "/>
<text text-anchor="middle" x="99" y="-766.3" font-family="Verdana" font-size="9.00" fill="#555555">Name</text>
<polyline fill="none" stroke="#555555" points="44,-759.5 154,-759.5 "/>
<text text-anchor="middle" x="99" y="-748.3" font-family="Verdana" font-size="9.00" fill="#555555">Created</text>
<polyline fill="none" stroke="#555555" points="44,-741.5 154,-741.5 "/>
<text text-anchor="middle" x="99" y="-730.3" font-family="Verdana" font-size="9.00" fill="#555555">+ CreatedBy</text>
<polyline fill="none" stroke="#555555" points="44,-723.5 154,-723.5 "/>
<text text-anchor="middle" x="99" y="-712.3" font-family="Verdana" font-size="9.00" fill="#555555">Modified</text>
<polyline fill="none" stroke="#555555" points="44,-705.5 154,-705.5 "/>
<text text-anchor="middle" x="99" y="-694.3" font-family="Verdana" font-size="9.00" fill="#555555">+ ModifiedBy</text>
<polyline fill="none" stroke="#555555" points="44,-687.5 154,-687.5 "/>
<text text-anchor="middle" x="99" y="-676.3" font-family="Verdana" font-size="9.00" fill="#555555">Deleted</text>
<polyline fill="none" stroke="#555555" points="44,-669.5 154,-669.5 "/>
<text text-anchor="middle" x="99" y="-658.3" font-family="Verdana" font-size="9.00" fill="#555555">+ DeletedBy</text>
<polyline fill="none" stroke="#555555" points="44,-651.5 154,-651.5 "/>
<text text-anchor="middle" x="99" y="-640.3" font-family="Verdana" font-size="9.00" fill="#555555">RowVersion</text>
<polyline fill="none" stroke="#555555" points="44,-633.5 154,-633.5 "/>
<text text-anchor="middle" x="99" y="-622.3" font-family="Verdana" font-size="9.00" fill="#555555">IsActive</text>
</g>
<!-- struct2 -->
<g id="node3" class="node">
<title>struct2</title>
<polygon fill="#f7f7f9" stroke="#555555" points="216,-524.5 216,-812.5 410,-812.5 410,-524.5 216,-524.5"/>
<text text-anchor="middle" x="313" y="-801.3" font-family="Verdana" font-size="9.00" fill="#555555">Table: DistributionShedulesRecipients</text>
<polyline fill="none" stroke="#555555" points="216,-794.5 410,-794.5 "/>
<text text-anchor="middle" x="313" y="-783.3" font-family="Verdana" font-size="9.00" fill="#555555">Id</text>
<polyline fill="none" stroke="#555555" points="216,-776.5 410,-776.5 "/>
<text text-anchor="middle" x="313" y="-765.3" font-family="Verdana" font-size="9.00" fill="#555555">+ DistributionSheduleId</text>
<polyline fill="none" stroke="#555555" points="216,-758.5 410,-758.5 "/>
<text text-anchor="middle" x="313" y="-747.3" font-family="Verdana" font-size="9.00" fill="#555555">+ AuditedEnterpiseId</text>
<polyline fill="none" stroke="#555555" points="216,-740.5 410,-740.5 "/>
<text text-anchor="middle" x="313" y="-729.3" font-family="Verdana" font-size="9.00" fill="#555555">+ AuditedSegmentId</text>
<polyline fill="none" stroke="#555555" points="216,-722.5 410,-722.5 "/>
<text text-anchor="middle" x="313" y="-711.3" font-family="Verdana" font-size="9.00" fill="#555555">+ AuditedDepartmentId</text>
<polyline fill="none" stroke="#555555" points="216,-704.5 410,-704.5 "/>
<text text-anchor="middle" x="313" y="-693.3" font-family="Verdana" font-size="9.00" fill="#555555">AuditedOrganizationUnitName</text>
<polyline fill="none" stroke="#555555" points="216,-686.5 410,-686.5 "/>
<text text-anchor="middle" x="313" y="-675.3" font-family="Verdana" font-size="9.00" fill="#555555">+ EmployeesWorkPlaceId</text>
<polyline fill="none" stroke="#555555" points="216,-668.5 410,-668.5 "/>
<text text-anchor="middle" x="313" y="-657.3" font-family="Verdana" font-size="9.00" fill="#555555">Created</text>
<polyline fill="none" stroke="#555555" points="216,-650.5 410,-650.5 "/>
<text text-anchor="middle" x="313" y="-639.3" font-family="Verdana" font-size="9.00" fill="#555555">+ CreatedBy</text>
<polyline fill="none" stroke="#555555" points="216,-632.5 410,-632.5 "/>
<text text-anchor="middle" x="313" y="-621.3" font-family="Verdana" font-size="9.00" fill="#555555">Modified</text>
<polyline fill="none" stroke="#555555" points="216,-614.5 410,-614.5 "/>
<text text-anchor="middle" x="313" y="-603.3" font-family="Verdana" font-size="9.00" fill="#555555">+ ModifiedBy</text>
<polyline fill="none" stroke="#555555" points="216,-596.5 410,-596.5 "/>
<text text-anchor="middle" x="313" y="-585.3" font-family="Verdana" font-size="9.00" fill="#555555">Deleted</text>
<polyline fill="none" stroke="#555555" points="216,-578.5 410,-578.5 "/>
<text text-anchor="middle" x="313" y="-567.3" font-family="Verdana" font-size="9.00" fill="#555555">+ DeletedBy</text>
<polyline fill="none" stroke="#555555" points="216,-560.5 410,-560.5 "/>
<text text-anchor="middle" x="313" y="-549.3" font-family="Verdana" font-size="9.00" fill="#555555">RowVersion</text>
<polyline fill="none" stroke="#555555" points="216,-542.5 410,-542.5 "/>
<text text-anchor="middle" x="313" y="-531.3" font-family="Verdana" font-size="9.00" fill="#555555">IsActive</text>
</g>
<!-- struct0&#45;&gt;struct2 -->
<g id="edge4" class="edge">
<title>struct0:c693577509_1&#45;&gt;struct2:c1522104463_5</title>
<path fill="none" stroke="#337ab7" d="M155,-822.5C206.61,-822.5 167,-728.29 205.78,-715.04"/>
<polygon fill="#337ab7" stroke="#337ab7" points="206.63,-718.45 216,-713.5 205.59,-711.53 206.63,-718.45"/>
</g>
<!-- struct1 -->
<g id="node2" class="node">
<title>struct1</title>
<polygon fill="#f7f7f9" stroke="#555555" points="23,-1374.5 23,-1698.5 175,-1698.5 175,-1374.5 23,-1374.5"/>
<text text-anchor="middle" x="99" y="-1687.3" font-family="Verdana" font-size="9.00" fill="#555555">Table: DistributionShedules</text>
<polyline fill="none" stroke="#555555" points="23,-1680.5 175,-1680.5 "/>
<text text-anchor="middle" x="99" y="-1669.3" font-family="Verdana" font-size="9.00" fill="#555555">Id +</text>
<polyline fill="none" stroke="#555555" points="23,-1662.5 175,-1662.5 "/>
<text text-anchor="middle" x="99" y="-1651.3" font-family="Verdana" font-size="9.00" fill="#555555">+ EnterpriseId</text>
<polyline fill="none" stroke="#555555" points="23,-1644.5 175,-1644.5 "/>
<text text-anchor="middle" x="99" y="-1633.3" font-family="Verdana" font-size="9.00" fill="#555555">+ DistributionTrackingTypeId</text>
<polyline fill="none" stroke="#555555" points="23,-1626.5 175,-1626.5 "/>
<text text-anchor="middle" x="99" y="-1615.3" font-family="Verdana" font-size="9.00" fill="#555555">+ DistributionDaysTypeId</text>
<polyline fill="none" stroke="#555555" points="23,-1608.5 175,-1608.5 "/>
<text text-anchor="middle" x="99" y="-1597.3" font-family="Verdana" font-size="9.00" fill="#555555">+ DistributionPeriodicityId</text>
<polyline fill="none" stroke="#555555" points="23,-1590.5 175,-1590.5 "/>
<text text-anchor="middle" x="99" y="-1579.3" font-family="Verdana" font-size="9.00" fill="#555555">DaysNumber</text>
<polyline fill="none" stroke="#555555" points="23,-1572.5 175,-1572.5 "/>
<text text-anchor="middle" x="99" y="-1561.3" font-family="Verdana" font-size="9.00" fill="#555555">Name</text>
<polyline fill="none" stroke="#555555" points="23,-1554.5 175,-1554.5 "/>
<text text-anchor="middle" x="99" y="-1543.3" font-family="Verdana" font-size="9.00" fill="#555555">StartDate</text>
<polyline fill="none" stroke="#555555" points="23,-1536.5 175,-1536.5 "/>
<text text-anchor="middle" x="99" y="-1525.3" font-family="Verdana" font-size="9.00" fill="#555555">Remainder</text>
<polyline fill="none" stroke="#555555" points="23,-1518.5 175,-1518.5 "/>
<text text-anchor="middle" x="99" y="-1507.3" font-family="Verdana" font-size="9.00" fill="#555555">Created</text>
<polyline fill="none" stroke="#555555" points="23,-1500.5 175,-1500.5 "/>
<text text-anchor="middle" x="99" y="-1489.3" font-family="Verdana" font-size="9.00" fill="#555555">+ CreatedBy</text>
<polyline fill="none" stroke="#555555" points="23,-1482.5 175,-1482.5 "/>
<text text-anchor="middle" x="99" y="-1471.3" font-family="Verdana" font-size="9.00" fill="#555555">Modified</text>
<polyline fill="none" stroke="#555555" points="23,-1464.5 175,-1464.5 "/>
<text text-anchor="middle" x="99" y="-1453.3" font-family="Verdana" font-size="9.00" fill="#555555">+ ModifiedBy</text>
<polyline fill="none" stroke="#555555" points="23,-1446.5 175,-1446.5 "/>
<text text-anchor="middle" x="99" y="-1435.3" font-family="Verdana" font-size="9.00" fill="#555555">Deleted</text>
<polyline fill="none" stroke="#555555" points="23,-1428.5 175,-1428.5 "/>
<text text-anchor="middle" x="99" y="-1417.3" font-family="Verdana" font-size="9.00" fill="#555555">+ DeletedBy</text>
<polyline fill="none" stroke="#555555" points="23,-1410.5 175,-1410.5 "/>
<text text-anchor="middle" x="99" y="-1399.3" font-family="Verdana" font-size="9.00" fill="#555555">RowVersion</text>
<polyline fill="none" stroke="#555555" points="23,-1392.5 175,-1392.5 "/>
<text text-anchor="middle" x="99" y="-1381.3" font-family="Verdana" font-size="9.00" fill="#555555">IsActive</text>
</g>
<!-- struct1&#45;&gt;struct2 -->
<g id="edge1" class="edge">
<title>struct1:c1186103266_1&#45;&gt;struct2:c1522104463_2</title>
<path fill="none" stroke="#337ab7" d="M176,-1671.5C312.35,-1671.5 191.06,-1501.67 198,-1365.5 198.78,-1350.17 199.3,-852.8 212.48,-777.11"/>
<polygon fill="#337ab7" stroke="#337ab7" points="215.84,-778.09 216,-767.5 209.27,-775.68 215.84,-778.09"/>
</g>
<!-- struct3 -->
<g id="node4" class="node">
<title>struct3</title>
<polygon fill="#f7f7f9" stroke="#555555" points="46,-19.5 46,-217.5 152,-217.5 152,-19.5 46,-19.5"/>
<text text-anchor="middle" x="99" y="-206.3" font-family="Verdana" font-size="9.00" fill="#555555">Table: Employees</text>
<polyline fill="none" stroke="#555555" points="46,-199.5 152,-199.5 "/>
<text text-anchor="middle" x="99" y="-188.3" font-family="Verdana" font-size="9.00" fill="#555555">Id +</text>
<polyline fill="none" stroke="#555555" points="46,-181.5 152,-181.5 "/>
<text text-anchor="middle" x="99" y="-170.3" font-family="Verdana" font-size="9.00" fill="#555555">ExternalEmploeeId</text>
<polyline fill="none" stroke="#555555" points="46,-163.5 152,-163.5 "/>
<text text-anchor="middle" x="99" y="-152.3" font-family="Verdana" font-size="9.00" fill="#555555">Surname</text>
<polyline fill="none" stroke="#555555" points="46,-145.5 152,-145.5 "/>
<text text-anchor="middle" x="99" y="-134.3" font-family="Verdana" font-size="9.00" fill="#555555">Name</text>
<polyline fill="none" stroke="#555555" points="46,-127.5 152,-127.5 "/>
<text text-anchor="middle" x="99" y="-116.3" font-family="Verdana" font-size="9.00" fill="#555555">MiddleName</text>
<polyline fill="none" stroke="#555555" points="46,-109.5 152,-109.5 "/>
<text text-anchor="middle" x="99" y="-98.3" font-family="Verdana" font-size="9.00" fill="#555555">Email</text>
<polyline fill="none" stroke="#555555" points="46,-91.5 152,-91.5 "/>
<text text-anchor="middle" x="99" y="-80.3" font-family="Verdana" font-size="9.00" fill="#555555">DomainLogin</text>
<polyline fill="none" stroke="#555555" points="46,-73.5 152,-73.5 "/>
<text text-anchor="middle" x="99" y="-62.3" font-family="Verdana" font-size="9.00" fill="#555555">FIO</text>
<polyline fill="none" stroke="#555555" points="46,-55.5 152,-55.5 "/>
<text text-anchor="middle" x="99" y="-44.3" font-family="Verdana" font-size="9.00" fill="#555555">FullName</text>
<polyline fill="none" stroke="#555555" points="46,-37.5 152,-37.5 "/>
<text text-anchor="middle" x="99" y="-26.3" font-family="Verdana" font-size="9.00" fill="#555555">Created</text>
</g>
<!-- struct3&#45;&gt;struct2 -->
<g id="edge6" class="edge">
<title>struct3:c789577851_1&#45;&gt;struct2:c1522104463_10</title>
<path fill="none" stroke="#337ab7" d="M153,-190.5C178.61,-190.5 186.41,-203.66 198,-226.5 207.53,-245.27 195.45,-575.06 210.77,-632.88"/>
<polygon fill="#337ab7" stroke="#337ab7" points="207.82,-634.77 216,-641.5 213.8,-631.14 207.82,-634.77"/>
</g>
<!-- struct3&#45;&gt;struct2 -->
<g id="edge7" class="edge">
<title>struct3:c789577851_1&#45;&gt;struct2:c1522104463_12</title>
<path fill="none" stroke="#337ab7" d="M153,-190.5C178.61,-190.5 186.36,-203.69 198,-226.5 206.68,-243.52 197.1,-540.96 210.91,-596.58"/>
<polygon fill="#337ab7" stroke="#337ab7" points="208.01,-598.55 216,-605.5 214.09,-595.08 208.01,-598.55"/>
</g>
<!-- struct3&#45;&gt;struct2 -->
<g id="edge8" class="edge">
<title>struct3:c789577851_1&#45;&gt;struct2:c1522104463_14</title>
<path fill="none" stroke="#337ab7" d="M153,-190.5C178.61,-190.5 186.3,-203.71 198,-226.5 213.96,-257.6 183.76,-519.53 207.91,-563.31"/>
<polygon fill="#337ab7" stroke="#337ab7" points="205.93,-566.2 216,-569.5 210.19,-560.64 205.93,-566.2"/>
</g>
<!-- struct4 -->
<g id="node5" class="node">
<title>struct4</title>
<polygon fill="#f7f7f9" stroke="#555555" points="0,-236.5 0,-596.5 198,-596.5 198,-236.5 0,-236.5"/>
<text text-anchor="middle" x="99" y="-585.3" font-family="Verdana" font-size="9.00" fill="#555555">Table: EmployeeWorkPlaces</text>
<polyline fill="none" stroke="#555555" points="0,-578.5 198,-578.5 "/>
<text text-anchor="middle" x="99" y="-567.3" font-family="Verdana" font-size="9.00" fill="#555555">Id +</text>
<polyline fill="none" stroke="#555555" points="0,-560.5 198,-560.5 "/>
<text text-anchor="middle" x="99" y="-549.3" font-family="Verdana" font-size="9.00" fill="#555555">+ EmployeeId</text>
<polyline fill="none" stroke="#555555" points="0,-542.5 198,-542.5 "/>
<text text-anchor="middle" x="99" y="-531.3" font-family="Verdana" font-size="9.00" fill="#555555">ExternalEmployeeId</text>
<polyline fill="none" stroke="#555555" points="0,-524.5 198,-524.5 "/>
<text text-anchor="middle" x="99" y="-513.3" font-family="Verdana" font-size="9.00" fill="#555555">ExternalPersonnelCode</text>
<polyline fill="none" stroke="#555555" points="0,-506.5 198,-506.5 "/>
<text text-anchor="middle" x="99" y="-495.3" font-family="Verdana" font-size="9.00" fill="#555555">ExternalEmployeeWorkPlaceId</text>
<polyline fill="none" stroke="#555555" points="0,-488.5 198,-488.5 "/>
<text text-anchor="middle" x="99" y="-477.3" font-family="Verdana" font-size="9.00" fill="#555555">ExternalJobTitleId</text>
<polyline fill="none" stroke="#555555" points="0,-470.5 198,-470.5 "/>
<text text-anchor="middle" x="99" y="-459.3" font-family="Verdana" font-size="9.00" fill="#555555">ExternalJobTitleName</text>
<polyline fill="none" stroke="#555555" points="0,-452.5 198,-452.5 "/>
<text text-anchor="middle" x="99" y="-441.3" font-family="Verdana" font-size="9.00" fill="#555555">ExternalWorkplaceCode</text>
<polyline fill="none" stroke="#555555" points="0,-434.5 198,-434.5 "/>
<text text-anchor="middle" x="99" y="-423.3" font-family="Verdana" font-size="9.00" fill="#555555">ExternalWorkPlaceName</text>
<polyline fill="none" stroke="#555555" points="0,-416.5 198,-416.5 "/>
<text text-anchor="middle" x="99" y="-405.3" font-family="Verdana" font-size="9.00" fill="#555555">ExternalOrganizationUnitId</text>
<polyline fill="none" stroke="#555555" points="0,-398.5 198,-398.5 "/>
<text text-anchor="middle" x="99" y="-387.3" font-family="Verdana" font-size="9.00" fill="#555555">ExternalOrganizationUnitName</text>
<polyline fill="none" stroke="#555555" points="0,-380.5 198,-380.5 "/>
<text text-anchor="middle" x="99" y="-369.3" font-family="Verdana" font-size="9.00" fill="#555555">ExternalParentOrganizationUnitName</text>
<polyline fill="none" stroke="#555555" points="0,-362.5 198,-362.5 "/>
<text text-anchor="middle" x="99" y="-351.3" font-family="Verdana" font-size="9.00" fill="#555555">ExternalAuditedOrganizationUnitName</text>
<polyline fill="none" stroke="#555555" points="0,-344.5 198,-344.5 "/>
<text text-anchor="middle" x="99" y="-333.3" font-family="Verdana" font-size="9.00" fill="#555555">ExternalIsOutside</text>
<polyline fill="none" stroke="#555555" points="0,-326.5 198,-326.5 "/>
<text text-anchor="middle" x="99" y="-315.3" font-family="Verdana" font-size="9.00" fill="#555555">ExternalOrganizationUnitFullName</text>
<polyline fill="none" stroke="#555555" points="0,-308.5 198,-308.5 "/>
<text text-anchor="middle" x="99" y="-297.3" font-family="Verdana" font-size="9.00" fill="#555555">ExternalEnterpriseId</text>
<polyline fill="none" stroke="#555555" points="0,-290.5 198,-290.5 "/>
<text text-anchor="middle" x="99" y="-279.3" font-family="Verdana" font-size="9.00" fill="#555555">Created</text>
<polyline fill="none" stroke="#555555" points="0,-272.5 198,-272.5 "/>
<text text-anchor="middle" x="99" y="-261.3" font-family="Verdana" font-size="9.00" fill="#555555">+ CreatedBy</text>
<polyline fill="none" stroke="#555555" points="0,-254.5 198,-254.5 "/>
<text text-anchor="middle" x="99" y="-243.3" font-family="Verdana" font-size="9.00" fill="#555555">RowVersion</text>
</g>
<!-- struct4&#45;&gt;struct2 -->
<g id="edge5" class="edge">
<title>struct4:c1714105147_1&#45;&gt;struct2:c1522104463_7</title>
<path fill="none" stroke="#337ab7" d="M198,-569.5C242.48,-569.5 180.03,-659.74 206.13,-675.24"/>
<polygon fill="#337ab7" stroke="#337ab7" points="205.47,-678.68 216,-677.5 207.03,-671.86 205.47,-678.68"/>
</g>
<!-- struct5 -->
<g id="node6" class="node">
<title>struct5</title>
<polygon fill="#f7f7f9" stroke="#555555" points="42,-1121.5 42,-1355.5 156,-1355.5 156,-1121.5 42,-1121.5"/>
<text text-anchor="middle" x="99" y="-1344.3" font-family="Verdana" font-size="9.00" fill="#555555">Table: Enterprises</text>
<polyline fill="none" stroke="#555555" points="42,-1337.5 156,-1337.5 "/>
<text text-anchor="middle" x="99" y="-1326.3" font-family="Verdana" font-size="9.00" fill="#555555">Id +</text>
<polyline fill="none" stroke="#555555" points="42,-1319.5 156,-1319.5 "/>
<text text-anchor="middle" x="99" y="-1308.3" font-family="Verdana" font-size="9.00" fill="#555555">Code</text>
<polyline fill="none" stroke="#555555" points="42,-1301.5 156,-1301.5 "/>
<text text-anchor="middle" x="99" y="-1290.3" font-family="Verdana" font-size="9.00" fill="#555555">Name</text>
<polyline fill="none" stroke="#555555" points="42,-1283.5 156,-1283.5 "/>
<text text-anchor="middle" x="99" y="-1272.3" font-family="Verdana" font-size="9.00" fill="#555555">ExternalEnterpriseId</text>
<polyline fill="none" stroke="#555555" points="42,-1265.5 156,-1265.5 "/>
<text text-anchor="middle" x="99" y="-1254.3" font-family="Verdana" font-size="9.00" fill="#555555">Created</text>
<polyline fill="none" stroke="#555555" points="42,-1247.5 156,-1247.5 "/>
<text text-anchor="middle" x="99" y="-1236.3" font-family="Verdana" font-size="9.00" fill="#555555">+ CreatedBy</text>
<polyline fill="none" stroke="#555555" points="42,-1229.5 156,-1229.5 "/>
<text text-anchor="middle" x="99" y="-1218.3" font-family="Verdana" font-size="9.00" fill="#555555">Modified</text>
<polyline fill="none" stroke="#555555" points="42,-1211.5 156,-1211.5 "/>
<text text-anchor="middle" x="99" y="-1200.3" font-family="Verdana" font-size="9.00" fill="#555555">+ ModifiedBy</text>
<polyline fill="none" stroke="#555555" points="42,-1193.5 156,-1193.5 "/>
<text text-anchor="middle" x="99" y="-1182.3" font-family="Verdana" font-size="9.00" fill="#555555">Deleted</text>
<polyline fill="none" stroke="#555555" points="42,-1175.5 156,-1175.5 "/>
<text text-anchor="middle" x="99" y="-1164.3" font-family="Verdana" font-size="9.00" fill="#555555">+ DeletedBy</text>
<polyline fill="none" stroke="#555555" points="42,-1157.5 156,-1157.5 "/>
<text text-anchor="middle" x="99" y="-1146.3" font-family="Verdana" font-size="9.00" fill="#555555">RowVersion</text>
<polyline fill="none" stroke="#555555" points="42,-1139.5 156,-1139.5 "/>
<text text-anchor="middle" x="99" y="-1128.3" font-family="Verdana" font-size="9.00" fill="#555555">IsActive</text>
</g>
<!-- struct5&#45;&gt;struct2 -->
<g id="edge2" class="edge">
<title>struct5:c741577680_1&#45;&gt;struct2:c1522104463_3</title>
<path fill="none" stroke="#337ab7" d="M157,-1328.5C254.71,-1328.5 186.44,-1209.53 198,-1112.5 200.16,-1094.37 196.62,-812.19 210.86,-758.34"/>
<polygon fill="#337ab7" stroke="#337ab7" points="214,-759.9 216,-749.5 207.95,-756.38 214,-759.9"/>
</g>
<!-- struct6 -->
<g id="node7" class="node">
<title>struct6</title>
<polygon fill="#f7f7f9" stroke="#555555" points="51,-868.5 51,-1102.5 147,-1102.5 147,-868.5 51,-868.5"/>
<text text-anchor="middle" x="99" y="-1091.3" font-family="Verdana" font-size="9.00" fill="#555555">Table: Segments</text>
<polyline fill="none" stroke="#555555" points="51,-1084.5 147,-1084.5 "/>
<text text-anchor="middle" x="99" y="-1073.3" font-family="Verdana" font-size="9.00" fill="#555555">Id +</text>
<polyline fill="none" stroke="#555555" points="51,-1066.5 147,-1066.5 "/>
<text text-anchor="middle" x="99" y="-1055.3" font-family="Verdana" font-size="9.00" fill="#555555">+ EnterpriseId</text>
<polyline fill="none" stroke="#555555" points="51,-1048.5 147,-1048.5 "/>
<text text-anchor="middle" x="99" y="-1037.3" font-family="Verdana" font-size="9.00" fill="#555555">Code</text>
<polyline fill="none" stroke="#555555" points="51,-1030.5 147,-1030.5 "/>
<text text-anchor="middle" x="99" y="-1019.3" font-family="Verdana" font-size="9.00" fill="#555555">Name</text>
<polyline fill="none" stroke="#555555" points="51,-1012.5 147,-1012.5 "/>
<text text-anchor="middle" x="99" y="-1001.3" font-family="Verdana" font-size="9.00" fill="#555555">Created</text>
<polyline fill="none" stroke="#555555" points="51,-994.5 147,-994.5 "/>
<text text-anchor="middle" x="99" y="-983.3" font-family="Verdana" font-size="9.00" fill="#555555">+ CreatedBy</text>
<polyline fill="none" stroke="#555555" points="51,-976.5 147,-976.5 "/>
<text text-anchor="middle" x="99" y="-965.3" font-family="Verdana" font-size="9.00" fill="#555555">Modified</text>
<polyline fill="none" stroke="#555555" points="51,-958.5 147,-958.5 "/>
<text text-anchor="middle" x="99" y="-947.3" font-family="Verdana" font-size="9.00" fill="#555555">+ ModifiedBy</text>
<polyline fill="none" stroke="#555555" points="51,-940.5 147,-940.5 "/>
<text text-anchor="middle" x="99" y="-929.3" font-family="Verdana" font-size="9.00" fill="#555555">Deleted</text>
<polyline fill="none" stroke="#555555" points="51,-922.5 147,-922.5 "/>
<text text-anchor="middle" x="99" y="-911.3" font-family="Verdana" font-size="9.00" fill="#555555">+ DeletedBy</text>
<polyline fill="none" stroke="#555555" points="51,-904.5 147,-904.5 "/>
<text text-anchor="middle" x="99" y="-893.3" font-family="Verdana" font-size="9.00" fill="#555555">RowVersion</text>
<polyline fill="none" stroke="#555555" points="51,-886.5 147,-886.5 "/>
<text text-anchor="middle" x="99" y="-875.3" font-family="Verdana" font-size="9.00" fill="#555555">IsActive</text>
</g>
<!-- struct6&#45;&gt;struct2 -->
<g id="edge3" class="edge">
<title>struct6:c645577338_1&#45;&gt;struct2:c1522104463_4</title>
<path fill="none" stroke="#337ab7" d="M148,-1075.5C246.54,-1075.5 180.01,-956.38 198,-859.5 202.57,-834.9 191.04,-756.03 206.98,-736.11"/>
<polygon fill="#337ab7" stroke="#337ab7" points="208.69,-739.16 216,-731.5 205.5,-732.93 208.69,-739.16"/>
</g>
</g>
</svg>
