<?xml version="1.0" encoding="UTF-8" standalone="no"?>
<!DOCTYPE svg PUBLIC "-//W3C//DTD SVG 1.1//EN"
 "http://www.w3.org/Graphics/SVG/1.1/DTD/svg11.dtd">
<!-- Generated by graphviz version 5.0.0 (20220707.1540)
 -->
<!-- Title: g Pages: 1 -->
<svg width="566pt" height="849pt"
 viewBox="0.00 0.00 566.00 849.00" xmlns="http://www.w3.org/2000/svg" xmlns:xlink="http://www.w3.org/1999/xlink">
<g id="graph0" class="graph" transform="scale(1 1) rotate(0) translate(4 845)">
<title>g</title>
<polygon fill="white" stroke="transparent" points="-4,4 -4,-845 562,-845 562,4 -4,4"/>
<text text-anchor="middle" x="279" y="-7" font-family="Verdana" font-size="10.00">Table: Examinations</text>
<!-- struct0 -->
<g id="node1" class="node">
<title>struct0</title>
<polygon fill="#f7f7f9" stroke="#555555" points="33.5,-218.5 33.5,-416.5 139.5,-416.5 139.5,-218.5 33.5,-218.5"/>
<text text-anchor="middle" x="86.5" y="-405.3" font-family="Verdana" font-size="9.00" fill="#555555">Table: Employees</text>
<polyline fill="none" stroke="#555555" points="33.5,-398.5 139.5,-398.5 "/>
<text text-anchor="middle" x="86.5" y="-387.3" font-family="Verdana" font-size="9.00" fill="#555555">Id +</text>
<polyline fill="none" stroke="#555555" points="33.5,-380.5 139.5,-380.5 "/>
<text text-anchor="middle" x="86.5" y="-369.3" font-family="Verdana" font-size="9.00" fill="#555555">ExternalEmploeeId</text>
<polyline fill="none" stroke="#555555" points="33.5,-362.5 139.5,-362.5 "/>
<text text-anchor="middle" x="86.5" y="-351.3" font-family="Verdana" font-size="9.00" fill="#555555">Surname</text>
<polyline fill="none" stroke="#555555" points="33.5,-344.5 139.5,-344.5 "/>
<text text-anchor="middle" x="86.5" y="-333.3" font-family="Verdana" font-size="9.00" fill="#555555">Name</text>
<polyline fill="none" stroke="#555555" points="33.5,-326.5 139.5,-326.5 "/>
<text text-anchor="middle" x="86.5" y="-315.3" font-family="Verdana" font-size="9.00" fill="#555555">MiddleName</text>
<polyline fill="none" stroke="#555555" points="33.5,-308.5 139.5,-308.5 "/>
<text text-anchor="middle" x="86.5" y="-297.3" font-family="Verdana" font-size="9.00" fill="#555555">Email</text>
<polyline fill="none" stroke="#555555" points="33.5,-290.5 139.5,-290.5 "/>
<text text-anchor="middle" x="86.5" y="-279.3" font-family="Verdana" font-size="9.00" fill="#555555">DomainLogin</text>
<polyline fill="none" stroke="#555555" points="33.5,-272.5 139.5,-272.5 "/>
<text text-anchor="middle" x="86.5" y="-261.3" font-family="Verdana" font-size="9.00" fill="#555555">FIO</text>
<polyline fill="none" stroke="#555555" points="33.5,-254.5 139.5,-254.5 "/>
<text text-anchor="middle" x="86.5" y="-243.3" font-family="Verdana" font-size="9.00" fill="#555555">FullName</text>
<polyline fill="none" stroke="#555555" points="33.5,-236.5 139.5,-236.5 "/>
<text text-anchor="middle" x="86.5" y="-225.3" font-family="Verdana" font-size="9.00" fill="#555555">Created</text>
</g>
<!-- struct1 -->
<g id="node2" class="node">
<title>struct1</title>
<polygon fill="#f7f7f9" stroke="#555555" points="191,-182.5 191,-560.5 346,-560.5 346,-182.5 191,-182.5"/>
<text text-anchor="middle" x="268.5" y="-549.3" font-family="Verdana" font-size="9.00" fill="#555555">Table: Examinations</text>
<polyline fill="none" stroke="#555555" points="191,-542.5 346,-542.5 "/>
<text text-anchor="middle" x="268.5" y="-531.3" font-family="Verdana" font-size="9.00" fill="#555555">Id +</text>
<polyline fill="none" stroke="#555555" points="191,-524.5 346,-524.5 "/>
<text text-anchor="middle" x="268.5" y="-513.3" font-family="Verdana" font-size="9.00" fill="#555555">+ ObjectsCardId</text>
<polyline fill="none" stroke="#555555" points="191,-506.5 346,-506.5 "/>
<text text-anchor="middle" x="268.5" y="-495.3" font-family="Verdana" font-size="9.00" fill="#555555">PlanDate</text>
<polyline fill="none" stroke="#555555" points="191,-488.5 346,-488.5 "/>
<text text-anchor="middle" x="268.5" y="-477.3" font-family="Verdana" font-size="9.00" fill="#555555">FactDate</text>
<polyline fill="none" stroke="#555555" points="191,-470.5 346,-470.5 "/>
<text text-anchor="middle" x="268.5" y="-459.3" font-family="Verdana" font-size="9.00" fill="#555555">ConclusionsNumber</text>
<polyline fill="none" stroke="#555555" points="191,-452.5 346,-452.5 "/>
<text text-anchor="middle" x="268.5" y="-441.3" font-family="Verdana" font-size="9.00" fill="#555555">NextPlanDate</text>
<polyline fill="none" stroke="#555555" points="191,-434.5 346,-434.5 "/>
<text text-anchor="middle" x="268.5" y="-423.3" font-family="Verdana" font-size="9.00" fill="#555555">Created</text>
<polyline fill="none" stroke="#555555" points="191,-416.5 346,-416.5 "/>
<text text-anchor="middle" x="268.5" y="-405.3" font-family="Verdana" font-size="9.00" fill="#555555">+ CreatedBy</text>
<polyline fill="none" stroke="#555555" points="191,-398.5 346,-398.5 "/>
<text text-anchor="middle" x="268.5" y="-387.3" font-family="Verdana" font-size="9.00" fill="#555555">Modified</text>
<polyline fill="none" stroke="#555555" points="191,-380.5 346,-380.5 "/>
<text text-anchor="middle" x="268.5" y="-369.3" font-family="Verdana" font-size="9.00" fill="#555555">+ ModifiedBy</text>
<polyline fill="none" stroke="#555555" points="191,-362.5 346,-362.5 "/>
<text text-anchor="middle" x="268.5" y="-351.3" font-family="Verdana" font-size="9.00" fill="#555555">Deleted</text>
<polyline fill="none" stroke="#555555" points="191,-344.5 346,-344.5 "/>
<text text-anchor="middle" x="268.5" y="-333.3" font-family="Verdana" font-size="9.00" fill="#555555">+ DeletedBy</text>
<polyline fill="none" stroke="#555555" points="191,-326.5 346,-326.5 "/>
<text text-anchor="middle" x="268.5" y="-315.3" font-family="Verdana" font-size="9.00" fill="#555555">RowVersion</text>
<polyline fill="none" stroke="#555555" points="191,-308.5 346,-308.5 "/>
<text text-anchor="middle" x="268.5" y="-297.3" font-family="Verdana" font-size="9.00" fill="#555555">IsActive</text>
<polyline fill="none" stroke="#555555" points="191,-290.5 346,-290.5 "/>
<text text-anchor="middle" x="268.5" y="-279.3" font-family="Verdana" font-size="9.00" fill="#555555">IsInOperatingState</text>
<polyline fill="none" stroke="#555555" points="191,-272.5 346,-272.5 "/>
<text text-anchor="middle" x="268.5" y="-261.3" font-family="Verdana" font-size="9.00" fill="#555555">IsOffline</text>
<polyline fill="none" stroke="#555555" points="191,-254.5 346,-254.5 "/>
<text text-anchor="middle" x="268.5" y="-243.3" font-family="Verdana" font-size="9.00" fill="#555555">IsOfflineSource</text>
<polyline fill="none" stroke="#555555" points="191,-236.5 346,-236.5 "/>
<text text-anchor="middle" x="268.5" y="-225.3" font-family="Verdana" font-size="9.00" fill="#555555">InterimDate</text>
<polyline fill="none" stroke="#555555" points="191,-218.5 346,-218.5 "/>
<text text-anchor="middle" x="268.5" y="-207.3" font-family="Verdana" font-size="9.00" fill="#555555">Name</text>
<polyline fill="none" stroke="#555555" points="191,-200.5 346,-200.5 "/>
<text text-anchor="middle" x="268.5" y="-189.3" font-family="Verdana" font-size="9.00" fill="#555555">+ RequirementsComplianceId</text>
</g>
<!-- struct0&#45;&gt;struct1 -->
<g id="edge4" class="edge">
<title>struct0:c789577851_1&#45;&gt;struct1:c1077578877_9</title>
<path fill="none" stroke="#337ab7" d="M140.5,-389.5C160.42,-389.5 165.67,-402.08 180.78,-406.21"/>
<polygon fill="#337ab7" stroke="#337ab7" points="180.64,-409.72 191,-407.5 181.52,-402.77 180.64,-409.72"/>
</g>
<!-- struct0&#45;&gt;struct1 -->
<g id="edge5" class="edge">
<title>struct0:c789577851_1&#45;&gt;struct1:c1077578877_11</title>
<path fill="none" stroke="#337ab7" d="M140.5,-389.5C160.42,-389.5 165.67,-376.92 180.78,-372.79"/>
<polygon fill="#337ab7" stroke="#337ab7" points="181.52,-376.23 191,-371.5 180.64,-369.28 181.52,-376.23"/>
</g>
<!-- struct0&#45;&gt;struct1 -->
<g id="edge6" class="edge">
<title>struct0:c789577851_1&#45;&gt;struct1:c1077578877_13</title>
<path fill="none" stroke="#337ab7" d="M140.5,-389.5C169.38,-389.5 161.12,-347.79 181.01,-337.68"/>
<polygon fill="#337ab7" stroke="#337ab7" points="181.98,-341.05 191,-335.5 180.48,-334.22 181.98,-341.05"/>
</g>
<!-- struct2 -->
<g id="node3" class="node">
<title>struct2</title>
<polygon fill="#f7f7f9" stroke="#555555" points="364,-336.5 364,-840.5 558,-840.5 558,-336.5 364,-336.5"/>
<text text-anchor="middle" x="461" y="-829.3" font-family="Verdana" font-size="9.00" fill="#555555">Table: ExaminationsActivities</text>
<polyline fill="none" stroke="#555555" points="364,-822.5 558,-822.5 "/>
<text text-anchor="middle" x="461" y="-811.3" font-family="Verdana" font-size="9.00" fill="#555555">Id +</text>
<polyline fill="none" stroke="#555555" points="364,-804.5 558,-804.5 "/>
<text text-anchor="middle" x="461" y="-793.3" font-family="Verdana" font-size="9.00" fill="#555555">+ ExaminationId</text>
<polyline fill="none" stroke="#555555" points="364,-786.5 558,-786.5 "/>
<text text-anchor="middle" x="461" y="-775.3" font-family="Verdana" font-size="9.00" fill="#555555">SeqNumber</text>
<polyline fill="none" stroke="#555555" points="364,-768.5 558,-768.5 "/>
<text text-anchor="middle" x="461" y="-757.3" font-family="Verdana" font-size="9.00" fill="#555555">Description</text>
<polyline fill="none" stroke="#555555" points="364,-750.5 558,-750.5 "/>
<text text-anchor="middle" x="461" y="-739.3" font-family="Verdana" font-size="9.00" fill="#555555">+ ExecutorId</text>
<polyline fill="none" stroke="#555555" points="364,-732.5 558,-732.5 "/>
<text text-anchor="middle" x="461" y="-721.3" font-family="Verdana" font-size="9.00" fill="#555555">PlanDate</text>
<polyline fill="none" stroke="#555555" points="364,-714.5 558,-714.5 "/>
<text text-anchor="middle" x="461" y="-703.3" font-family="Verdana" font-size="9.00" fill="#555555">FactDate</text>
<polyline fill="none" stroke="#555555" points="364,-696.5 558,-696.5 "/>
<text text-anchor="middle" x="461" y="-685.3" font-family="Verdana" font-size="9.00" fill="#555555">+ ExecutionStatusId</text>
<polyline fill="none" stroke="#555555" points="364,-678.5 558,-678.5 "/>
<text text-anchor="middle" x="461" y="-667.3" font-family="Verdana" font-size="9.00" fill="#555555">IsIncludedInBudget</text>
<polyline fill="none" stroke="#555555" points="364,-660.5 558,-660.5 "/>
<text text-anchor="middle" x="461" y="-649.3" font-family="Verdana" font-size="9.00" fill="#555555">CheckingStatus</text>
<polyline fill="none" stroke="#555555" points="364,-642.5 558,-642.5 "/>
<text text-anchor="middle" x="461" y="-631.3" font-family="Verdana" font-size="9.00" fill="#555555">Created</text>
<polyline fill="none" stroke="#555555" points="364,-624.5 558,-624.5 "/>
<text text-anchor="middle" x="461" y="-613.3" font-family="Verdana" font-size="9.00" fill="#555555">+ CreatedBy</text>
<polyline fill="none" stroke="#555555" points="364,-606.5 558,-606.5 "/>
<text text-anchor="middle" x="461" y="-595.3" font-family="Verdana" font-size="9.00" fill="#555555">Modified</text>
<polyline fill="none" stroke="#555555" points="364,-588.5 558,-588.5 "/>
<text text-anchor="middle" x="461" y="-577.3" font-family="Verdana" font-size="9.00" fill="#555555">+ ModifiedBy</text>
<polyline fill="none" stroke="#555555" points="364,-570.5 558,-570.5 "/>
<text text-anchor="middle" x="461" y="-559.3" font-family="Verdana" font-size="9.00" fill="#555555">Deleted</text>
<polyline fill="none" stroke="#555555" points="364,-552.5 558,-552.5 "/>
<text text-anchor="middle" x="461" y="-541.3" font-family="Verdana" font-size="9.00" fill="#555555">+ DeletedBy</text>
<polyline fill="none" stroke="#555555" points="364,-534.5 558,-534.5 "/>
<text text-anchor="middle" x="461" y="-523.3" font-family="Verdana" font-size="9.00" fill="#555555">+ DangersCategoryId</text>
<polyline fill="none" stroke="#555555" points="364,-516.5 558,-516.5 "/>
<text text-anchor="middle" x="461" y="-505.3" font-family="Verdana" font-size="9.00" fill="#555555">+ MeasuresUnitId</text>
<polyline fill="none" stroke="#555555" points="364,-498.5 558,-498.5 "/>
<text text-anchor="middle" x="461" y="-487.3" font-family="Verdana" font-size="9.00" fill="#555555">RowVersion</text>
<polyline fill="none" stroke="#555555" points="364,-480.5 558,-480.5 "/>
<text text-anchor="middle" x="461" y="-469.3" font-family="Verdana" font-size="9.00" fill="#555555">IsActive</text>
<polyline fill="none" stroke="#555555" points="364,-462.5 558,-462.5 "/>
<text text-anchor="middle" x="461" y="-451.3" font-family="Verdana" font-size="9.00" fill="#555555">DamagesDescription</text>
<polyline fill="none" stroke="#555555" points="364,-444.5 558,-444.5 "/>
<text text-anchor="middle" x="461" y="-433.3" font-family="Verdana" font-size="9.00" fill="#555555">DamagesVolume</text>
<polyline fill="none" stroke="#555555" points="364,-426.5 558,-426.5 "/>
<text text-anchor="middle" x="461" y="-415.3" font-family="Verdana" font-size="9.00" fill="#555555">IsDefectListsDevelopmentRequired</text>
<polyline fill="none" stroke="#555555" points="364,-408.5 558,-408.5 "/>
<text text-anchor="middle" x="461" y="-397.3" font-family="Verdana" font-size="9.00" fill="#555555">IsSpecificationsDevelopmentRequired</text>
<polyline fill="none" stroke="#555555" points="364,-390.5 558,-390.5 "/>
<text text-anchor="middle" x="461" y="-379.3" font-family="Verdana" font-size="9.00" fill="#555555">RequiredBudget4CIW</text>
<polyline fill="none" stroke="#555555" points="364,-372.5 558,-372.5 "/>
<text text-anchor="middle" x="461" y="-361.3" font-family="Verdana" font-size="9.00" fill="#555555">RequiredBudget4Inventory</text>
<polyline fill="none" stroke="#555555" points="364,-354.5 558,-354.5 "/>
<text text-anchor="middle" x="461" y="-343.3" font-family="Verdana" font-size="9.00" fill="#555555">TotalRequiredBudget</text>
</g>
<!-- struct1&#45;&gt;struct2 -->
<g id="edge1" class="edge">
<title>struct1:c1077578877_1&#45;&gt;struct2:c1045578763_2</title>
<path fill="none" stroke="black" d="M346,-533.5C459.07,-533.5 260.42,-779.38 354.01,-794.75"/>
<polygon fill="black" stroke="black" points="353.77,-798.24 364,-795.5 354.29,-791.26 353.77,-798.24"/>
</g>
<!-- struct3 -->
<g id="node4" class="node">
<title>struct3</title>
<polygon fill="#f7f7f9" stroke="#555555" points="379,-83.5 379,-317.5 543,-317.5 543,-83.5 379,-83.5"/>
<text text-anchor="middle" x="461" y="-306.3" font-family="Verdana" font-size="9.00" fill="#555555">Table: ExaminationsDocuments</text>
<polyline fill="none" stroke="#555555" points="379,-299.5 543,-299.5 "/>
<text text-anchor="middle" x="461" y="-288.3" font-family="Verdana" font-size="9.00" fill="#555555">Id</text>
<polyline fill="none" stroke="#555555" points="379,-281.5 543,-281.5 "/>
<text text-anchor="middle" x="461" y="-270.3" font-family="Verdana" font-size="9.00" fill="#555555">+ ExaminationId</text>
<polyline fill="none" stroke="#555555" points="379,-263.5 543,-263.5 "/>
<text text-anchor="middle" x="461" y="-252.3" font-family="Verdana" font-size="9.00" fill="#555555">FileBody</text>
<polyline fill="none" stroke="#555555" points="379,-245.5 543,-245.5 "/>
<text text-anchor="middle" x="461" y="-234.3" font-family="Verdana" font-size="9.00" fill="#555555">Created</text>
<polyline fill="none" stroke="#555555" points="379,-227.5 543,-227.5 "/>
<text text-anchor="middle" x="461" y="-216.3" font-family="Verdana" font-size="9.00" fill="#555555">+ CreatedBy</text>
<polyline fill="none" stroke="#555555" points="379,-209.5 543,-209.5 "/>
<text text-anchor="middle" x="461" y="-198.3" font-family="Verdana" font-size="9.00" fill="#555555">RowVersion</text>
<polyline fill="none" stroke="#555555" points="379,-191.5 543,-191.5 "/>
<text text-anchor="middle" x="461" y="-180.3" font-family="Verdana" font-size="9.00" fill="#555555">Modified</text>
<polyline fill="none" stroke="#555555" points="379,-173.5 543,-173.5 "/>
<text text-anchor="middle" x="461" y="-162.3" font-family="Verdana" font-size="9.00" fill="#555555">+ ModifiedBy</text>
<polyline fill="none" stroke="#555555" points="379,-155.5 543,-155.5 "/>
<text text-anchor="middle" x="461" y="-144.3" font-family="Verdana" font-size="9.00" fill="#555555">SeqNumber</text>
<polyline fill="none" stroke="#555555" points="379,-137.5 543,-137.5 "/>
<text text-anchor="middle" x="461" y="-126.3" font-family="Verdana" font-size="9.00" fill="#555555">FileName</text>
<polyline fill="none" stroke="#555555" points="379,-119.5 543,-119.5 "/>
<text text-anchor="middle" x="461" y="-108.3" font-family="Verdana" font-size="9.00" fill="#555555">Description</text>
<polyline fill="none" stroke="#555555" points="379,-101.5 543,-101.5 "/>
<text text-anchor="middle" x="461" y="-90.3" font-family="Verdana" font-size="9.00" fill="#555555">ContentType</text>
</g>
<!-- struct1&#45;&gt;struct3 -->
<g id="edge2" class="edge">
<title>struct1:c1077578877_1&#45;&gt;struct3:c1335675806_2</title>
<path fill="none" stroke="black" d="M346,-533.5C372.31,-533.5 353.5,-321.91 370.82,-279.75"/>
<polygon fill="black" stroke="black" points="373.45,-282.07 378,-272.5 368.48,-277.14 373.45,-282.07"/>
</g>
<!-- struct4 -->
<g id="node5" class="node">
<title>struct4</title>
<polygon fill="#f7f7f9" stroke="#555555" points="33,-452.5 33,-542.5 140,-542.5 140,-452.5 33,-452.5"/>
<text text-anchor="middle" x="86.5" y="-531.3" font-family="Verdana" font-size="9.00" fill="#555555">Table: ObjectCards</text>
<polyline fill="none" stroke="#555555" points="33,-524.5 140,-524.5 "/>
<text text-anchor="middle" x="86.5" y="-513.3" font-family="Verdana" font-size="9.00" fill="#555555">Id +</text>
<polyline fill="none" stroke="#555555" points="33,-506.5 140,-506.5 "/>
<text text-anchor="middle" x="86.5" y="-495.3" font-family="Verdana" font-size="9.00" fill="#555555">Created</text>
<polyline fill="none" stroke="#555555" points="33,-488.5 140,-488.5 "/>
<text text-anchor="middle" x="86.5" y="-477.3" font-family="Verdana" font-size="9.00" fill="#555555">+ CreatedBy</text>
<polyline fill="none" stroke="#555555" points="33,-470.5 140,-470.5 "/>
<text text-anchor="middle" x="86.5" y="-459.3" font-family="Verdana" font-size="9.00" fill="#555555">RowVersion</text>
</g>
<!-- struct4&#45;&gt;struct1 -->
<g id="edge3" class="edge">
<title>struct4:c1986106116_1&#45;&gt;struct1:c1077578877_2</title>
<path fill="none" stroke="#337ab7" d="M141.5,-515.5C159.72,-515.5 166.62,-515.5 180.95,-515.5"/>
<polygon fill="#337ab7" stroke="#337ab7" points="181,-519 191,-515.5 181,-512 181,-519"/>
</g>
<!-- struct5 -->
<g id="node6" class="node">
<title>struct5</title>
<polygon fill="#f7f7f9" stroke="#555555" points="0,-19.5 0,-199.5 173,-199.5 173,-19.5 0,-19.5"/>
<text text-anchor="middle" x="86.5" y="-188.3" font-family="Verdana" font-size="9.00" fill="#555555">Table: RequirementsCompliances</text>
<polyline fill="none" stroke="#555555" points="0,-181.5 173,-181.5 "/>
<text text-anchor="middle" x="86.5" y="-170.3" font-family="Verdana" font-size="9.00" fill="#555555">Id +</text>
<polyline fill="none" stroke="#555555" points="0,-163.5 173,-163.5 "/>
<text text-anchor="middle" x="86.5" y="-152.3" font-family="Verdana" font-size="9.00" fill="#555555">Name</text>
<polyline fill="none" stroke="#555555" points="0,-145.5 173,-145.5 "/>
<text text-anchor="middle" x="86.5" y="-134.3" font-family="Verdana" font-size="9.00" fill="#555555">IsActive</text>
<polyline fill="none" stroke="#555555" points="0,-127.5 173,-127.5 "/>
<text text-anchor="middle" x="86.5" y="-116.3" font-family="Verdana" font-size="9.00" fill="#555555">RowVersion</text>
<polyline fill="none" stroke="#555555" points="0,-109.5 173,-109.5 "/>
<text text-anchor="middle" x="86.5" y="-98.3" font-family="Verdana" font-size="9.00" fill="#555555">Created</text>
<polyline fill="none" stroke="#555555" points="0,-91.5 173,-91.5 "/>
<text text-anchor="middle" x="86.5" y="-80.3" font-family="Verdana" font-size="9.00" fill="#555555">+ CreatedBy</text>
<polyline fill="none" stroke="#555555" points="0,-73.5 173,-73.5 "/>
<text text-anchor="middle" x="86.5" y="-62.3" font-family="Verdana" font-size="9.00" fill="#555555">Modified</text>
<polyline fill="none" stroke="#555555" points="0,-55.5 173,-55.5 "/>
<text text-anchor="middle" x="86.5" y="-44.3" font-family="Verdana" font-size="9.00" fill="#555555">+ ModifiedBy</text>
<polyline fill="none" stroke="#555555" points="0,-37.5 173,-37.5 "/>
<text text-anchor="middle" x="86.5" y="-26.3" font-family="Verdana" font-size="9.00" fill="#555555">Grade</text>
</g>
<!-- struct5&#45;&gt;struct1 -->
<g id="edge7" class="edge">
<title>struct5:c1198627313_1&#45;&gt;struct1:c1077578877_33</title>
<path fill="none" stroke="#337ab7" d="M173,-172.5C180.09,-172.5 180.9,-179.56 183.09,-185.07"/>
<polygon fill="#337ab7" stroke="#337ab7" points="181.03,-187.91 191,-191.5 185.45,-182.48 181.03,-187.91"/>
</g>
</g>
</svg>
