<?xml version="1.0" encoding="UTF-8" standalone="no"?>
<!DOCTYPE svg PUBLIC "-//W3C//DTD SVG 1.1//EN"
 "http://www.w3.org/Graphics/SVG/1.1/DTD/svg11.dtd">
<!-- Generated by graphviz version 5.0.0 (20220707.1540)
 -->
<!-- Title: g Pages: 1 -->
<svg width="345pt" height="623pt"
 viewBox="0.00 0.00 345.00 623.00" xmlns="http://www.w3.org/2000/svg" xmlns:xlink="http://www.w3.org/1999/xlink">
<g id="graph0" class="graph" transform="scale(1 1) rotate(0) translate(4 619)">
<title>g</title>
<polygon fill="white" stroke="transparent" points="-4,4 -4,-619 341,-619 341,4 -4,4"/>
<text text-anchor="middle" x="168.5" y="-7" font-family="Verdana" font-size="10.00">Table: ExaminationsDocuments</text>
<!-- struct0 -->
<g id="node1" class="node">
<title>struct0</title>
<polygon fill="#f7f7f9" stroke="#555555" points="24.5,-19.5 24.5,-217.5 130.5,-217.5 130.5,-19.5 24.5,-19.5"/>
<text text-anchor="middle" x="77.5" y="-206.3" font-family="Verdana" font-size="9.00" fill="#555555">Table: Employees</text>
<polyline fill="none" stroke="#555555" points="24.5,-199.5 130.5,-199.5 "/>
<text text-anchor="middle" x="77.5" y="-188.3" font-family="Verdana" font-size="9.00" fill="#555555">Id +</text>
<polyline fill="none" stroke="#555555" points="24.5,-181.5 130.5,-181.5 "/>
<text text-anchor="middle" x="77.5" y="-170.3" font-family="Verdana" font-size="9.00" fill="#555555">ExternalEmploeeId</text>
<polyline fill="none" stroke="#555555" points="24.5,-163.5 130.5,-163.5 "/>
<text text-anchor="middle" x="77.5" y="-152.3" font-family="Verdana" font-size="9.00" fill="#555555">Surname</text>
<polyline fill="none" stroke="#555555" points="24.5,-145.5 130.5,-145.5 "/>
<text text-anchor="middle" x="77.5" y="-134.3" font-family="Verdana" font-size="9.00" fill="#555555">Name</text>
<polyline fill="none" stroke="#555555" points="24.5,-127.5 130.5,-127.5 "/>
<text text-anchor="middle" x="77.5" y="-116.3" font-family="Verdana" font-size="9.00" fill="#555555">MiddleName</text>
<polyline fill="none" stroke="#555555" points="24.5,-109.5 130.5,-109.5 "/>
<text text-anchor="middle" x="77.5" y="-98.3" font-family="Verdana" font-size="9.00" fill="#555555">Email</text>
<polyline fill="none" stroke="#555555" points="24.5,-91.5 130.5,-91.5 "/>
<text text-anchor="middle" x="77.5" y="-80.3" font-family="Verdana" font-size="9.00" fill="#555555">DomainLogin</text>
<polyline fill="none" stroke="#555555" points="24.5,-73.5 130.5,-73.5 "/>
<text text-anchor="middle" x="77.5" y="-62.3" font-family="Verdana" font-size="9.00" fill="#555555">FIO</text>
<polyline fill="none" stroke="#555555" points="24.5,-55.5 130.5,-55.5 "/>
<text text-anchor="middle" x="77.5" y="-44.3" font-family="Verdana" font-size="9.00" fill="#555555">FullName</text>
<polyline fill="none" stroke="#555555" points="24.5,-37.5 130.5,-37.5 "/>
<text text-anchor="middle" x="77.5" y="-26.3" font-family="Verdana" font-size="9.00" fill="#555555">Created</text>
</g>
<!-- struct2 -->
<g id="node3" class="node">
<title>struct2</title>
<polygon fill="#f7f7f9" stroke="#555555" points="173,-109.5 173,-343.5 337,-343.5 337,-109.5 173,-109.5"/>
<text text-anchor="middle" x="255" y="-332.3" font-family="Verdana" font-size="9.00" fill="#555555">Table: ExaminationsDocuments</text>
<polyline fill="none" stroke="#555555" points="173,-325.5 337,-325.5 "/>
<text text-anchor="middle" x="255" y="-314.3" font-family="Verdana" font-size="9.00" fill="#555555">Id</text>
<polyline fill="none" stroke="#555555" points="173,-307.5 337,-307.5 "/>
<text text-anchor="middle" x="255" y="-296.3" font-family="Verdana" font-size="9.00" fill="#555555">+ ExaminationId</text>
<polyline fill="none" stroke="#555555" points="173,-289.5 337,-289.5 "/>
<text text-anchor="middle" x="255" y="-278.3" font-family="Verdana" font-size="9.00" fill="#555555">FileBody</text>
<polyline fill="none" stroke="#555555" points="173,-271.5 337,-271.5 "/>
<text text-anchor="middle" x="255" y="-260.3" font-family="Verdana" font-size="9.00" fill="#555555">Created</text>
<polyline fill="none" stroke="#555555" points="173,-253.5 337,-253.5 "/>
<text text-anchor="middle" x="255" y="-242.3" font-family="Verdana" font-size="9.00" fill="#555555">+ CreatedBy</text>
<polyline fill="none" stroke="#555555" points="173,-235.5 337,-235.5 "/>
<text text-anchor="middle" x="255" y="-224.3" font-family="Verdana" font-size="9.00" fill="#555555">RowVersion</text>
<polyline fill="none" stroke="#555555" points="173,-217.5 337,-217.5 "/>
<text text-anchor="middle" x="255" y="-206.3" font-family="Verdana" font-size="9.00" fill="#555555">Modified</text>
<polyline fill="none" stroke="#555555" points="173,-199.5 337,-199.5 "/>
<text text-anchor="middle" x="255" y="-188.3" font-family="Verdana" font-size="9.00" fill="#555555">+ ModifiedBy</text>
<polyline fill="none" stroke="#555555" points="173,-181.5 337,-181.5 "/>
<text text-anchor="middle" x="255" y="-170.3" font-family="Verdana" font-size="9.00" fill="#555555">SeqNumber</text>
<polyline fill="none" stroke="#555555" points="173,-163.5 337,-163.5 "/>
<text text-anchor="middle" x="255" y="-152.3" font-family="Verdana" font-size="9.00" fill="#555555">FileName</text>
<polyline fill="none" stroke="#555555" points="173,-145.5 337,-145.5 "/>
<text text-anchor="middle" x="255" y="-134.3" font-family="Verdana" font-size="9.00" fill="#555555">Description</text>
<polyline fill="none" stroke="#555555" points="173,-127.5 337,-127.5 "/>
<text text-anchor="middle" x="255" y="-116.3" font-family="Verdana" font-size="9.00" fill="#555555">ContentType</text>
</g>
<!-- struct0&#45;&gt;struct2 -->
<g id="edge2" class="edge">
<title>struct0:c789577851_1&#45;&gt;struct2:c1335675806_5</title>
<path fill="none" stroke="#337ab7" d="M131.5,-190.5C143.68,-190.5 153.33,-225.47 164.52,-239.12"/>
<polygon fill="#337ab7" stroke="#337ab7" points="162.68,-242.1 173,-244.5 166.43,-236.19 162.68,-242.1"/>
</g>
<!-- struct0&#45;&gt;struct2 -->
<g id="edge3" class="edge">
<title>struct0:c789577851_1&#45;&gt;struct2:c1335675806_8</title>
<path fill="none" stroke="#337ab7" d="M131.5,-190.5C146.05,-190.5 151.99,-190.5 162.91,-190.5"/>
<polygon fill="#337ab7" stroke="#337ab7" points="163,-194 173,-190.5 163,-187 163,-194"/>
</g>
<!-- struct1 -->
<g id="node2" class="node">
<title>struct1</title>
<polygon fill="#f7f7f9" stroke="#555555" points="0,-236.5 0,-614.5 155,-614.5 155,-236.5 0,-236.5"/>
<text text-anchor="middle" x="77.5" y="-603.3" font-family="Verdana" font-size="9.00" fill="#555555">Table: Examinations</text>
<polyline fill="none" stroke="#555555" points="0,-596.5 155,-596.5 "/>
<text text-anchor="middle" x="77.5" y="-585.3" font-family="Verdana" font-size="9.00" fill="#555555">Id +</text>
<polyline fill="none" stroke="#555555" points="0,-578.5 155,-578.5 "/>
<text text-anchor="middle" x="77.5" y="-567.3" font-family="Verdana" font-size="9.00" fill="#555555">+ ObjectsCardId</text>
<polyline fill="none" stroke="#555555" points="0,-560.5 155,-560.5 "/>
<text text-anchor="middle" x="77.5" y="-549.3" font-family="Verdana" font-size="9.00" fill="#555555">PlanDate</text>
<polyline fill="none" stroke="#555555" points="0,-542.5 155,-542.5 "/>
<text text-anchor="middle" x="77.5" y="-531.3" font-family="Verdana" font-size="9.00" fill="#555555">FactDate</text>
<polyline fill="none" stroke="#555555" points="0,-524.5 155,-524.5 "/>
<text text-anchor="middle" x="77.5" y="-513.3" font-family="Verdana" font-size="9.00" fill="#555555">ConclusionsNumber</text>
<polyline fill="none" stroke="#555555" points="0,-506.5 155,-506.5 "/>
<text text-anchor="middle" x="77.5" y="-495.3" font-family="Verdana" font-size="9.00" fill="#555555">NextPlanDate</text>
<polyline fill="none" stroke="#555555" points="0,-488.5 155,-488.5 "/>
<text text-anchor="middle" x="77.5" y="-477.3" font-family="Verdana" font-size="9.00" fill="#555555">Created</text>
<polyline fill="none" stroke="#555555" points="0,-470.5 155,-470.5 "/>
<text text-anchor="middle" x="77.5" y="-459.3" font-family="Verdana" font-size="9.00" fill="#555555">+ CreatedBy</text>
<polyline fill="none" stroke="#555555" points="0,-452.5 155,-452.5 "/>
<text text-anchor="middle" x="77.5" y="-441.3" font-family="Verdana" font-size="9.00" fill="#555555">Modified</text>
<polyline fill="none" stroke="#555555" points="0,-434.5 155,-434.5 "/>
<text text-anchor="middle" x="77.5" y="-423.3" font-family="Verdana" font-size="9.00" fill="#555555">+ ModifiedBy</text>
<polyline fill="none" stroke="#555555" points="0,-416.5 155,-416.5 "/>
<text text-anchor="middle" x="77.5" y="-405.3" font-family="Verdana" font-size="9.00" fill="#555555">Deleted</text>
<polyline fill="none" stroke="#555555" points="0,-398.5 155,-398.5 "/>
<text text-anchor="middle" x="77.5" y="-387.3" font-family="Verdana" font-size="9.00" fill="#555555">+ DeletedBy</text>
<polyline fill="none" stroke="#555555" points="0,-380.5 155,-380.5 "/>
<text text-anchor="middle" x="77.5" y="-369.3" font-family="Verdana" font-size="9.00" fill="#555555">RowVersion</text>
<polyline fill="none" stroke="#555555" points="0,-362.5 155,-362.5 "/>
<text text-anchor="middle" x="77.5" y="-351.3" font-family="Verdana" font-size="9.00" fill="#555555">IsActive</text>
<polyline fill="none" stroke="#555555" points="0,-344.5 155,-344.5 "/>
<text text-anchor="middle" x="77.5" y="-333.3" font-family="Verdana" font-size="9.00" fill="#555555">IsInOperatingState</text>
<polyline fill="none" stroke="#555555" points="0,-326.5 155,-326.5 "/>
<text text-anchor="middle" x="77.5" y="-315.3" font-family="Verdana" font-size="9.00" fill="#555555">IsOffline</text>
<polyline fill="none" stroke="#555555" points="0,-308.5 155,-308.5 "/>
<text text-anchor="middle" x="77.5" y="-297.3" font-family="Verdana" font-size="9.00" fill="#555555">IsOfflineSource</text>
<polyline fill="none" stroke="#555555" points="0,-290.5 155,-290.5 "/>
<text text-anchor="middle" x="77.5" y="-279.3" font-family="Verdana" font-size="9.00" fill="#555555">InterimDate</text>
<polyline fill="none" stroke="#555555" points="0,-272.5 155,-272.5 "/>
<text text-anchor="middle" x="77.5" y="-261.3" font-family="Verdana" font-size="9.00" fill="#555555">Name</text>
<polyline fill="none" stroke="#555555" points="0,-254.5 155,-254.5 "/>
<text text-anchor="middle" x="77.5" y="-243.3" font-family="Verdana" font-size="9.00" fill="#555555">+ RequirementsComplianceId</text>
</g>
<!-- struct1&#45;&gt;struct2 -->
<g id="edge1" class="edge">
<title>struct1:c1077578877_1&#45;&gt;struct2:c1335675806_2</title>
<path fill="none" stroke="#337ab7" d="M155,-587.5C280.05,-587.5 57.57,-314.64 162.94,-299.18"/>
<polygon fill="#337ab7" stroke="#337ab7" points="163.26,-302.67 173,-298.5 162.79,-295.68 163.26,-302.67"/>
</g>
</g>
</svg>
