<?xml version="1.0" encoding="UTF-8" standalone="no"?>
<!DOCTYPE svg PUBLIC "-//W3C//DTD SVG 1.1//EN"
 "http://www.w3.org/Graphics/SVG/1.1/DTD/svg11.dtd">
<!-- Generated by graphviz version 5.0.0 (20220707.1540)
 -->
<!-- Title: g Pages: 1 -->
<svg width="448pt" height="569pt"
 viewBox="0.00 0.00 448.00 569.00" xmlns="http://www.w3.org/2000/svg" xmlns:xlink="http://www.w3.org/1999/xlink">
<g id="graph0" class="graph" transform="scale(1 1) rotate(0) translate(4 565)">
<title>g</title>
<polygon fill="white" stroke="transparent" points="-4,4 -4,-565 444,-565 444,4 -4,4"/>
<text text-anchor="middle" x="220" y="-7" font-family="Verdana" font-size="10.00">Table: Segments</text>
<!-- struct0 -->
<g id="node1" class="node">
<title>struct0</title>
<polygon fill="#f7f7f9" stroke="#555555" points="288,-326.5 288,-560.5 398,-560.5 398,-326.5 288,-326.5"/>
<text text-anchor="middle" x="343" y="-549.3" font-family="Verdana" font-size="9.00" fill="#555555">Table: Departments</text>
<polyline fill="none" stroke="#555555" points="288,-542.5 398,-542.5 "/>
<text text-anchor="middle" x="343" y="-531.3" font-family="Verdana" font-size="9.00" fill="#555555">Id +</text>
<polyline fill="none" stroke="#555555" points="288,-524.5 398,-524.5 "/>
<text text-anchor="middle" x="343" y="-513.3" font-family="Verdana" font-size="9.00" fill="#555555">+ SegmentId</text>
<polyline fill="none" stroke="#555555" points="288,-506.5 398,-506.5 "/>
<text text-anchor="middle" x="343" y="-495.3" font-family="Verdana" font-size="9.00" fill="#555555">Code</text>
<polyline fill="none" stroke="#555555" points="288,-488.5 398,-488.5 "/>
<text text-anchor="middle" x="343" y="-477.3" font-family="Verdana" font-size="9.00" fill="#555555">Name</text>
<polyline fill="none" stroke="#555555" points="288,-470.5 398,-470.5 "/>
<text text-anchor="middle" x="343" y="-459.3" font-family="Verdana" font-size="9.00" fill="#555555">Created</text>
<polyline fill="none" stroke="#555555" points="288,-452.5 398,-452.5 "/>
<text text-anchor="middle" x="343" y="-441.3" font-family="Verdana" font-size="9.00" fill="#555555">+ CreatedBy</text>
<polyline fill="none" stroke="#555555" points="288,-434.5 398,-434.5 "/>
<text text-anchor="middle" x="343" y="-423.3" font-family="Verdana" font-size="9.00" fill="#555555">Modified</text>
<polyline fill="none" stroke="#555555" points="288,-416.5 398,-416.5 "/>
<text text-anchor="middle" x="343" y="-405.3" font-family="Verdana" font-size="9.00" fill="#555555">+ ModifiedBy</text>
<polyline fill="none" stroke="#555555" points="288,-398.5 398,-398.5 "/>
<text text-anchor="middle" x="343" y="-387.3" font-family="Verdana" font-size="9.00" fill="#555555">Deleted</text>
<polyline fill="none" stroke="#555555" points="288,-380.5 398,-380.5 "/>
<text text-anchor="middle" x="343" y="-369.3" font-family="Verdana" font-size="9.00" fill="#555555">+ DeletedBy</text>
<polyline fill="none" stroke="#555555" points="288,-362.5 398,-362.5 "/>
<text text-anchor="middle" x="343" y="-351.3" font-family="Verdana" font-size="9.00" fill="#555555">RowVersion</text>
<polyline fill="none" stroke="#555555" points="288,-344.5 398,-344.5 "/>
<text text-anchor="middle" x="343" y="-333.3" font-family="Verdana" font-size="9.00" fill="#555555">IsActive</text>
</g>
<!-- struct1 -->
<g id="node2" class="node">
<title>struct1</title>
<polygon fill="#f7f7f9" stroke="#555555" points="246,-19.5 246,-307.5 440,-307.5 440,-19.5 246,-19.5"/>
<text text-anchor="middle" x="343" y="-296.3" font-family="Verdana" font-size="9.00" fill="#555555">Table: DistributionShedulesRecipients</text>
<polyline fill="none" stroke="#555555" points="246,-289.5 440,-289.5 "/>
<text text-anchor="middle" x="343" y="-278.3" font-family="Verdana" font-size="9.00" fill="#555555">Id</text>
<polyline fill="none" stroke="#555555" points="246,-271.5 440,-271.5 "/>
<text text-anchor="middle" x="343" y="-260.3" font-family="Verdana" font-size="9.00" fill="#555555">+ DistributionSheduleId</text>
<polyline fill="none" stroke="#555555" points="246,-253.5 440,-253.5 "/>
<text text-anchor="middle" x="343" y="-242.3" font-family="Verdana" font-size="9.00" fill="#555555">+ AuditedEnterpiseId</text>
<polyline fill="none" stroke="#555555" points="246,-235.5 440,-235.5 "/>
<text text-anchor="middle" x="343" y="-224.3" font-family="Verdana" font-size="9.00" fill="#555555">+ AuditedSegmentId</text>
<polyline fill="none" stroke="#555555" points="246,-217.5 440,-217.5 "/>
<text text-anchor="middle" x="343" y="-206.3" font-family="Verdana" font-size="9.00" fill="#555555">+ AuditedDepartmentId</text>
<polyline fill="none" stroke="#555555" points="246,-199.5 440,-199.5 "/>
<text text-anchor="middle" x="343" y="-188.3" font-family="Verdana" font-size="9.00" fill="#555555">AuditedOrganizationUnitName</text>
<polyline fill="none" stroke="#555555" points="246,-181.5 440,-181.5 "/>
<text text-anchor="middle" x="343" y="-170.3" font-family="Verdana" font-size="9.00" fill="#555555">+ EmployeesWorkPlaceId</text>
<polyline fill="none" stroke="#555555" points="246,-163.5 440,-163.5 "/>
<text text-anchor="middle" x="343" y="-152.3" font-family="Verdana" font-size="9.00" fill="#555555">Created</text>
<polyline fill="none" stroke="#555555" points="246,-145.5 440,-145.5 "/>
<text text-anchor="middle" x="343" y="-134.3" font-family="Verdana" font-size="9.00" fill="#555555">+ CreatedBy</text>
<polyline fill="none" stroke="#555555" points="246,-127.5 440,-127.5 "/>
<text text-anchor="middle" x="343" y="-116.3" font-family="Verdana" font-size="9.00" fill="#555555">Modified</text>
<polyline fill="none" stroke="#555555" points="246,-109.5 440,-109.5 "/>
<text text-anchor="middle" x="343" y="-98.3" font-family="Verdana" font-size="9.00" fill="#555555">+ ModifiedBy</text>
<polyline fill="none" stroke="#555555" points="246,-91.5 440,-91.5 "/>
<text text-anchor="middle" x="343" y="-80.3" font-family="Verdana" font-size="9.00" fill="#555555">Deleted</text>
<polyline fill="none" stroke="#555555" points="246,-73.5 440,-73.5 "/>
<text text-anchor="middle" x="343" y="-62.3" font-family="Verdana" font-size="9.00" fill="#555555">+ DeletedBy</text>
<polyline fill="none" stroke="#555555" points="246,-55.5 440,-55.5 "/>
<text text-anchor="middle" x="343" y="-44.3" font-family="Verdana" font-size="9.00" fill="#555555">RowVersion</text>
<polyline fill="none" stroke="#555555" points="246,-37.5 440,-37.5 "/>
<text text-anchor="middle" x="343" y="-26.3" font-family="Verdana" font-size="9.00" fill="#555555">IsActive</text>
</g>
<!-- struct2 -->
<g id="node3" class="node">
<title>struct2</title>
<polygon fill="#f7f7f9" stroke="#555555" points="4,-55.5 4,-253.5 110,-253.5 110,-55.5 4,-55.5"/>
<text text-anchor="middle" x="57" y="-242.3" font-family="Verdana" font-size="9.00" fill="#555555">Table: Employees</text>
<polyline fill="none" stroke="#555555" points="4,-235.5 110,-235.5 "/>
<text text-anchor="middle" x="57" y="-224.3" font-family="Verdana" font-size="9.00" fill="#555555">Id +</text>
<polyline fill="none" stroke="#555555" points="4,-217.5 110,-217.5 "/>
<text text-anchor="middle" x="57" y="-206.3" font-family="Verdana" font-size="9.00" fill="#555555">ExternalEmploeeId</text>
<polyline fill="none" stroke="#555555" points="4,-199.5 110,-199.5 "/>
<text text-anchor="middle" x="57" y="-188.3" font-family="Verdana" font-size="9.00" fill="#555555">Surname</text>
<polyline fill="none" stroke="#555555" points="4,-181.5 110,-181.5 "/>
<text text-anchor="middle" x="57" y="-170.3" font-family="Verdana" font-size="9.00" fill="#555555">Name</text>
<polyline fill="none" stroke="#555555" points="4,-163.5 110,-163.5 "/>
<text text-anchor="middle" x="57" y="-152.3" font-family="Verdana" font-size="9.00" fill="#555555">MiddleName</text>
<polyline fill="none" stroke="#555555" points="4,-145.5 110,-145.5 "/>
<text text-anchor="middle" x="57" y="-134.3" font-family="Verdana" font-size="9.00" fill="#555555">Email</text>
<polyline fill="none" stroke="#555555" points="4,-127.5 110,-127.5 "/>
<text text-anchor="middle" x="57" y="-116.3" font-family="Verdana" font-size="9.00" fill="#555555">DomainLogin</text>
<polyline fill="none" stroke="#555555" points="4,-109.5 110,-109.5 "/>
<text text-anchor="middle" x="57" y="-98.3" font-family="Verdana" font-size="9.00" fill="#555555">FIO</text>
<polyline fill="none" stroke="#555555" points="4,-91.5 110,-91.5 "/>
<text text-anchor="middle" x="57" y="-80.3" font-family="Verdana" font-size="9.00" fill="#555555">FullName</text>
<polyline fill="none" stroke="#555555" points="4,-73.5 110,-73.5 "/>
<text text-anchor="middle" x="57" y="-62.3" font-family="Verdana" font-size="9.00" fill="#555555">Created</text>
</g>
<!-- struct4 -->
<g id="node5" class="node">
<title>struct4</title>
<polygon fill="#f7f7f9" stroke="#555555" points="132,-163.5 132,-397.5 228,-397.5 228,-163.5 132,-163.5"/>
<text text-anchor="middle" x="180" y="-386.3" font-family="Verdana" font-size="9.00" fill="#555555">Table: Segments</text>
<polyline fill="none" stroke="#555555" points="132,-379.5 228,-379.5 "/>
<text text-anchor="middle" x="180" y="-368.3" font-family="Verdana" font-size="9.00" fill="#555555">Id +</text>
<polyline fill="none" stroke="#555555" points="132,-361.5 228,-361.5 "/>
<text text-anchor="middle" x="180" y="-350.3" font-family="Verdana" font-size="9.00" fill="#555555">+ EnterpriseId</text>
<polyline fill="none" stroke="#555555" points="132,-343.5 228,-343.5 "/>
<text text-anchor="middle" x="180" y="-332.3" font-family="Verdana" font-size="9.00" fill="#555555">Code</text>
<polyline fill="none" stroke="#555555" points="132,-325.5 228,-325.5 "/>
<text text-anchor="middle" x="180" y="-314.3" font-family="Verdana" font-size="9.00" fill="#555555">Name</text>
<polyline fill="none" stroke="#555555" points="132,-307.5 228,-307.5 "/>
<text text-anchor="middle" x="180" y="-296.3" font-family="Verdana" font-size="9.00" fill="#555555">Created</text>
<polyline fill="none" stroke="#555555" points="132,-289.5 228,-289.5 "/>
<text text-anchor="middle" x="180" y="-278.3" font-family="Verdana" font-size="9.00" fill="#555555">+ CreatedBy</text>
<polyline fill="none" stroke="#555555" points="132,-271.5 228,-271.5 "/>
<text text-anchor="middle" x="180" y="-260.3" font-family="Verdana" font-size="9.00" fill="#555555">Modified</text>
<polyline fill="none" stroke="#555555" points="132,-253.5 228,-253.5 "/>
<text text-anchor="middle" x="180" y="-242.3" font-family="Verdana" font-size="9.00" fill="#555555">+ ModifiedBy</text>
<polyline fill="none" stroke="#555555" points="132,-235.5 228,-235.5 "/>
<text text-anchor="middle" x="180" y="-224.3" font-family="Verdana" font-size="9.00" fill="#555555">Deleted</text>
<polyline fill="none" stroke="#555555" points="132,-217.5 228,-217.5 "/>
<text text-anchor="middle" x="180" y="-206.3" font-family="Verdana" font-size="9.00" fill="#555555">+ DeletedBy</text>
<polyline fill="none" stroke="#555555" points="132,-199.5 228,-199.5 "/>
<text text-anchor="middle" x="180" y="-188.3" font-family="Verdana" font-size="9.00" fill="#555555">RowVersion</text>
<polyline fill="none" stroke="#555555" points="132,-181.5 228,-181.5 "/>
<text text-anchor="middle" x="180" y="-170.3" font-family="Verdana" font-size="9.00" fill="#555555">IsActive</text>
</g>
<!-- struct2&#45;&gt;struct4 -->
<g id="edge4" class="edge">
<title>struct2:c789577851_1&#45;&gt;struct4:c645577338_6</title>
<path fill="none" stroke="#337ab7" d="M111,-226.5C132.12,-226.5 115.39,-262.84 122.91,-275.9"/>
<polygon fill="#337ab7" stroke="#337ab7" points="121.5,-279.1 132,-280.5 124.66,-272.86 121.5,-279.1"/>
</g>
<!-- struct2&#45;&gt;struct4 -->
<g id="edge5" class="edge">
<title>struct2:c789577851_1&#45;&gt;struct4:c645577338_8</title>
<path fill="none" stroke="#337ab7" d="M111,-226.5C118.88,-226.5 120.23,-233.89 123.43,-239.2"/>
<polygon fill="#337ab7" stroke="#337ab7" points="121.65,-242.22 132,-244.5 125.34,-236.26 121.65,-242.22"/>
</g>
<!-- struct2&#45;&gt;struct4 -->
<g id="edge6" class="edge">
<title>struct2:c789577851_1&#45;&gt;struct4:c645577338_10</title>
<path fill="none" stroke="#337ab7" d="M111,-226.5C118.88,-226.5 120.23,-219.11 123.43,-213.8"/>
<polygon fill="#337ab7" stroke="#337ab7" points="125.34,-216.74 132,-208.5 121.65,-210.78 125.34,-216.74"/>
</g>
<!-- struct3 -->
<g id="node4" class="node">
<title>struct3</title>
<polygon fill="#f7f7f9" stroke="#555555" points="0,-272.5 0,-506.5 114,-506.5 114,-272.5 0,-272.5"/>
<text text-anchor="middle" x="57" y="-495.3" font-family="Verdana" font-size="9.00" fill="#555555">Table: Enterprises</text>
<polyline fill="none" stroke="#555555" points="0,-488.5 114,-488.5 "/>
<text text-anchor="middle" x="57" y="-477.3" font-family="Verdana" font-size="9.00" fill="#555555">Id +</text>
<polyline fill="none" stroke="#555555" points="0,-470.5 114,-470.5 "/>
<text text-anchor="middle" x="57" y="-459.3" font-family="Verdana" font-size="9.00" fill="#555555">Code</text>
<polyline fill="none" stroke="#555555" points="0,-452.5 114,-452.5 "/>
<text text-anchor="middle" x="57" y="-441.3" font-family="Verdana" font-size="9.00" fill="#555555">Name</text>
<polyline fill="none" stroke="#555555" points="0,-434.5 114,-434.5 "/>
<text text-anchor="middle" x="57" y="-423.3" font-family="Verdana" font-size="9.00" fill="#555555">ExternalEnterpriseId</text>
<polyline fill="none" stroke="#555555" points="0,-416.5 114,-416.5 "/>
<text text-anchor="middle" x="57" y="-405.3" font-family="Verdana" font-size="9.00" fill="#555555">Created</text>
<polyline fill="none" stroke="#555555" points="0,-398.5 114,-398.5 "/>
<text text-anchor="middle" x="57" y="-387.3" font-family="Verdana" font-size="9.00" fill="#555555">+ CreatedBy</text>
<polyline fill="none" stroke="#555555" points="0,-380.5 114,-380.5 "/>
<text text-anchor="middle" x="57" y="-369.3" font-family="Verdana" font-size="9.00" fill="#555555">Modified</text>
<polyline fill="none" stroke="#555555" points="0,-362.5 114,-362.5 "/>
<text text-anchor="middle" x="57" y="-351.3" font-family="Verdana" font-size="9.00" fill="#555555">+ ModifiedBy</text>
<polyline fill="none" stroke="#555555" points="0,-344.5 114,-344.5 "/>
<text text-anchor="middle" x="57" y="-333.3" font-family="Verdana" font-size="9.00" fill="#555555">Deleted</text>
<polyline fill="none" stroke="#555555" points="0,-326.5 114,-326.5 "/>
<text text-anchor="middle" x="57" y="-315.3" font-family="Verdana" font-size="9.00" fill="#555555">+ DeletedBy</text>
<polyline fill="none" stroke="#555555" points="0,-308.5 114,-308.5 "/>
<text text-anchor="middle" x="57" y="-297.3" font-family="Verdana" font-size="9.00" fill="#555555">RowVersion</text>
<polyline fill="none" stroke="#555555" points="0,-290.5 114,-290.5 "/>
<text text-anchor="middle" x="57" y="-279.3" font-family="Verdana" font-size="9.00" fill="#555555">IsActive</text>
</g>
<!-- struct3&#45;&gt;struct4 -->
<g id="edge3" class="edge">
<title>struct3:c741577680_1&#45;&gt;struct4:c645577338_2</title>
<path fill="none" stroke="#337ab7" d="M114,-479.5C167,-479.5 87.74,-369.73 122.14,-354.3"/>
<polygon fill="#337ab7" stroke="#337ab7" points="122.79,-357.73 132,-352.5 121.53,-350.85 122.79,-357.73"/>
</g>
<!-- struct4&#45;&gt;struct0 -->
<g id="edge2" class="edge">
<title>struct4:c645577338_1&#45;&gt;struct0:c693577509_2</title>
<path fill="none" stroke="black" d="M228,-370.5C293.77,-370.5 225.74,-500.07 276.88,-514.25"/>
<polygon fill="black" stroke="black" points="276.65,-517.74 287,-515.5 277.51,-510.8 276.65,-517.74"/>
</g>
<!-- struct4&#45;&gt;struct1 -->
<g id="edge1" class="edge">
<title>struct4:c645577338_1&#45;&gt;struct1:c1522104463_4</title>
<path fill="none" stroke="black" d="M228,-370.5C256.34,-370.5 223.86,-259.26 237.47,-232.32"/>
<polygon fill="black" stroke="black" points="239.71,-235.03 246,-226.5 235.77,-229.25 239.71,-235.03"/>
</g>
</g>
</svg>
