<?xml version="1.0" encoding="UTF-8" standalone="no"?>
<!DOCTYPE svg PUBLIC "-//W3C//DTD SVG 1.1//EN"
 "http://www.w3.org/Graphics/SVG/1.1/DTD/svg11.dtd">
<!-- Generated by graphviz version 5.0.0 (20220707.1540)
 -->
<!-- Title: g Pages: 1 -->
<svg width="435pt" height="694pt"
 viewBox="0.00 0.00 435.00 694.00" xmlns="http://www.w3.org/2000/svg" xmlns:xlink="http://www.w3.org/1999/xlink">
<g id="graph0" class="graph" transform="scale(1 1) rotate(0) translate(4 690)">
<title>g</title>
<polygon fill="white" stroke="transparent" points="-4,4 -4,-690 431,-690 431,4 -4,4"/>
<text text-anchor="middle" x="213.5" y="-7" font-family="Verdana" font-size="10.00">Table: ObjectsCategories</text>
<!-- struct0 -->
<g id="node1" class="node">
<title>struct0</title>
<polygon fill="#f7f7f9" stroke="#555555" points="0,-19.5 0,-217.5 106,-217.5 106,-19.5 0,-19.5"/>
<text text-anchor="middle" x="53" y="-206.3" font-family="Verdana" font-size="9.00" fill="#555555">Table: Employees</text>
<polyline fill="none" stroke="#555555" points="0,-199.5 106,-199.5 "/>
<text text-anchor="middle" x="53" y="-188.3" font-family="Verdana" font-size="9.00" fill="#555555">Id +</text>
<polyline fill="none" stroke="#555555" points="0,-181.5 106,-181.5 "/>
<text text-anchor="middle" x="53" y="-170.3" font-family="Verdana" font-size="9.00" fill="#555555">ExternalEmploeeId</text>
<polyline fill="none" stroke="#555555" points="0,-163.5 106,-163.5 "/>
<text text-anchor="middle" x="53" y="-152.3" font-family="Verdana" font-size="9.00" fill="#555555">Surname</text>
<polyline fill="none" stroke="#555555" points="0,-145.5 106,-145.5 "/>
<text text-anchor="middle" x="53" y="-134.3" font-family="Verdana" font-size="9.00" fill="#555555">Name</text>
<polyline fill="none" stroke="#555555" points="0,-127.5 106,-127.5 "/>
<text text-anchor="middle" x="53" y="-116.3" font-family="Verdana" font-size="9.00" fill="#555555">MiddleName</text>
<polyline fill="none" stroke="#555555" points="0,-109.5 106,-109.5 "/>
<text text-anchor="middle" x="53" y="-98.3" font-family="Verdana" font-size="9.00" fill="#555555">Email</text>
<polyline fill="none" stroke="#555555" points="0,-91.5 106,-91.5 "/>
<text text-anchor="middle" x="53" y="-80.3" font-family="Verdana" font-size="9.00" fill="#555555">DomainLogin</text>
<polyline fill="none" stroke="#555555" points="0,-73.5 106,-73.5 "/>
<text text-anchor="middle" x="53" y="-62.3" font-family="Verdana" font-size="9.00" fill="#555555">FIO</text>
<polyline fill="none" stroke="#555555" points="0,-55.5 106,-55.5 "/>
<text text-anchor="middle" x="53" y="-44.3" font-family="Verdana" font-size="9.00" fill="#555555">FullName</text>
<polyline fill="none" stroke="#555555" points="0,-37.5 106,-37.5 "/>
<text text-anchor="middle" x="53" y="-26.3" font-family="Verdana" font-size="9.00" fill="#555555">Created</text>
</g>
<!-- struct1 -->
<g id="node2" class="node">
<title>struct1</title>
<polygon fill="#f7f7f9" stroke="#555555" points="124,-145.5 124,-307.5 261,-307.5 261,-145.5 124,-145.5"/>
<text text-anchor="middle" x="192.5" y="-296.3" font-family="Verdana" font-size="9.00" fill="#555555">Table: ObjectsCategories</text>
<polyline fill="none" stroke="#555555" points="124,-289.5 261,-289.5 "/>
<text text-anchor="middle" x="192.5" y="-278.3" font-family="Verdana" font-size="9.00" fill="#555555">Id +</text>
<polyline fill="none" stroke="#555555" points="124,-271.5 261,-271.5 "/>
<text text-anchor="middle" x="192.5" y="-260.3" font-family="Verdana" font-size="9.00" fill="#555555">Name</text>
<polyline fill="none" stroke="#555555" points="124,-253.5 261,-253.5 "/>
<text text-anchor="middle" x="192.5" y="-242.3" font-family="Verdana" font-size="9.00" fill="#555555">IsActive</text>
<polyline fill="none" stroke="#555555" points="124,-235.5 261,-235.5 "/>
<text text-anchor="middle" x="192.5" y="-224.3" font-family="Verdana" font-size="9.00" fill="#555555">Created</text>
<polyline fill="none" stroke="#555555" points="124,-217.5 261,-217.5 "/>
<text text-anchor="middle" x="192.5" y="-206.3" font-family="Verdana" font-size="9.00" fill="#555555">+ CreatedBy</text>
<polyline fill="none" stroke="#555555" points="124,-199.5 261,-199.5 "/>
<text text-anchor="middle" x="192.5" y="-188.3" font-family="Verdana" font-size="9.00" fill="#555555">Modified</text>
<polyline fill="none" stroke="#555555" points="124,-181.5 261,-181.5 "/>
<text text-anchor="middle" x="192.5" y="-170.3" font-family="Verdana" font-size="9.00" fill="#555555">+ ModifiedBy</text>
<polyline fill="none" stroke="#555555" points="124,-163.5 261,-163.5 "/>
<text text-anchor="middle" x="192.5" y="-152.3" font-family="Verdana" font-size="9.00" fill="#555555">RowVersion</text>
</g>
<!-- struct0&#45;&gt;struct1 -->
<g id="edge2" class="edge">
<title>struct0:c789577851_1&#45;&gt;struct1:c894626230_6</title>
<path fill="none" stroke="#337ab7" d="M106,-190.5C112.72,-190.5 113.82,-196.85 115.97,-202"/>
<polygon fill="#337ab7" stroke="#337ab7" points="114.02,-204.93 124,-208.5 118.43,-199.49 114.02,-204.93"/>
</g>
<!-- struct0&#45;&gt;struct1 -->
<g id="edge3" class="edge">
<title>struct0:c789577851_1&#45;&gt;struct1:c894626230_8</title>
<path fill="none" stroke="#337ab7" d="M106,-190.5C112.72,-190.5 113.82,-184.15 115.97,-179"/>
<polygon fill="#337ab7" stroke="#337ab7" points="118.43,-181.51 124,-172.5 114.02,-176.07 118.43,-181.51"/>
</g>
<!-- struct2 -->
<g id="node3" class="node">
<title>struct2</title>
<polygon fill="#f7f7f9" stroke="#555555" points="279,-271.5 279,-685.5 427,-685.5 427,-271.5 279,-271.5"/>
<text text-anchor="middle" x="353" y="-674.3" font-family="Verdana" font-size="9.00" fill="#555555">Table: SapToroExtension</text>
<polyline fill="none" stroke="#555555" points="279,-667.5 427,-667.5 "/>
<text text-anchor="middle" x="353" y="-656.3" font-family="Verdana" font-size="9.00" fill="#555555">Id +</text>
<polyline fill="none" stroke="#555555" points="279,-649.5 427,-649.5 "/>
<text text-anchor="middle" x="353" y="-638.3" font-family="Verdana" font-size="9.00" fill="#555555">+ DepartmentId</text>
<polyline fill="none" stroke="#555555" points="279,-631.5 427,-631.5 "/>
<text text-anchor="middle" x="353" y="-620.3" font-family="Verdana" font-size="9.00" fill="#555555">Code</text>
<polyline fill="none" stroke="#555555" points="279,-613.5 427,-613.5 "/>
<text text-anchor="middle" x="353" y="-602.3" font-family="Verdana" font-size="9.00" fill="#555555">Name</text>
<polyline fill="none" stroke="#555555" points="279,-595.5 427,-595.5 "/>
<text text-anchor="middle" x="353" y="-584.3" font-family="Verdana" font-size="9.00" fill="#555555">+ ObjectTypeId</text>
<polyline fill="none" stroke="#555555" points="279,-577.5 427,-577.5 "/>
<text text-anchor="middle" x="353" y="-566.3" font-family="Verdana" font-size="9.00" fill="#555555">TechnologyNumber</text>
<polyline fill="none" stroke="#555555" points="279,-559.5 427,-559.5 "/>
<text text-anchor="middle" x="353" y="-548.3" font-family="Verdana" font-size="9.00" fill="#555555">RegistrationNumber</text>
<polyline fill="none" stroke="#555555" points="279,-541.5 427,-541.5 "/>
<text text-anchor="middle" x="353" y="-530.3" font-family="Verdana" font-size="9.00" fill="#555555">InventoryNumber</text>
<polyline fill="none" stroke="#555555" points="279,-523.5 427,-523.5 "/>
<text text-anchor="middle" x="353" y="-512.3" font-family="Verdana" font-size="9.00" fill="#555555">BeginDate</text>
<polyline fill="none" stroke="#555555" points="279,-505.5 427,-505.5 "/>
<text text-anchor="middle" x="353" y="-494.3" font-family="Verdana" font-size="9.00" fill="#555555">EndDate</text>
<polyline fill="none" stroke="#555555" points="279,-487.5 427,-487.5 "/>
<text text-anchor="middle" x="353" y="-476.3" font-family="Verdana" font-size="9.00" fill="#555555">PrimaryId</text>
<polyline fill="none" stroke="#555555" points="279,-469.5 427,-469.5 "/>
<text text-anchor="middle" x="353" y="-458.3" font-family="Verdana" font-size="9.00" fill="#555555">Created</text>
<polyline fill="none" stroke="#555555" points="279,-451.5 427,-451.5 "/>
<text text-anchor="middle" x="353" y="-440.3" font-family="Verdana" font-size="9.00" fill="#555555">+ CreatedBy</text>
<polyline fill="none" stroke="#555555" points="279,-433.5 427,-433.5 "/>
<text text-anchor="middle" x="353" y="-422.3" font-family="Verdana" font-size="9.00" fill="#555555">Modified</text>
<polyline fill="none" stroke="#555555" points="279,-415.5 427,-415.5 "/>
<text text-anchor="middle" x="353" y="-404.3" font-family="Verdana" font-size="9.00" fill="#555555">+ ModifiedBy</text>
<polyline fill="none" stroke="#555555" points="279,-397.5 427,-397.5 "/>
<text text-anchor="middle" x="353" y="-386.3" font-family="Verdana" font-size="9.00" fill="#555555">Deleted</text>
<polyline fill="none" stroke="#555555" points="279,-379.5 427,-379.5 "/>
<text text-anchor="middle" x="353" y="-368.3" font-family="Verdana" font-size="9.00" fill="#555555">+ DeletedBy</text>
<polyline fill="none" stroke="#555555" points="279,-361.5 427,-361.5 "/>
<text text-anchor="middle" x="353" y="-350.3" font-family="Verdana" font-size="9.00" fill="#555555">RowVersion</text>
<polyline fill="none" stroke="#555555" points="279,-343.5 427,-343.5 "/>
<text text-anchor="middle" x="353" y="-332.3" font-family="Verdana" font-size="9.00" fill="#555555">IsActive</text>
<polyline fill="none" stroke="#555555" points="279,-325.5 427,-325.5 "/>
<text text-anchor="middle" x="353" y="-314.3" font-family="Verdana" font-size="9.00" fill="#555555">+ HPFRegistrationNumberId</text>
<polyline fill="none" stroke="#555555" points="279,-307.5 427,-307.5 "/>
<text text-anchor="middle" x="353" y="-296.3" font-family="Verdana" font-size="9.00" fill="#555555">InServiceDate</text>
<polyline fill="none" stroke="#555555" points="279,-289.5 427,-289.5 "/>
<text text-anchor="middle" x="353" y="-278.3" font-family="Verdana" font-size="9.00" fill="#555555">+ ObjectsCategoryId</text>
</g>
<!-- struct1&#45;&gt;struct2 -->
<g id="edge1" class="edge">
<title>struct1:c894626230_1&#45;&gt;struct2:c1938105945_24</title>
<path fill="none" stroke="black" d="M261,-280.5C264.25,-280.5 266.51,-280.5 268.58,-280.5"/>
<polygon fill="black" stroke="black" points="269,-284 279,-280.5 269,-277 269,-284"/>
</g>
</g>
</svg>
