<?xml version="1.0" encoding="UTF-8" standalone="no"?>
<!DOCTYPE svg PUBLIC "-//W3C//DTD SVG 1.1//EN"
 "http://www.w3.org/Graphics/SVG/1.1/DTD/svg11.dtd">
<!-- Generated by graphviz version 5.0.0 (20220707.1540)
 -->
<!-- Title: g Pages: 1 -->
<svg width="260pt" height="262pt"
 viewBox="0.00 0.00 260.00 262.00" xmlns="http://www.w3.org/2000/svg" xmlns:xlink="http://www.w3.org/1999/xlink">
<g id="graph0" class="graph" transform="scale(1 1) rotate(0) translate(4 258)">
<title>g</title>
<polygon fill="white" stroke="transparent" points="-4,4 -4,-258 256,-258 256,4 -4,4"/>
<text text-anchor="middle" x="126" y="-7" font-family="Verdana" font-size="10.00">View: ExaminationsActivitiesDocumentsHeaders</text>
<!-- struct0 -->
<g id="node1" class="node">
<title>struct0</title>
<polygon fill="#f7f7f9" stroke="#555555" points="23,-19.5 23,-253.5 229,-253.5 229,-19.5 23,-19.5"/>
<text text-anchor="middle" x="126" y="-242.3" font-family="Verdana" font-size="9.00" fill="#555555">Table: ExaminationsActivitiesDocuments</text>
<polyline fill="none" stroke="#555555" points="23,-235.5 229,-235.5 "/>
<text text-anchor="middle" x="126" y="-224.3" font-family="Verdana" font-size="9.00" fill="#555555">Id</text>
<polyline fill="none" stroke="#555555" points="23,-217.5 229,-217.5 "/>
<text text-anchor="middle" x="126" y="-206.3" font-family="Verdana" font-size="9.00" fill="#555555">+ ExaminationsActivityId</text>
<polyline fill="none" stroke="#555555" points="23,-199.5 229,-199.5 "/>
<text text-anchor="middle" x="126" y="-188.3" font-family="Verdana" font-size="9.00" fill="#555555">FileBody</text>
<polyline fill="none" stroke="#555555" points="23,-181.5 229,-181.5 "/>
<text text-anchor="middle" x="126" y="-170.3" font-family="Verdana" font-size="9.00" fill="#555555">Created</text>
<polyline fill="none" stroke="#555555" points="23,-163.5 229,-163.5 "/>
<text text-anchor="middle" x="126" y="-152.3" font-family="Verdana" font-size="9.00" fill="#555555">+ CreatedBy</text>
<polyline fill="none" stroke="#555555" points="23,-145.5 229,-145.5 "/>
<text text-anchor="middle" x="126" y="-134.3" font-family="Verdana" font-size="9.00" fill="#555555">RowVersion</text>
<polyline fill="none" stroke="#555555" points="23,-127.5 229,-127.5 "/>
<text text-anchor="middle" x="126" y="-116.3" font-family="Verdana" font-size="9.00" fill="#555555">Modified</text>
<polyline fill="none" stroke="#555555" points="23,-109.5 229,-109.5 "/>
<text text-anchor="middle" x="126" y="-98.3" font-family="Verdana" font-size="9.00" fill="#555555">+ ModifiedBy</text>
<polyline fill="none" stroke="#555555" points="23,-91.5 229,-91.5 "/>
<text text-anchor="middle" x="126" y="-80.3" font-family="Verdana" font-size="9.00" fill="#555555">SeqNumber</text>
<polyline fill="none" stroke="#555555" points="23,-73.5 229,-73.5 "/>
<text text-anchor="middle" x="126" y="-62.3" font-family="Verdana" font-size="9.00" fill="#555555">FileName</text>
<polyline fill="none" stroke="#555555" points="23,-55.5 229,-55.5 "/>
<text text-anchor="middle" x="126" y="-44.3" font-family="Verdana" font-size="9.00" fill="#555555">Description</text>
<polyline fill="none" stroke="#555555" points="23,-37.5 229,-37.5 "/>
<text text-anchor="middle" x="126" y="-26.3" font-family="Verdana" font-size="9.00" fill="#555555">ContentType</text>
</g>
</g>
</svg>
