<?xml version="1.0" encoding="UTF-8" standalone="no"?>
<!DOCTYPE svg PUBLIC "-//W3C//DTD SVG 1.1//EN"
 "http://www.w3.org/Graphics/SVG/1.1/DTD/svg11.dtd">
<!-- Generated by graphviz version 5.0.0 (20220707.1540)
 -->
<!-- Title: g Pages: 1 -->
<svg width="214pt" height="262pt"
 viewBox="0.00 0.00 214.00 262.00" xmlns="http://www.w3.org/2000/svg" xmlns:xlink="http://www.w3.org/1999/xlink">
<g id="graph0" class="graph" transform="scale(1 1) rotate(0) translate(4 258)">
<title>g</title>
<polygon fill="white" stroke="transparent" points="-4,4 -4,-258 210,-258 210,4 -4,4"/>
<text text-anchor="middle" x="103" y="-7" font-family="Verdana" font-size="10.00">View: ExaminationsDocumentsHeaders</text>
<!-- struct0 -->
<g id="node1" class="node">
<title>struct0</title>
<polygon fill="#f7f7f9" stroke="#555555" points="21,-19.5 21,-253.5 185,-253.5 185,-19.5 21,-19.5"/>
<text text-anchor="middle" x="103" y="-242.3" font-family="Verdana" font-size="9.00" fill="#555555">Table: ExaminationsDocuments</text>
<polyline fill="none" stroke="#555555" points="21,-235.5 185,-235.5 "/>
<text text-anchor="middle" x="103" y="-224.3" font-family="Verdana" font-size="9.00" fill="#555555">Id</text>
<polyline fill="none" stroke="#555555" points="21,-217.5 185,-217.5 "/>
<text text-anchor="middle" x="103" y="-206.3" font-family="Verdana" font-size="9.00" fill="#555555">+ ExaminationId</text>
<polyline fill="none" stroke="#555555" points="21,-199.5 185,-199.5 "/>
<text text-anchor="middle" x="103" y="-188.3" font-family="Verdana" font-size="9.00" fill="#555555">FileBody</text>
<polyline fill="none" stroke="#555555" points="21,-181.5 185,-181.5 "/>
<text text-anchor="middle" x="103" y="-170.3" font-family="Verdana" font-size="9.00" fill="#555555">Created</text>
<polyline fill="none" stroke="#555555" points="21,-163.5 185,-163.5 "/>
<text text-anchor="middle" x="103" y="-152.3" font-family="Verdana" font-size="9.00" fill="#555555">+ CreatedBy</text>
<polyline fill="none" stroke="#555555" points="21,-145.5 185,-145.5 "/>
<text text-anchor="middle" x="103" y="-134.3" font-family="Verdana" font-size="9.00" fill="#555555">RowVersion</text>
<polyline fill="none" stroke="#555555" points="21,-127.5 185,-127.5 "/>
<text text-anchor="middle" x="103" y="-116.3" font-family="Verdana" font-size="9.00" fill="#555555">Modified</text>
<polyline fill="none" stroke="#555555" points="21,-109.5 185,-109.5 "/>
<text text-anchor="middle" x="103" y="-98.3" font-family="Verdana" font-size="9.00" fill="#555555">+ ModifiedBy</text>
<polyline fill="none" stroke="#555555" points="21,-91.5 185,-91.5 "/>
<text text-anchor="middle" x="103" y="-80.3" font-family="Verdana" font-size="9.00" fill="#555555">SeqNumber</text>
<polyline fill="none" stroke="#555555" points="21,-73.5 185,-73.5 "/>
<text text-anchor="middle" x="103" y="-62.3" font-family="Verdana" font-size="9.00" fill="#555555">FileName</text>
<polyline fill="none" stroke="#555555" points="21,-55.5 185,-55.5 "/>
<text text-anchor="middle" x="103" y="-44.3" font-family="Verdana" font-size="9.00" fill="#555555">Description</text>
<polyline fill="none" stroke="#555555" points="21,-37.5 185,-37.5 "/>
<text text-anchor="middle" x="103" y="-26.3" font-family="Verdana" font-size="9.00" fill="#555555">ContentType</text>
</g>
</g>
</svg>
